/* XPM */
static char * E_exit_xpm[] = {
"32 32 254 2",
"  	c None",
". 	c #48291F",
"+ 	c #51311C",
"@ 	c #73511C",
"# 	c #714E1A",
"$ 	c #402221",
"% 	c #644315",
"& 	c #563617",
"* 	c #3F2123",
"= 	c #442523",
"- 	c #62411B",
"; 	c #684615",
"> 	c #77541C",
", 	c #422321",
"' 	c #1C222E",
") 	c #6A4815",
"! 	c #694715",
"~ 	c #492922",
"{ 	c #836026",
"] 	c #5A3A16",
"^ 	c #442522",
"/ 	c #674615",
"( 	c #3B1D23",
"_ 	c #4D2D1D",
": 	c #6C4B1E",
"< 	c #704F1A",
"[ 	c #3E2022",
"} 	c #74511A",
"| 	c #664415",
"1 	c #78561D",
"2 	c #654315",
"3 	c #634215",
"4 	c #492A24",
"5 	c #916D2B",
"6 	c #5B3B16",
"7 	c #714F19",
"8 	c #3B1D24",
"9 	c #614015",
"0 	c #49291F",
"a 	c #76541D",
"b 	c #3F2122",
"c 	c #73511A",
"d 	c #412321",
"e 	c #674515",
"f 	c #644215",
"g 	c #4A2B24",
"h 	c #715020",
"i 	c #422421",
"j 	c #63421B",
"k 	c #603F15",
"l 	c #46271F",
"m 	c #77551E",
"n 	c #654415",
"o 	c #402122",
"p 	c #704E1A",
"q 	c #402222",
"r 	c #654319",
"s 	c #462724",
"t 	c #75531F",
"u 	c #412323",
"v 	c #452620",
"w 	c #3F2022",
"x 	c #6F4D18",
"y 	c #75521C",
"z 	c #43241F",
"A 	c #684715",
"B 	c #54341B",
"C 	c #442624",
"D 	c #74521E",
"E 	c #422323",
"F 	c #664515",
"G 	c #7A571E",
"H 	c #412221",
"I 	c #3D1F22",
"J 	c #64431B",
"K 	c #8E6B28",
"L 	c #75531B",
"M 	c #896625",
"N 	c #63431B",
"O 	c #7B581E",
"P 	c #3C1D23",
"Q 	c #6E4C18",
"R 	c #60401A",
"S 	c #3D1F23",
"T 	c #8B6829",
"U 	c #856227",
"V 	c #6E4C1A",
"W 	c #452622",
"X 	c #6E4C17",
"Y 	c #6D4B18",
"Z 	c #442520",
"` 	c #3E1F22",
" .	c #72501A",
"..	c #7B591E",
"+.	c #4B2B20",
"@.	c #684616",
"#.	c #6D4B17",
"$.	c #422320",
"%.	c #432521",
"&.	c #3F2121",
"*.	c #846226",
"=.	c #6B4916",
"-.	c #4C2C20",
";.	c #6A4817",
">.	c #4B2C1E",
",.	c #846126",
"'.	c #856223",
").	c #402121",
"!.	c #8A6726",
"~.	c #724F1A",
"{.	c #7D5A1F",
"].	c #462721",
"^.	c #6A4917",
"/.	c #492A21",
"(.	c #573717",
"_.	c #8A6626",
":.	c #805D20",
"<.	c #45261E",
"[.	c #432421",
"}.	c #73501A",
"|.	c #7E5B20",
"1.	c #472821",
"2.	c #6B4917",
"3.	c #4B2C21",
"4.	c #7C591F",
"5.	c #7F5C20",
"6.	c #492A1F",
"7.	c #79571D",
"8.	c #775522",
"9.	c #482921",
"0.	c #5F3E16",
"a.	c #4C2D22",
"b.	c #4D2D24",
"c.	c #6F4E1F",
"d.	c #785622",
"e.	c #4A2C22",
"f.	c #876424",
"g.	c #43251F",
"h.	c #563624",
"i.	c #47281F",
"j.	c #77551D",
"k.	c #472820",
"l.	c #422424",
"m.	c #735221",
"n.	c #20242C",
"o.	c #624017",
"p.	c #76531C",
"q.	c #815E22",
"r.	c #492A1E",
"s.	c #694817",
"t.	c #432524",
"u.	c #735121",
"v.	c #1D222D",
"w.	c #634115",
"x.	c #513119",
"y.	c #674516",
"z.	c #442524",
"A.	c #523E24",
"B.	c #1E222D",
"C.	c #23222B",
"D.	c #48291D",
"E.	c #1C212D",
"F.	c #1C222D",
"G.	c #8A6625",
"H.	c #76531B",
"I.	c #815D21",
"J.	c #452624",
"K.	c #2B2928",
"L.	c #24262C",
"M.	c #624015",
"N.	c #26262A",
"O.	c #704E1B",
"P.	c #492A1D",
"Q.	c #452724",
"R.	c #292829",
"S.	c #61401A",
"T.	c #27272A",
"U.	c #624115",
"V.	c #79561E",
"W.	c #25232B",
"X.	c #6D4C1C",
"Y.	c #573723",
"Z.	c #2F2E2C",
"`.	c #815E21",
" +	c #896525",
".+	c #422420",
"++	c #6B4A1B",
"@+	c #503124",
"#+	c #412320",
"$+	c #896626",
"%+	c #25252A",
"&+	c #21222C",
"*+	c #1E212D",
"=+	c #442620",
"-+	c #836023",
";+	c #45261F",
">+	c #5B3B24",
",+	c #553623",
"'+	c #805D21",
")+	c #836122",
"!+	c #836124",
"~+	c #704D1A",
"{+	c #4F3023",
"]+	c #714E19",
"^+	c #866324",
"/+	c #7F5D24",
"(+	c #4D2E1C",
"_+	c #72501B",
":+	c #4B2B23",
"<+	c #704E19",
"[+	c #886524",
"}+	c #573724",
"|+	c #502F1C",
"1+	c #4A2A1E",
"2+	c #442521",
"3+	c #492A23",
"4+	c #553524",
"5+	c #50301B",
"6+	c #825F22",
"7+	c #7F5D25",
"8+	c #472923",
"9+	c #8A6725",
"0+	c #583824",
"a+	c #846122",
"b+	c #7D5B24",
"c+	c #704D19",
"d+	c #4F3024",
"e+	c #7C5A24",
"f+	c #6F4D19",
"g+	c #472823",
"h+	c #412322",
"i+	c #24242A",
"j+	c #44251F",
"k+	c #846123",
"l+	c #462720",
"m+	c #22242B",
"n+	c #1E222C",
"o+	c #846023",
"p+	c #412223",
"q+	c #593A18",
"r+	c #20242D",
"s+	c #805E22",
"t+	c #5D3F19",
"u+	c #432520",
"v+	c #462723",
"w+	c #65491B",
"x+	c #46271E",
"y+	c #634416",
"z+	c #664718",
"A+	c #846124",
"B+	c #7D5B20",
"C+	c #3F2023",
"D+	c #5E4119",
"E+	c #4F2F22",
". + @ # $ % & * = - ; > , & & ' ' ) ! & % ~ { ] ! ^ ; / & ( & & ",
"_ ; : < [ % } | ^ - 1 2 . & & 3 ' & ) & 2 4 5 6 ! ^ 7 ; & 8 & 9 ",
"0 ; a 2 b 2 c | d - 1 e . e ; 3 ' & ) f 2 g h ! & i 7 j k 8 9 ! ",
"l ; m n o p ! | q r 1 ! . ; ; & ' & ) / ! s t ! ; u ; j k 8 9 ) ",
"v e m ! o c ! | w x y ! z ! A & ' & ) | B C D ! ; E ; j f 8 ! ) ",
"v F G ( H c ; | I x J ! . & & & ' & ) ! I K 9 L ; b M N n 8 ) ) ",
"v ; O P [ c ; | I Q R l . | & & ' & ) ! S T ; 7 ; I U V ! 8 ) & ",
"v ; O d W ! ; | I X Y Z . ; & & ' ) A ! P T ! ! ! ` U  .; 8 ) ; ",
"v ; ..| +.! ; @.I #.Q $.%.; & & ' ' & ) 8 T ! 2 | &.*. .; 8 ) ; ",
"v =.O & -.! ; ;.[ #.x l >.; & & ' ' & ) 8 ,.'.F | ).!.~.; 8 & ! ",
"i x {.& ].2 ; ^.[ ; =./.! / (.& ' ' & ) 8 _.:.; e <.!. .; 8 :.) ",
"[.}.|.& 1.& ; 2.` ! / 3.! ; & & ' ' & ) 8 !.; 4.& v M  .% 8 5.) ",
"6.7.; 8.9.0.; 2.` ! | a.! | & & ' ' & A ! 8 ; ; 6.b.;  ./ 8 ) {.",
". c.; d.1.k ! 2.u ! & e.! F & & ' ' & 0.! 8 f.! g.h.; X ; 8 & 7.",
"i.& j.d.k.k ! ^.l.! m.n.i.e n & ' ' & k o.8 ' e g.M ! 2 e 8 ) ) ",
"i.& p.q.r.k ; s.t.| u.v.d ! e & ' ' & w.x.8 ' & ).M ! ; & 8 ) ) ",
"l & L q.r.9 ; y.z.| A.B.C.! | e ' ' & f D.E.F.& ).G.! ; & 8 ) & ",
"i.& H.I.r.9 ; 2 J.K.L.' F.v.; ; ' ' 9 M.8 F.F.N.4 ! ; 2 ) 8 ) & ",
"i.& O.I.P.9 ; 2 Q.R.S.e $ T.; ; ' ' & U.E.. V.v.W.! ; 2 ) 8 & & ",
"i.0.X.Y.$.M.; 2 Q.Z.& . i.T.& ; ' ' & 3 ' Z `.F.W. +; 2 ) 8 & ! ",
".+e ++@+#+U.; 2 H $+%+&+&+; ) & ' ' & f *+' ' ' =+-+| 2 ) 8 A :.",
";+! k >+l & ! ;.d $+F F 6.; ) & ' ' & f ! ,+; e /.% '+2 ) 8 ! )+",
"i.e k !+_ U.! ~+i !.; 2 . / ) & ' ' % & ! {+; ! ]+l | j.) w 8 ^+",
"i.e 3 /+(+U.! _+Z _.; k.6.! ! & ' ' % & ! :+; ! <+l & e H.8 8 [+",
"i.e 3 }+|+U.U.{.1+{ F 2+; ! & & ' ' & % | 3+; ! ]+l & ; 7 8 8 M ",
"$.e 3 4+5+& w.6+1+7+F x v ! & ' ' ' & | | 8+! ; e /./ ) & 8 ) 9+",
"$.e f 0+5+& w.a+%.b+; c+k.F & ' ' ' & e A 8+F e e ].; ) & 8 ) G.",
"l e & d+& & F '.v e+; f+k.F & ' ' & & e [.g+F / & h+; ) & 8 ) & ",
"' ' ' ' i+' ' ^+j+& k+p l+F & ' ' & & ! b u & ; & , ' ' m+' ' ' ",
"n+' ' ' ' ' ' ' ' B.o+J l+F & ' ' & & ! w p+q+; ' ' ' ' ' ' ' ' ",
"' ' ' ' ' ' ' r+d & s+~.v F & ' n.& & | [ * t+; u+v+' ' ' ' ' ' ",
"l+/ w+x+y+2 z+A+d .+B+l+v t+& ' n.& & ! S C+D+F o E+; & 8 8 ) 3 "};
