/* XPM */
static char * E_exit_1_xpm[] = {
"32 32 677 2",
"  	c None",
". 	c #4F3829",
"+ 	c #351F17",
"@ 	c #261B10",
"# 	c #211712",
"$ 	c #0F0F0E",
"% 	c #0C0C0B",
"& 	c #100F0E",
"* 	c #0C0B0B",
"= 	c #0D0D0D",
"- 	c #0D0D0C",
"; 	c #0E0D0D",
"> 	c #130F0F",
", 	c #3B2E1D",
"' 	c #53361A",
") 	c #563718",
"! 	c #46281E",
"~ 	c #4E2E1C",
"{ 	c #492A1D",
"] 	c #5A3C23",
"^ 	c #573D26",
"/ 	c #3E2818",
"( 	c #352615",
"_ 	c #3C322C",
": 	c #55514B",
"< 	c #56534D",
"[ 	c #1F1E1C",
"} 	c #322C29",
"| 	c #443F3B",
"1 	c #55524C",
"2 	c #191817",
"3 	c #56524B",
"4 	c #534C44",
"5 	c #43382F",
"6 	c #462F16",
"7 	c #3F231D",
"8 	c #543519",
"9 	c #4B2D1E",
"0 	c #52331A",
"a 	c #48281D",
"b 	c #53341A",
"c 	c #50311A",
"d 	c #56361B",
"e 	c #4F2F1A",
"f 	c #503018",
"g 	c #563619",
"h 	c #543418",
"i 	c #463425",
"j 	c #403A37",
"k 	c #423C38",
"l 	c #423D39",
"m 	c #54514B",
"n 	c #3F3936",
"o 	c #433E3A",
"p 	c #423B37",
"q 	c #47392C",
"r 	c #694F31",
"s 	c #5E3F25",
"t 	c #5B3A17",
"u 	c #52321A",
"v 	c #543319",
"w 	c #4E2F1B",
"x 	c #4B2C1C",
"y 	c #4B2E1F",
"z 	c #0B0B0B",
"A 	c #4F3019",
"B 	c #49291F",
"C 	c #573619",
"D 	c #4E2D1C",
"E 	c #664518",
"F 	c #5D3C18",
"G 	c #513119",
"H 	c #61411B",
"I 	c #513118",
"J 	c #563519",
"K 	c #452F1C",
"L 	c #2E2725",
"M 	c #2D2825",
"N 	c #2F2926",
"O 	c #403B37",
"P 	c #514E48",
"Q 	c #201918",
"R 	c #302B29",
"S 	c #4C331C",
"T 	c #50301A",
"U 	c #49291C",
"V 	c #5D3B19",
"W 	c #53331A",
"X 	c #593917",
"Y 	c #563618",
"Z 	c #46271E",
"` 	c #4D2D1E",
" .	c #5F4019",
"..	c #3B2820",
"+.	c #442620",
"@.	c #6B4819",
"#.	c #57361F",
"$.	c #765115",
"%.	c #603D18",
"&.	c #52321C",
"*.	c #5D3C17",
"=.	c #573719",
"-.	c #5A391E",
";.	c #48331E",
">.	c #211A19",
",.	c #110E10",
"'.	c #312B28",
").	c #413C38",
"!.	c #221E1E",
"~.	c #4C331B",
"{.	c #53331B",
"].	c #4A2B1C",
"^.	c #593919",
"/.	c #55361D",
"(.	c #6C4B1B",
"_.	c #492A1E",
":.	c #6B4714",
"<.	c #3A1D25",
"[.	c #4F301C",
"}.	c #4D3820",
"|.	c #262028",
"1.	c #2A2327",
"2.	c #3B3024",
"3.	c #0F202F",
"4.	c #13212D",
"5.	c #2B292A",
"6.	c #2F2529",
"7.	c #453323",
"8.	c #664620",
"9.	c #54331C",
"0.	c #422F1F",
"a.	c #110F10",
"b.	c #100E10",
"c.	c #120F11",
"d.	c #241D1C",
"e.	c #332D2A",
"f.	c #322D29",
"g.	c #111117",
"h.	c #452F1D",
"i.	c #603F17",
"j.	c #59391A",
"k.	c #624319",
"l.	c #553922",
"m.	c #614621",
"n.	c #2D1F27",
"o.	c #332C28",
"p.	c #2C1C29",
"q.	c #26262A",
"r.	c #0A1C30",
"s.	c #4D2F19",
"t.	c #382324",
"u.	c #785318",
"v.	c #372926",
"w.	c #352A2A",
"x.	c #322A2C",
"y.	c #25252B",
"z.	c #22232C",
"A.	c #463523",
"B.	c #2F2727",
"C.	c #161011",
"D.	c #231C1B",
"E.	c #221C1B",
"F.	c #1B1412",
"G.	c #523418",
"H.	c #614017",
"I.	c #573C1A",
"J.	c #1B222C",
"K.	c #0B1E30",
"L.	c #15202F",
"M.	c #1E232D",
"N.	c #2B272C",
"O.	c #5C3A27",
"P.	c #61461B",
"Q.	c #4A3420",
"R.	c #48271C",
"S.	c #72501B",
"T.	c #5A3A21",
"U.	c #664517",
"V.	c #61401E",
"W.	c #5B3A1A",
"X.	c #5F3D1B",
"Y.	c #52311C",
"Z.	c #120E0E",
"`.	c #302A27",
" +	c #150F10",
".+	c #201511",
"++	c #5E3D16",
"@+	c #5B3B1D",
"#+	c #533719",
"$+	c #413120",
"%+	c #452A1E",
"&+	c #623F13",
"*+	c #623E1D",
"=+	c #6B4814",
"-+	c #42221D",
";+	c #73511E",
">+	c #54351B",
",+	c #502F1A",
"'+	c #44241E",
")+	c #7D5B22",
"!+	c #51321E",
"~+	c #664314",
"{+	c #6A481C",
"]+	c #694717",
"^+	c #603F1C",
"/+	c #46341E",
"(+	c #140F0F",
"_+	c #2F2219",
":+	c #644314",
"<+	c #5A391F",
"[+	c #5F3E17",
"}+	c #644317",
"|+	c #482A1C",
"1+	c #674614",
"2+	c #56361E",
"3+	c #694716",
"4+	c #805C1D",
"5+	c #51331B",
"6+	c #0D0C0C",
"7+	c #0A0A0A",
"8+	c #46261E",
"9+	c #896625",
"0+	c #46281F",
"a+	c #694714",
"b+	c #69491D",
"c+	c #55341C",
"d+	c #664516",
"e+	c #64421A",
"f+	c #55341A",
"g+	c #4A341D",
"h+	c #120E0F",
"i+	c #201A19",
"j+	c #322B29",
"k+	c #413736",
"l+	c #3E3433",
"m+	c #291D1A",
"n+	c #614015",
"o+	c #624118",
"p+	c #654315",
"q+	c #5D3C1E",
"r+	c #5D3C16",
"s+	c #43231D",
"t+	c #7E5B1F",
"u+	c #51331A",
"v+	c #50311B",
"w+	c #49281E",
"x+	c #68471C",
"y+	c #47291F",
"z+	c #5E3D15",
"A+	c #704E1C",
"B+	c #46271F",
"C+	c #654416",
"D+	c #614019",
"E+	c #4F301B",
"F+	c #44301D",
"G+	c #0F0D0F",
"H+	c #110D0E",
"I+	c #120D0E",
"J+	c #211714",
"K+	c #613F15",
"L+	c #604020",
"M+	c #634117",
"N+	c #58381A",
"O+	c #644315",
"P+	c #543521",
"Q+	c #634215",
"R+	c #452620",
"S+	c #78551D",
"T+	c #54371B",
"U+	c #4B2C1D",
"V+	c #553618",
"W+	c #492B20",
"X+	c #6D4C1D",
"Y+	c #654316",
"Z+	c #634219",
"`+	c #4D2E1C",
" @	c #46301D",
".@	c #3C3232",
"+@	c #3D3332",
"@@	c #130E0F",
"#@	c #1C1616",
"$@	c #1B1616",
"%@	c #231914",
"&@	c #5F3F16",
"*@	c #745223",
"=@	c #614016",
"-@	c #72511E",
";@	c #57371A",
">@	c #694715",
",@	c #472924",
"'@	c #684715",
")@	c #5E3D2A",
"!@	c #6E4D15",
"~@	c #5A3B1C",
"{@	c #4E2D1E",
"]@	c #583918",
"^@	c #492B1F",
"/@	c #644215",
"(@	c #704F1F",
"_@	c #51311A",
":@	c #613F17",
"<@	c #5C3B18",
"[@	c #45301D",
"}@	c #110D0D",
"|@	c #150E10",
"1@	c #2D2828",
"2@	c #47311C",
"3@	c #755324",
"4@	c #74521E",
"5@	c #50311C",
"6@	c #49291E",
"7@	c #614115",
"8@	c #5B3B29",
"9@	c #704F16",
"0@	c #5A3D1D",
"a@	c #52331B",
"b@	c #6F4E1E",
"c@	c #583924",
"d@	c #644319",
"e@	c #5C3C1D",
"f@	c #644316",
"g@	c #5F3D17",
"h@	c #624117",
"i@	c #140E0F",
"j@	c #2F2A27",
"k@	c #2C2727",
"l@	c #49321D",
"m@	c #664521",
"n@	c #714F1B",
"o@	c #5C3B1E",
"p@	c #6E4C16",
"q@	c #51311B",
"r@	c #74511B",
"s@	c #5D3C29",
"t@	c #5F401D",
"u@	c #664719",
"v@	c #523319",
"w@	c #4C2C1C",
"x@	c #704E1D",
"y@	c #583823",
"z@	c #6A4815",
"A@	c #62421B",
"B@	c #62411D",
"C@	c #60401A",
"D@	c #4A2F1E",
"E@	c #48331C",
"F@	c #221B1A",
"G@	c #141117",
"H@	c #4B331C",
"I@	c #4A2D20",
"J@	c #50311D",
"K@	c #6B4917",
"L@	c #54331B",
"M@	c #7B581F",
"N@	c #5C3B29",
"O@	c #5C3E1E",
"P@	c #57391F",
"Q@	c #4F2F19",
"R@	c #4D2D1C",
"S@	c #745320",
"T@	c #43241C",
"U@	c #694818",
"V@	c #60401B",
"W@	c #66451D",
"X@	c #644216",
"Y@	c #493320",
"Z@	c #292528",
"`@	c #4C381D",
" #	c #3E3534",
".#	c #151317",
"+#	c #49321B",
"@#	c #2D2125",
"##	c #50311F",
"$#	c #6A4816",
"%#	c #58371A",
"&#	c #785621",
"*#	c #593A28",
"=#	c #5B3C1D",
"-#	c #53341F",
";#	c #6D4B18",
">#	c #5F3F1B",
",#	c #5F3E1D",
"'#	c #634116",
")#	c #3B2D24",
"!#	c #3B2821",
"~#	c #48361E",
"{#	c #403635",
"]#	c #151010",
"^#	c #231D20",
"/#	c #46321C",
"(#	c #372725",
"_#	c #352925",
":#	c #674515",
"<#	c #583717",
"[#	c #5C3C20",
"}#	c #513116",
"|#	c #553626",
"1#	c #5D3D1B",
"2#	c #52341E",
"3#	c #0B0B0A",
"4#	c #4E2F1A",
"5#	c #47281F",
"6#	c #694816",
"7#	c #4A2B1B",
"8#	c #6F4D17",
"9#	c #62411A",
"0#	c #4E2E1E",
"a#	c #634216",
"b#	c #664A24",
"c#	c #46301E",
"d#	c #4A351C",
"e#	c #110F11",
"f#	c #161314",
"g#	c #302A2B",
"h#	c #45311D",
"i#	c #342927",
"j#	c #3E2D25",
"k#	c #6E4D19",
"l#	c #4F3021",
"m#	c #563617",
"n#	c #523423",
"o#	c #5E3D1E",
"p#	c #4E301F",
"q#	c #4E2E1B",
"r#	c #452820",
"s#	c #6E4C17",
"t#	c #583817",
"u#	c #63421D",
"v#	c #745221",
"w#	c #54331A",
"x#	c #49341D",
"y#	c #171312",
"z#	c #191314",
"A#	c #1A1414",
"B#	c #201919",
"C#	c #0E0E15",
"D#	c #4D361B",
"E#	c #59391C",
"F#	c #603F19",
"G#	c #6A4817",
"H#	c #45261D",
"I#	c #805D1E",
"J#	c #5E3E20",
"K#	c #6B4A1B",
"L#	c #381A25",
"M#	c #53331F",
"N#	c #54351C",
"O#	c #4D2E1E",
"P#	c #664415",
"Q#	c #4E2F1D",
"R#	c #694814",
"S#	c #5E3C17",
"T#	c #56361D",
"U#	c #674518",
"V#	c #6F4E1F",
"W#	c #5A3919",
"X#	c #332926",
"Y#	c #2E2825",
"Z#	c #4C341C",
"`#	c #654317",
" $	c #603E15",
".$	c #442622",
"+$	c #825F20",
"@$	c #624122",
"#$	c #654418",
"$$	c #361926",
"%$	c #4F2F1F",
"&$	c #5E3E17",
"*$	c #4D2F1E",
"=$	c #4B2C1E",
"-$	c #6A4814",
";$	c #5F3B16",
">$	c #654519",
",$	c #69481D",
"'$	c #302827",
")$	c #1D1413",
"!$	c #543718",
"~$	c #4F2F1E",
"{$	c #4E2C18",
"]$	c #835F20",
"^$	c #603F21",
"/$	c #74511A",
"($	c #442621",
"_$	c #54341E",
":$	c #5C3C17",
"<$	c #4C2C1B",
"[$	c #5F3C15",
"}$	c #3B2725",
"|$	c #292629",
"1$	c #22232A",
"2$	c #2D2B2A",
"3$	c #493522",
"4$	c #56351B",
"5$	c #312826",
"6$	c #231712",
"7$	c #573717",
"8$	c #2C2828",
"9$	c #332929",
"0$	c #463627",
"a$	c #3A2928",
"b$	c #614724",
"c$	c #4F2C1F",
"d$	c #4D3B27",
"e$	c #53371B",
"f$	c #0B0A0A",
"g$	c #322224",
"h$	c #352425",
"i$	c #18232D",
"j$	c #20232C",
"k$	c #23252C",
"l$	c #2E292D",
"m$	c #322826",
"n$	c #493723",
"o$	c #52321D",
"p$	c #4B2D1D",
"q$	c #302826",
"r$	c #231B1A",
"s$	c #1F1512",
"t$	c #452720",
"u$	c #342926",
"v$	c #28232D",
"w$	c #27262D",
"x$	c #1C222D",
"y$	c #17212F",
"z$	c #27292C",
"A$	c #19212E",
"B$	c #132030",
"C$	c #342525",
"D$	c #4B301F",
"E$	c #5E4017",
"F$	c #312B2C",
"G$	c #76541C",
"H$	c #5F421A",
"I$	c #664618",
"J$	c #50301D",
"K$	c #2E2926",
"L$	c #211611",
"M$	c #5F3E16",
"N$	c #57381F",
"O$	c #48291E",
"P$	c #553517",
"Q$	c #4E2F20",
"R$	c #745017",
"S$	c #583518",
"T$	c #583714",
"U$	c #543625",
"V$	c #3D3027",
"W$	c #26252B",
"X$	c #51301A",
"Y$	c #52331D",
"Z$	c #593817",
"`$	c #55361B",
" %	c #6B4A19",
".%	c #58371E",
"+%	c #51311D",
"@%	c #2F2728",
"#%	c #0E0C0E",
"$%	c #3F3534",
"%%	c #140E10",
"&%	c #1F191D",
"*%	c #4E371C",
"=%	c #4C2D20",
"-%	c #5F3F17",
";%	c #4D2D1D",
">%	c #573716",
",%	c #371B25",
"'%	c #583719",
")%	c #704E1F",
"!%	c #4F301E",
"~%	c #6D4B16",
"{%	c #58381C",
"]%	c #65441B",
"^%	c #372A23",
"/%	c #161211",
"(%	c #181213",
"_%	c #0E0C0F",
":%	c #140F10",
"<%	c #141010",
"[%	c #181413",
"}%	c #2F2A2A",
"|%	c #4B2B1C",
"1%	c #65441A",
"2%	c #59391B",
"3%	c #462822",
"4%	c #654516",
"5%	c #7F5D21",
"6%	c #6D4B15",
"7%	c #61401A",
"8%	c #5E3D18",
"9%	c #4B341C",
"0%	c #6B4A1C",
"a%	c #5F3E1F",
"b%	c #6B4912",
"c%	c #53341C",
"d%	c #674818",
"e%	c #472921",
"f%	c #53331C",
"g%	c #624217",
"h%	c #4C2D1D",
"i%	c #7E5B21",
"j%	c #674620",
"k%	c #583816",
"l%	c #583718",
"m%	c #63421F",
"n%	c #5B3A18",
"o%	c #523219",
"p%	c #5B391B",
"q%	c #4F391C",
"r%	c #342E2B",
"s%	c #171112",
"t%	c #161111",
"u%	c #251F21",
"v%	c #4C361C",
"w%	c #6E4C1A",
"x%	c #6D4B14",
"y%	c #51321C",
"z%	c #6D4B17",
"A%	c #452721",
"B%	c #62441A",
"C%	c #50321D",
"D%	c #4C2D1C",
"E%	c #654314",
"F%	c #54341D",
"G%	c #634115",
"H%	c #5E3E18",
"I%	c #634315",
"J%	c #4C2C1E",
"K%	c #55351C",
"L%	c #4F3117",
"M%	c #423837",
"N%	c #151111",
"O%	c #322C2B",
"P%	c #48321E",
"Q%	c #5B3B16",
"R%	c #6C4B1A",
"S%	c #6D4B13",
"T%	c #51311C",
"U%	c #856124",
"V%	c #4F321E",
"W%	c #634419",
"X%	c #624016",
"Y%	c #5B3A16",
"Z%	c #4E3114",
"`%	c #311D12",
" &	c #150F0A",
".&	c #131112",
"+&	c #131012",
"@&	c #221C1A",
"#&	c #413534",
"$&	c #4B372D",
"%&	c #4D3013",
"&&	c #412321",
"*&	c #55361F",
"=&	c #644214",
"-&	c #48291F",
";&	c #54361E",
">&	c #593B1B",
",&	c #533218",
"'&	c #57361A",
")&	c #513A29",
"!&	c #2E1E17",
"~&	c #17110B",
"{&	c #181313",
"]&	c #0B0A0B",
"^&	c #423736",
"/&	c #171413",
"(&	c #2D1C0B",
"_&	c #392516",
":&	c #563616",
"<&	c #462720",
"[&	c #4E2F1C",
"}&	c #52351E",
"|&	c #563516",
"1&	c #25180D",
"2&	c #120C0D",
"3&	c #2C1A11",
"4&	c #56391D",
"  . + @ # $ $     % & $ $     * = $ $ $ $ $   * $ $ - ; > , '   ",
"  ) ! ~ { ] ^ / ( _ : < < [ - } | < 1 1 < < 2 } 3 4 5 6 7 8 9   ",
"* 0 a b c d e f g h ~ i j k } l m m n o m p q r s t u v w x y - ",
"z A B C D E F G H I J K L M N O l P Q R S T U V W X w Y Z `  .* ",
"z ..+.@.#.$.%.&.*.=.-.;.>.,.>.'.l ).>.!.~.{.].^./.(._.:.<.[.}.  ",
"  |.1.2.3.4.5.6.7.8.9.0.a.b.c.d.e.f.>.g.h.i.j.k.l.m.n.o.p.q.r.  ",
"  s.t.u.v.w.x.y.z.A.{.B.C.C.b.b.D.E.a.F.G.H.I.J.K.L.M.N.O.P.Q.  ",
"  G R.S.T.U.V.W.u X.Y.B.C.C.Z.`.`. +C..+++@+#+$+%+&+*+=+-+;+>+* ",
"  ,+'+)+!+~+{+g ]+^+u /+C.> >.'.'.`.(+_+:+<+[+}+|+1+2+3+e 4+5+6+",
"7+T 8+9+0+a+b+c+d+e+f+g+h+i+D.j+k+l+Z.m+n+#.*.o+u p+q+r+s+t+u+7+",
"7+v+w+x+y+z+A+B+C+D+E+F+G+H+j+k+l+I+,.J+K+L+M+{+N+O+P+Q+R+S+T+7+",
"  W U+V+W+:+X+f+Y+Z+`+ @ +G+.@+@@@#@$@%@&@*@=@-@;@>@,@'@)@!@~@  ",
"  b {@]@^@/@(@_@Y+:@<@[@}@C.|@}@> } '.1@2@3@[+4@5@=+6@7@8@9@0@  ",
"  a@U b@c@'@d@e@f@g@h@[@i@C.> >.j@'.'.k@l@m@j.n@o@p@q@r@s@t@u@7+",
"  v@w@x@y@z@A@B@f@C@D@E@C.> >.F@D.} l+G@H@I@J@3+W K@L@M@N@O@P@7+",
"  Q@R@S@T@U@V@W@X@Y@Z@`@> >.F@`.'.k+ #.#+#@###$#a@z+%#&#*#=#-#7+",
"z T _. .|+;#>#,#'#)#!#~#C.G+N {#{#i@]#^#/#(#_#:#N+<#[#}#|#1#2#  ",
"3#4#5#6#7#8#9#0#a#b#c#d# +C. +e#e#C.f#g#h#i#j#3+0 k#l#m#n#o#p#  ",
"7+q#r#C+].s#t#u#d+v#w#x#i@y#z#'.'.A#B#C#D#E#F#G#H#I#J#K#L#M#N#  ",
"  W O#P#Q#R#S#T#U#V#W#X#]#Y#'.'.'.`.Z.G@Z#c+`# $.$+$@$#$$$%$&$% ",
"  T *$=@=$-$;$&.>$,$d '$F@>.'.'.'.j@ +)$!$~$*.P#{$]$^$/$($_$:$6+",
"  <$` [$}$i |$1$2$3$4$5$F@F@D.`.{# #i@6$7$+.c#8$9$0$a$b$c$d$e$f$",
"  g$h$i$j$k$l$m$n$o$p$q$r$>.N {#k+{#@@s$X t$_.u$v$w$x$y$z$A$B$  ",
"  C$D$E$F$G$H$_@I$%$J$'$G+K${#k+{#,.C.L$M$N$O$P$Q$R$S$T$U$V$W$  ",
"7+X$Y$Z$!+s#`$g  %.%+%@%C.#%$%{#{#%%]#&%*%=%+%-%;%;+[.>%,%5@'%  ",
"z [.U+)%!%~%{%;@n@]%J$^%/%(%G+_%:%<%[%}%g+|%o$1%2%A+Q#d+3%N#4%% ",
"3#|%! 5%%$6%>#o@7%8%c+[@`.} #@C.> F@d.1@9%O$g 0%a%b%c%d%e%f%g%6+",
"7+`+h%i%j%k%l%m%n%o%p%q%d.} r%s%t%F@F@u%v%{ h@w%o$x%y%z%A%N#B%6+",
"  C%D%E%F%G%H%&.I%J%K%L%} {#M%N%F@F@D.O%P%6@Q%R%0+S%T%U%e%V%W%6+",
"  c%e X%` Y%o%k%Z%`% &6+.&$%M%+&F@@&'.{#k+#&$&%&&&P#*&=&-&;&>&f$",
"  ,&'&m#Y%)&!&~&f$f$    7+y#{&]&+&} k+^&^&M%/&f$  (&_&:&<&[&}&  ",
"  |&  1&6+6+7+            7+7+  7+% 6+6+6+6+          7+2&3&4&  "};
