/* XPM */
static char * N_enemy_1_xpm[] = {
"32 32 601 2",
"  	c None",
". 	c #0F0F0E",
"+ 	c #0E0D0D",
"@ 	c #0D0D0C",
"# 	c #0C0B0B",
"$ 	c #0E0E0D",
"% 	c #0C0C0B",
"& 	c #0A0A08",
"* 	c #0D0B09",
"= 	c #120E0A",
"- 	c #080707",
"; 	c #100F0E",
"> 	c #1A1917",
", 	c #56534D",
"' 	c #47423E",
") 	c #423D39",
"! 	c #54514B",
"~ 	c #55524C",
"{ 	c #2E2826",
"] 	c #13110F",
"^ 	c #2E2721",
"/ 	c #271B10",
"( 	c #22170C",
"_ 	c #251A10",
": 	c #45321F",
"< 	c #60452A",
"[ 	c #5E4329",
"} 	c #46311E",
"| 	c #281D12",
"1 	c #3E3B36",
"2 	c #514E48",
"3 	c #37322E",
"4 	c #131211",
"5 	c #56524C",
"6 	c #352F2C",
"7 	c #121010",
"8 	c #423E39",
"9 	c #433E3A",
"0 	c #3E3935",
"a 	c #312D29",
"b 	c #35271A",
"c 	c #64482C",
"d 	c #745334",
"e 	c #765535",
"f 	c #705133",
"g 	c #6C4D30",
"h 	c #65492D",
"i 	c #543D26",
"j 	c #62462D",
"k 	c #775636",
"l 	c #5F442A",
"m 	c #362B21",
"n 	c #484540",
"o 	c #312B28",
"p 	c #413C38",
"q 	c #433F3A",
"r 	c #322C29",
"s 	c #2D2825",
"t 	c #332E2B",
"u 	c #54504B",
"v 	c #161110",
"w 	c #382719",
"x 	c #755435",
"y 	c #745435",
"z 	c #6F5033",
"A 	c #755436",
"B 	c #6F4F33",
"C 	c #5E432E",
"D 	c #5F442E",
"E 	c #6D4E33",
"F 	c #715134",
"G 	c #62462F",
"H 	c #664931",
"I 	c #785636",
"J 	c #785635",
"K 	c #3E2D1F",
"L 	c #35302D",
"M 	c #2F2926",
"N 	c #211A1A",
"O 	c #261F1E",
"P 	c #45403C",
"Q 	c #332D2A",
"R 	c #231C1B",
"S 	c #0B0B0B",
"T 	c #0B0A0A",
"U 	c #27201F",
"V 	c #342E2B",
"W 	c #1F1918",
"X 	c #21170F",
"Y 	c #59402C",
"Z 	c #745335",
"` 	c #795736",
" .	c #684B31",
"..	c #563D2B",
"+.	c #5F432E",
"@.	c #6B4D32",
"#.	c #664930",
"$.	c #533B2A",
"%.	c #593F2C",
"&.	c #6E4F33",
"*.	c #5A402D",
"=.	c #725234",
"-.	c #312316",
";.	c #1D1716",
">.	c #221B1A",
",.	c #251E1D",
"'.	c #46413D",
").	c #241D1B",
"!.	c #191213",
"~.	c #26201E",
"{.	c #251E1C",
"].	c #0C0909",
"^.	c #3B2A1F",
"/.	c #674A31",
"(.	c #543C2A",
"_.	c #705033",
":.	c #795737",
"<.	c #735335",
"[.	c #5B412C",
"}.	c #3F2C20",
"|.	c #563D2A",
"1.	c #6A4C32",
"2.	c #4C3628",
"3.	c #583E2C",
"4.	c #674A2E",
"5.	c #19120E",
"6.	c #110F10",
"7.	c #151213",
"8.	c #36302D",
"9.	c #36312D",
"0.	c #1A1617",
"a.	c #0D0C0C",
"b.	c #312A28",
"c.	c #181515",
"d.	c #090607",
"e.	c #3A2820",
"f.	c #553C29",
"g.	c #5C422D",
"h.	c #674A2F",
"i.	c #402D1F",
"j.	c #422E22",
"k.	c #3E2B21",
"l.	c #61452F",
"m.	c #5D432E",
"n.	c #6C4D32",
"o.	c #362618",
"p.	c #0C0A0C",
"q.	c #130F0F",
"r.	c #131011",
"s.	c #0A0A0A",
"t.	c #0A0707",
"u.	c #1F1510",
"v.	c #33231C",
"w.	c #443020",
"x.	c #65482F",
"y.	c #644730",
"z.	c #5C412D",
"A.	c #5B402D",
"B.	c #644830",
"C.	c #4E3724",
"D.	c #34241C",
"E.	c #553D2B",
"F.	c #34251C",
"G.	c #453121",
"H.	c #161011",
"I.	c #151011",
"J.	c #110F11",
"K.	c #110E10",
"L.	c #100E10",
"M.	c #413736",
"N.	c #403635",
"O.	c #241D1C",
"P.	c #0D0909",
"Q.	c #130D0C",
"R.	c #1D130E",
"S.	c #1D1310",
"T.	c #35251B",
"U.	c #463124",
"V.	c #523A29",
"W.	c #573E2C",
"X.	c #432F1F",
"Y.	c #523A2A",
"Z.	c #2A1D15",
"`.	c #453125",
" +	c #453123",
".+	c #100C0A",
"++	c #171112",
"@+	c #141010",
"#+	c #140F0F",
"$+	c #191314",
"%+	c #0A0706",
"&+	c #241B18",
"*+	c #4F362C",
"=+	c #67463A",
"-+	c #1D130F",
";+	c #000000",
">+	c #17100D",
",+	c #3F2B23",
"'+	c #31221A",
")+	c #38281E",
"!+	c #4F3829",
"~+	c #5D422E",
"{+	c #251911",
"]+	c #402D23",
"^+	c #2F2017",
"/+	c #3A291F",
"(+	c #463227",
"_+	c #3E2D22",
":+	c #090606",
"<+	c #191515",
"[+	c #151010",
"}+	c #150F10",
"|+	c #140E0F",
"1+	c #151110",
"2+	c #160F0E",
"3+	c #624438",
"4+	c #CD8F77",
"5+	c #C98C76",
"6+	c #A67461",
"7+	c #855C4C",
"8+	c #9C6C5B",
"9+	c #AF7965",
"0+	c #35231D",
"a+	c #18100B",
"b+	c #433023",
"c+	c #32221A",
"d+	c #2E2017",
"e+	c #2D1F17",
"f+	c #412E24",
"g+	c #3C2B23",
"h+	c #30231D",
"i+	c #080505",
"j+	c #332C29",
"k+	c #322B28",
"l+	c #211B1A",
"m+	c #121011",
"n+	c #120F0F",
"o+	c #1B1515",
"p+	c #211B19",
"q+	c #140C0A",
"r+	c #916656",
"s+	c #8B6253",
"t+	c #DA9980",
"u+	c #E19D83",
"v+	c #E09D83",
"w+	c #B57E6A",
"x+	c #80594A",
"y+	c #8D6252",
"z+	c #A97562",
"A+	c #3E2922",
"B+	c #2E2019",
"C+	c #1A110C",
"D+	c #0B0705",
"E+	c #30201C",
"F+	c #180F0C",
"G+	c #251B17",
"H+	c #281E1A",
"I+	c #3D3332",
"J+	c #161314",
"K+	c #120E0F",
"L+	c #2E2825",
"M+	c #241A15",
"N+	c #8A7156",
"O+	c #7F5E4C",
"P+	c #875B4C",
"Q+	c #DF937B",
"R+	c #E09D84",
"S+	c #DB9A82",
"T+	c #AC8367",
"U+	c #66543D",
"V+	c #D6967E",
"W+	c #9D6D5B",
"X+	c #100A07",
"Y+	c #21110D",
"Z+	c #AD7667",
"`+	c #D9B19C",
" @	c #C18576",
".@	c #2B1814",
"+@	c #0B0808",
"@@	c #3F3635",
"#@	c #0B0A0D",
"$@	c #171212",
"%@	c #302A27",
"&@	c #332822",
"*@	c #917460",
"=@	c #2C2219",
"-@	c #B66E5F",
";@	c #EC8771",
">@	c #E49981",
",@	c #EBAE95",
"'@	c #997B65",
")@	c #3F402A",
"!@	c #D6A18B",
"~@	c #BA8470",
"{@	c #351E18",
"]@	c #B96A58",
"^@	c #B97060",
"/@	c #7B4E43",
"(@	c #D17966",
"_@	c #4E2B24",
":@	c #050303",
"<@	c #0D0B0D",
"[@	c #1C1516",
"}@	c #110D0E",
"|@	c #120E0E",
"1@	c #181213",
"2@	c #302B28",
"3@	c #30221D",
"4@	c #A77866",
"5@	c #7F5247",
"6@	c #F8AB96",
"7@	c #ED8671",
"8@	c #E7957D",
"9@	c #F3BBA2",
"0@	c #D8AA94",
"a@	c #AE8978",
"b@	c #F2BCA3",
"c@	c #C7907A",
"d@	c #B87562",
"e@	c #ED917B",
"f@	c #7F4E43",
"g@	c #C56E5C",
"h@	c #B05F4D",
"i@	c #190A07",
"j@	c #070607",
"k@	c #181212",
"l@	c #171312",
"m@	c #1A1415",
"n@	c #28201C",
"o@	c #B37F6B",
"p@	c #825B4D",
"q@	c #D37A66",
"r@	c #ED8F78",
"s@	c #ECA78E",
"t@	c #F2BBA2",
"u@	c #F4BDA4",
"v@	c #ECB198",
"w@	c #E3A38A",
"x@	c #E29880",
"y@	c #C77D6B",
"z@	c #BB7868",
"A@	c #91574A",
"B@	c #23100C",
"C@	c #020101",
"D@	c #100B0C",
"E@	c #1D1617",
"F@	c #372F2E",
"G@	c #866051",
"H@	c #E5AB93",
"I@	c #C88B78",
"J@	c #EBA58F",
"K@	c #E7A992",
"L@	c #EAB199",
"M@	c #EEB49A",
"N@	c #EBB097",
"O@	c #E5A58C",
"P@	c #E09E85",
"Q@	c #E09C83",
"R@	c #8F6252",
"S@	c #000202",
"T@	c #16100C",
"U@	c #4D3625",
"V@	c #5F432B",
"W@	c #1B120B",
"X@	c #130D0E",
"Y@	c #3B3231",
"Z@	c #141113",
"`@	c #271B17",
" #	c #926759",
".#	c #834E46",
"+#	c #7B4841",
"@#	c #93564E",
"##	c #AF7C6A",
"$#	c #E7A88F",
"%#	c #E4A58C",
"&#	c #E19F86",
"*#	c #C58973",
"=#	c #483028",
"-#	c #1C1513",
";#	c #322520",
">#	c #523B2A",
",#	c #775536",
"'#	c #583F26",
")#	c #0D0A09",
"!#	c #423736",
"~#	c #352E2B",
"{#	c #0B0B0A",
"]#	c #11100F",
"^#	c #181313",
"/#	c #171313",
"(#	c #140F10",
"_#	c #191313",
":#	c #422E29",
"<#	c #CA8D7C",
"[#	c #E7A08D",
"}#	c #E8A18D",
"|#	c #E8AA91",
"1#	c #E4A38A",
"2#	c #E2A086",
"3#	c #DC9981",
"4#	c #A3715F",
"5#	c #39261E",
"6#	c #191311",
"7#	c #2B211E",
"8#	c #463226",
"9#	c #694B31",
"0#	c #62462C",
"a#	c #0C0808",
"b#	c #1A1314",
"c#	c #3F3534",
"d#	c #423837",
"e#	c #322B29",
"f#	c #1B1615",
"g#	c #2C2624",
"h#	c #44342D",
"i#	c #C29681",
"j#	c #E1A790",
"k#	c #C78C76",
"l#	c #A2715E",
"m#	c #5B3E33",
"n#	c #6F5144",
"o#	c #9C7968",
"p#	c #291F1A",
"q#	c #271E1B",
"r#	c #302420",
"s#	c #402D24",
"t#	c #5B412D",
"u#	c #503924",
"v#	c #0F0A0B",
"w#	c #201A19",
"x#	c #3E3433",
"y#	c #3D3433",
"z#	c #171415",
"A#	c #211A19",
"B#	c #231C1A",
"C#	c #100C0B",
"D#	c #271914",
"E#	c #5E4237",
"F#	c #5F4237",
"G#	c #583C32",
"H#	c #191312",
"I#	c #2B2E30",
"J#	c #B88672",
"K#	c #F9C6AD",
"L#	c #C19B88",
"M#	c #261C18",
"N#	c #2D221E",
"O#	c #3B2B23",
"P#	c #513A2A",
"Q#	c #392819",
"R#	c #130E0F",
"S#	c #140E10",
"T#	c #201A1A",
"U#	c #241E1D",
"V#	c #2E3739",
"W#	c #393736",
"X#	c #996A58",
"Y#	c #5D453D",
"Z#	c #535E60",
"`#	c #474E51",
" $	c #7F584A",
".$	c #CF9D88",
"+$	c #F8C6AD",
"@$	c #927262",
"#$	c #1E1612",
"$$	c #382821",
"%$	c #3B291E",
"&$	c #0B0807",
"*$	c #14110F",
"=$	c #110D0D",
"-$	c #1D1311",
";$	c #745043",
">$	c #4D5759",
",$	c #8DA6AB",
"'$	c #6C7E81",
")$	c #6F8286",
"!$	c #8BA3A7",
"~$	c #77878B",
"{$	c #586163",
"]$	c #412E27",
"^$	c #D5A28B",
"/$	c #F9C8AE",
"($	c #EDC7B0",
"_$	c #A1806F",
":$	c #271C17",
"<$	c #37261E",
"[$	c #231F1C",
"}$	c #191514",
"|$	c #1A1414",
"1$	c #161111",
"2$	c #3C2821",
"3$	c #C2836E",
"4$	c #49302A",
"5$	c #546063",
"6$	c #738386",
"7$	c #728185",
"8$	c #738285",
"9$	c #677376",
"0$	c #4B5355",
"a$	c #A47663",
"b$	c #F9C4AB",
"c$	c #FBC8AF",
"d$	c #FDD0B7",
"e$	c #DBAB94",
"f$	c #7F5B4D",
"g$	c #0C0A08",
"h$	c #1B1715",
"i$	c #282320",
"j$	c #422C25",
"k$	c #885B4C",
"l$	c #2B1A16",
"m$	c #2A3234",
"n$	c #7E9499",
"o$	c #7D9196",
"p$	c #708185",
"q$	c #556062",
"r$	c #313435",
"s$	c #B78470",
"t$	c #F2BAA1",
"u$	c #F3BFA7",
"v$	c #F3BEA6",
"w$	c #B68D7A",
"x$	c #442E27",
"y$	c #1E1A17",
"z$	c #302927",
"A$	c #332C2A",
"B$	c #110C0B",
"C$	c #251712",
"D$	c #694138",
"E$	c #2D2212",
"F$	c #6C5530",
"G$	c #665331",
"H$	c #6F5932",
"I$	c #5E4B2B",
"J$	c #372C1D",
"K$	c #926655",
"L$	c #B8826D",
"M$	c #C0917C",
"N$	c #A37867",
"O$	c #A87B68",
"P$	c #221612",
"Q$	c #2E2724",
"R$	c #1F1816",
"S$	c #48381E",
"T$	c #947642",
"U$	c #5A482C",
"V$	c #775F35",
"W$	c #83683D",
"X$	c #594830",
"Y$	c #2B2018",
"Z$	c #36241D",
"`$	c #895F4F",
" %	c #735042",
".%	c #2D1E19",
"+%	c #0E0A0A",
"@%	c #3D3333",
"#%	c #423737",
"$%	c #362F2D",
"%%	c #120F10",
"&%	c #2D2724",
"*%	c #20170D",
"=%	c #43341E",
"-%	c #2B2217",
";%	c #1E170C",
">%	c #3D2E1D",
",%	c #2F2418",
"'%	c #2E251B",
")%	c #100D0A",
"!%	c #231D1B",
"~%	c #1E1716",
"{%	c #120C0E",
"]%	c #3C3332",
"^%	c #433837",
"/%	c #191516",
"(%	c #2B2423",
"_%	c #432F22",
":%	c #5C402F",
"<%	c #37281F",
"[%	c #241810",
"}%	c #664632",
"|%	c #5B3F2E",
"1%	c #2B1F19",
"2%	c #3B3130",
"3%	c #302B27",
"4%	c #231B1A",
"5%	c #251E1E",
"6%	c #312929",
"7%	c #28201F",
"8%	c #16110F",
"9%	c #16100F",
"0%	c #2A2323",
"a%	c #131112",
"b%	c #0C0C0C",
"c%	c #1D1717",
"d%	c #171414",
"e%	c #1B1415",
"f%	c #171413",
"g%	c #131012",
"h%	c #0B0A0B",
"i%	c #1C1717",
"j%	c #1E1A1A",
"    . . + @ . . #   $ % & * = * -     . . ; %     . . . + %     ",
"  > , , ' ) ! ~ { ] ^ / ( _ : < [ } | 1 2 , 3 4 4 5 , , ' 6 7   ",
"@ ) 8 ~ ! 9 0 a b c d e f g h i j k k l m n ! ) o p ~ ~ ! q r # ",
"# s t u 9 o v w x y z A B C D E F G H I J K L M N O ! ~ P Q R S ",
"  T U 9 V W X Y Z `  ...+.@.#.$.%.&.#.*.=.x -.;.>.,.P , '.V ).S ",
"  T !.~.{.].^./.(._.:.<.[.}.|.1.C 2.G #.3.F 4.5.6.7.8.P 9.0.+   ",
"  a.b.o c.d.e.f.#.$.g.E y h.i.j.C g.k.%.l.m.n.o.p.q.c.Q O r.s.  ",
"# o o o {.t.u.v.w.x.y.z.A.B.@.C.D.E.f.F.*.*.C G.t.H.I.J.K.L.s.  ",
"a.M.N.o O.P.Q.R.S.R.T.U.V.$.W.#.X.D.Y.Z.`.W.Y. +.+L.++@+#+q.T   ",
"s.$+N.N.b.%+&+*+=+-+;+>+,+'+)+!+~+{+]+^+/+2.(+_+:+<+r o ,.[+q.s.",
"s.}+|+|+1+d.2+3+4+5+6+7+8+9+0+a+b+T.c+d+e+f+g+h+i+j+k+R l+m+n+s.",
"  T ++o+M p+q+r+s+t+u+v+w+x+y+z+A+B+C+D+E+F+G+H+i+I+N.{ J+K+s.  ",
"  s.$+r o L+M+N+O+P+Q+R+S+T+U+V+W+X+Y+Z+`+ @.@2++@$+@@#@q.T     ",
"s.$@%@o o %@&@*@=@-@;@>@,@'@)@!@~@{@]@^@/@(@_@:@<@H.[@}@|@T     ",
"s.1@o o o 2@3@4@5@6@7@8@9@0@a@b@c@d@e@f@g@h@i@j@q.k@%@%@%@l@T   ",
"s.m@M.M.M.M.n@o@p@q@r@s@t@u@9@v@w@x@y@z@A@B@C@D@++o o o o O.#   ",
"  T E@M.M.M.F@G@H@I@J@K@L@M@N@O@P@Q@R@S@T@U@V@W@#+r o r ,.>.>.S ",
"    # X@Y@N.Z@`@ #.#+#@###$#%#&#v+*#=#-#;#>#,#'#)#N.M.!#~#,.>.{#",
"  ]#^#/#(#|+_#s :#<#[#}#|#1#2#3#4#5#6#7#;#8#9#0#a#b#c#M.d#e#m+s.",
"% V o %@f#(#%@o g#h#i#L@j#k#l#m#n#o#p#q#r#s#t#u#v#w#m@x#y#z#s.  ",
"a.d#M A#B#L.%@o M C#D#E#F#G#H#I#J#K#L#M#N#O#P#Q#v#R#|@S#}@q.T   ",
"T T#N.%@c.w#_#x#U#V#W#X#W+Y#Z#`# $.$+$@$#$$$8#%$&$*$g#=$H.#     ",
"  # m@k@q.q.H.-$;$>$,$'$)$!$~${$]$^$/$($_$:$<$c+%+[$o 2@}$q.T   ",
"  T |$o o o 1$2$3$4$5$6$7$8$9$0$a$b$c$d$e$f$g$h$i$2@%@>.>.[+T   ",
"  ; r o o o >.j$k$l$m$n$o$p$q$r$s$t$u$v$w$x$y$%@o o z$>.>.>.[+s.",
"% A$r o O.>.l+B$C$D$E$F$G$H$I$J$K$L$M$N$O$P$L+r r o >.>.>.>.>.S ",
"a.d#N.j+~.>.6.H.Q$R$S$T$U$V$W$X$Y$Z$`$ %.%+%@%M.M.M.o R >.>.A#{#",
"a.!#M.#%$%R %%I.{ &%*%=%-%;%>%,%'%)%!%;.~%[+{%]%M.M.N.o {.>.L.s.",
"a.d#M.M.^%/%q.q.++(%_%:%<%[%}%|%1%&$2%r z#q.q.|+d#M.N.3%O.4%#   ",
"T N d#d#5%@+q.S 1$6%7%O ,.f#8%9%].0%I+a%b%T q.q.c%d#M.N.A$d%T   ",
"  # e%e%[+# T   T f%d#!#!#M.r g%h%^#l@s.    T T S i%d#d#j%S     ",
"    s.s.s.          a.a.a.a.% s.  s.s.            s.a.a.T       "};
