/* XPM */
static char * N_enemy_xpm[] = {
"32 32 601 2",
"  	c None",
". 	c #0C0C0B",
"+ 	c #0E0D0D",
"@ 	c #0F0F0E",
"# 	c #100F0E",
"$ 	c #080707",
"% 	c #0D0B09",
"& 	c #120E0A",
"* 	c #0A0A08",
"= 	c #0E0E0D",
"- 	c #0C0B0B",
"; 	c #0D0D0C",
"> 	c #121010",
", 	c #352F2C",
"' 	c #47423E",
") 	c #56534D",
"! 	c #56524C",
"~ 	c #131211",
"{ 	c #37322E",
"] 	c #514E48",
"^ 	c #3E3B36",
"/ 	c #281D12",
"( 	c #46311E",
"_ 	c #5E4329",
": 	c #60452A",
"< 	c #45321F",
"[ 	c #251A10",
"} 	c #22170C",
"| 	c #271B10",
"1 	c #2E2721",
"2 	c #13110F",
"3 	c #2E2826",
"4 	c #55524C",
"5 	c #54514B",
"6 	c #423D39",
"7 	c #1A1917",
"8 	c #322C29",
"9 	c #433F3A",
"0 	c #413C38",
"a 	c #312B28",
"b 	c #484540",
"c 	c #362B21",
"d 	c #5F442A",
"e 	c #775636",
"f 	c #62462D",
"g 	c #543D26",
"h 	c #65492D",
"i 	c #6C4D30",
"j 	c #705133",
"k 	c #765535",
"l 	c #745334",
"m 	c #64482C",
"n 	c #35271A",
"o 	c #312D29",
"p 	c #3E3935",
"q 	c #433E3A",
"r 	c #423E39",
"s 	c #0B0B0B",
"t 	c #231C1B",
"u 	c #332D2A",
"v 	c #45403C",
"w 	c #261F1E",
"x 	c #211A1A",
"y 	c #2F2926",
"z 	c #35302D",
"A 	c #3E2D1F",
"B 	c #785635",
"C 	c #785636",
"D 	c #664931",
"E 	c #62462F",
"F 	c #715134",
"G 	c #6D4E33",
"H 	c #5F442E",
"I 	c #5E432E",
"J 	c #6F4F33",
"K 	c #755436",
"L 	c #6F5033",
"M 	c #745435",
"N 	c #755435",
"O 	c #382719",
"P 	c #161110",
"Q 	c #54504B",
"R 	c #332E2B",
"S 	c #2D2825",
"T 	c #241D1B",
"U 	c #342E2B",
"V 	c #46413D",
"W 	c #251E1D",
"X 	c #221B1A",
"Y 	c #1D1716",
"Z 	c #312316",
"` 	c #725234",
" .	c #5A402D",
"..	c #664930",
"+.	c #6E4F33",
"@.	c #593F2C",
"#.	c #533B2A",
"$.	c #6B4D32",
"%.	c #5F432E",
"&.	c #563D2B",
"*.	c #684B31",
"=.	c #795736",
"-.	c #745335",
";.	c #59402C",
">.	c #21170F",
",.	c #1F1918",
"'.	c #27201F",
").	c #0B0A0A",
"!.	c #1A1617",
"~.	c #36312D",
"{.	c #36302D",
"].	c #151213",
"^.	c #110F10",
"/.	c #19120E",
"(.	c #674A2E",
"_.	c #583E2C",
":.	c #4C3628",
"<.	c #6A4C32",
"[.	c #563D2A",
"}.	c #3F2C20",
"|.	c #5B412C",
"1.	c #735335",
"2.	c #795737",
"3.	c #705033",
"4.	c #543C2A",
"5.	c #674A31",
"6.	c #3B2A1F",
"7.	c #0C0909",
"8.	c #251E1C",
"9.	c #26201E",
"0.	c #191213",
"a.	c #0A0A0A",
"b.	c #131011",
"c.	c #181515",
"d.	c #130F0F",
"e.	c #0C0A0C",
"f.	c #362618",
"g.	c #6C4D32",
"h.	c #5D432E",
"i.	c #61452F",
"j.	c #3E2B21",
"k.	c #5C422D",
"l.	c #422E22",
"m.	c #402D1F",
"n.	c #674A2F",
"o.	c #553C29",
"p.	c #3A2820",
"q.	c #090607",
"r.	c #312A28",
"s.	c #0D0C0C",
"t.	c #100E10",
"u.	c #110E10",
"v.	c #110F11",
"w.	c #151011",
"x.	c #161011",
"y.	c #0A0707",
"z.	c #453121",
"A.	c #34251C",
"B.	c #553D2B",
"C.	c #34241C",
"D.	c #4E3724",
"E.	c #644830",
"F.	c #5B402D",
"G.	c #5C412D",
"H.	c #644730",
"I.	c #65482F",
"J.	c #443020",
"K.	c #33231C",
"L.	c #1F1510",
"M.	c #140F0F",
"N.	c #141010",
"O.	c #171112",
"P.	c #100C0A",
"Q.	c #453123",
"R.	c #523A2A",
"S.	c #573E2C",
"T.	c #453125",
"U.	c #2A1D15",
"V.	c #432F1F",
"W.	c #523A29",
"X.	c #463124",
"Y.	c #35251B",
"Z.	c #1D130E",
"`.	c #1D1310",
" +	c #130D0C",
".+	c #0D0909",
"++	c #241D1C",
"@+	c #403635",
"#+	c #413736",
"$+	c #151010",
"%+	c #191515",
"&+	c #090606",
"*+	c #3E2D22",
"=+	c #463227",
"-+	c #3A291F",
";+	c #2F2017",
">+	c #402D23",
",+	c #251911",
"'+	c #5D422E",
")+	c #4F3829",
"!+	c #38281E",
"~+	c #31221A",
"{+	c #3F2B23",
"]+	c #17100D",
"^+	c #000000",
"/+	c #1D130F",
"(+	c #67463A",
"_+	c #4F362C",
":+	c #241B18",
"<+	c #0A0706",
"[+	c #191314",
"}+	c #120F0F",
"|+	c #121011",
"1+	c #211B1A",
"2+	c #322B28",
"3+	c #332C29",
"4+	c #080505",
"5+	c #30231D",
"6+	c #3C2B23",
"7+	c #412E24",
"8+	c #2D1F17",
"9+	c #2E2017",
"0+	c #32221A",
"a+	c #433023",
"b+	c #18100B",
"c+	c #35231D",
"d+	c #AF7965",
"e+	c #9C6C5B",
"f+	c #855C4C",
"g+	c #A67461",
"h+	c #C98C76",
"i+	c #CD8F77",
"j+	c #624438",
"k+	c #160F0E",
"l+	c #151110",
"m+	c #140E0F",
"n+	c #150F10",
"o+	c #120E0F",
"p+	c #161314",
"q+	c #3D3332",
"r+	c #281E1A",
"s+	c #251B17",
"t+	c #180F0C",
"u+	c #30201C",
"v+	c #0B0705",
"w+	c #1A110C",
"x+	c #2E2019",
"y+	c #3E2922",
"z+	c #A97562",
"A+	c #8D6252",
"B+	c #80594A",
"C+	c #B57E6A",
"D+	c #E09D83",
"E+	c #E19D83",
"F+	c #DA9980",
"G+	c #8B6253",
"H+	c #916656",
"I+	c #140C0A",
"J+	c #211B19",
"K+	c #1B1515",
"L+	c #0B0A0D",
"M+	c #3F3635",
"N+	c #0B0808",
"O+	c #2B1814",
"P+	c #C18576",
"Q+	c #D9B19C",
"R+	c #AD7667",
"S+	c #21110D",
"T+	c #100A07",
"U+	c #9D6D5B",
"V+	c #D6967E",
"W+	c #66543D",
"X+	c #AC8367",
"Y+	c #DB9A82",
"Z+	c #E09D84",
"`+	c #DF937B",
" @	c #875B4C",
".@	c #7F5E4C",
"+@	c #8A7156",
"@@	c #241A15",
"#@	c #2E2825",
"$@	c #120E0E",
"%@	c #110D0E",
"&@	c #1C1516",
"*@	c #0D0B0D",
"=@	c #050303",
"-@	c #4E2B24",
";@	c #D17966",
">@	c #7B4E43",
",@	c #B97060",
"'@	c #B96A58",
")@	c #351E18",
"!@	c #BA8470",
"~@	c #D6A18B",
"{@	c #3F402A",
"]@	c #997B65",
"^@	c #EBAE95",
"/@	c #E49981",
"(@	c #EC8771",
"_@	c #B66E5F",
":@	c #2C2219",
"<@	c #917460",
"[@	c #332822",
"}@	c #302A27",
"|@	c #171212",
"1@	c #171312",
"2@	c #181212",
"3@	c #070607",
"4@	c #190A07",
"5@	c #B05F4D",
"6@	c #C56E5C",
"7@	c #7F4E43",
"8@	c #ED917B",
"9@	c #B87562",
"0@	c #C7907A",
"a@	c #F2BCA3",
"b@	c #AE8978",
"c@	c #D8AA94",
"d@	c #F3BBA2",
"e@	c #E7957D",
"f@	c #ED8671",
"g@	c #F8AB96",
"h@	c #7F5247",
"i@	c #A77866",
"j@	c #30221D",
"k@	c #302B28",
"l@	c #181213",
"m@	c #100B0C",
"n@	c #020101",
"o@	c #23100C",
"p@	c #91574A",
"q@	c #BB7868",
"r@	c #C77D6B",
"s@	c #E29880",
"t@	c #E3A38A",
"u@	c #ECB198",
"v@	c #F4BDA4",
"w@	c #F2BBA2",
"x@	c #ECA78E",
"y@	c #ED8F78",
"z@	c #D37A66",
"A@	c #825B4D",
"B@	c #B37F6B",
"C@	c #28201C",
"D@	c #1A1415",
"E@	c #1B120B",
"F@	c #5F432B",
"G@	c #4D3625",
"H@	c #16100C",
"I@	c #000202",
"J@	c #8F6252",
"K@	c #E09C83",
"L@	c #E09E85",
"M@	c #E5A58C",
"N@	c #EBB097",
"O@	c #EEB49A",
"P@	c #EAB199",
"Q@	c #E7A992",
"R@	c #EBA58F",
"S@	c #C88B78",
"T@	c #E5AB93",
"U@	c #866051",
"V@	c #372F2E",
"W@	c #1D1617",
"X@	c #0B0B0A",
"Y@	c #352E2B",
"Z@	c #423736",
"`@	c #0D0A09",
" #	c #583F26",
".#	c #775536",
"+#	c #523B2A",
"@#	c #322520",
"##	c #1C1513",
"$#	c #483028",
"%#	c #C58973",
"&#	c #E19F86",
"*#	c #E4A58C",
"=#	c #E7A88F",
"-#	c #AF7C6A",
";#	c #93564E",
">#	c #7B4841",
",#	c #834E46",
"'#	c #926759",
")#	c #271B17",
"!#	c #141113",
"~#	c #3B3231",
"{#	c #130D0E",
"]#	c #322B29",
"^#	c #423837",
"/#	c #3F3534",
"(#	c #1A1314",
"_#	c #0C0808",
":#	c #62462C",
"<#	c #694B31",
"[#	c #463226",
"}#	c #2B211E",
"|#	c #191311",
"1#	c #39261E",
"2#	c #A3715F",
"3#	c #DC9981",
"4#	c #E2A086",
"5#	c #E4A38A",
"6#	c #E8AA91",
"7#	c #E8A18D",
"8#	c #E7A08D",
"9#	c #CA8D7C",
"0#	c #422E29",
"a#	c #191313",
"b#	c #140F10",
"c#	c #171313",
"d#	c #181313",
"e#	c #11100F",
"f#	c #171415",
"g#	c #3D3433",
"h#	c #3E3433",
"i#	c #201A19",
"j#	c #0F0A0B",
"k#	c #503924",
"l#	c #5B412D",
"m#	c #402D24",
"n#	c #302420",
"o#	c #271E1B",
"p#	c #291F1A",
"q#	c #9C7968",
"r#	c #6F5144",
"s#	c #5B3E33",
"t#	c #A2715E",
"u#	c #C78C76",
"v#	c #E1A790",
"w#	c #C29681",
"x#	c #44342D",
"y#	c #2C2624",
"z#	c #1B1615",
"A#	c #140E10",
"B#	c #130E0F",
"C#	c #392819",
"D#	c #513A2A",
"E#	c #3B2B23",
"F#	c #2D221E",
"G#	c #261C18",
"H#	c #C19B88",
"I#	c #F9C6AD",
"J#	c #B88672",
"K#	c #2B2E30",
"L#	c #191312",
"M#	c #583C32",
"N#	c #5F4237",
"O#	c #5E4237",
"P#	c #271914",
"Q#	c #100C0B",
"R#	c #231C1A",
"S#	c #211A19",
"T#	c #110D0D",
"U#	c #14110F",
"V#	c #0B0807",
"W#	c #3B291E",
"X#	c #382821",
"Y#	c #1E1612",
"Z#	c #927262",
"`#	c #F8C6AD",
" $	c #CF9D88",
".$	c #7F584A",
"+$	c #474E51",
"@$	c #535E60",
"#$	c #5D453D",
"$$	c #996A58",
"%$	c #393736",
"&$	c #2E3739",
"*$	c #241E1D",
"=$	c #201A1A",
"-$	c #191514",
";$	c #231F1C",
">$	c #37261E",
",$	c #271C17",
"'$	c #A1806F",
")$	c #EDC7B0",
"!$	c #F9C8AE",
"~$	c #D5A28B",
"{$	c #412E27",
"]$	c #586163",
"^$	c #77878B",
"/$	c #8BA3A7",
"($	c #6F8286",
"_$	c #6C7E81",
":$	c #8DA6AB",
"<$	c #4D5759",
"[$	c #745043",
"}$	c #1D1311",
"|$	c #282320",
"1$	c #1B1715",
"2$	c #0C0A08",
"3$	c #7F5B4D",
"4$	c #DBAB94",
"5$	c #FDD0B7",
"6$	c #FBC8AF",
"7$	c #F9C4AB",
"8$	c #A47663",
"9$	c #4B5355",
"0$	c #677376",
"a$	c #738285",
"b$	c #728185",
"c$	c #738386",
"d$	c #546063",
"e$	c #49302A",
"f$	c #C2836E",
"g$	c #3C2821",
"h$	c #161111",
"i$	c #1A1414",
"j$	c #302927",
"k$	c #1E1A17",
"l$	c #442E27",
"m$	c #B68D7A",
"n$	c #F3BEA6",
"o$	c #F3BFA7",
"p$	c #F2BAA1",
"q$	c #B78470",
"r$	c #313435",
"s$	c #556062",
"t$	c #708185",
"u$	c #7D9196",
"v$	c #7E9499",
"w$	c #2A3234",
"x$	c #2B1A16",
"y$	c #885B4C",
"z$	c #422C25",
"A$	c #221612",
"B$	c #A87B68",
"C$	c #A37867",
"D$	c #C0917C",
"E$	c #B8826D",
"F$	c #926655",
"G$	c #372C1D",
"H$	c #5E4B2B",
"I$	c #6F5932",
"J$	c #665331",
"K$	c #6C5530",
"L$	c #2D2212",
"M$	c #694138",
"N$	c #251712",
"O$	c #110C0B",
"P$	c #332C2A",
"Q$	c #3D3333",
"R$	c #0E0A0A",
"S$	c #2D1E19",
"T$	c #735042",
"U$	c #895F4F",
"V$	c #36241D",
"W$	c #2B2018",
"X$	c #594830",
"Y$	c #83683D",
"Z$	c #775F35",
"`$	c #5A482C",
" %	c #947642",
".%	c #48381E",
"+%	c #1F1816",
"@%	c #2E2724",
"#%	c #3C3332",
"$%	c #120C0E",
"%%	c #1E1716",
"&%	c #231D1B",
"*%	c #100D0A",
"=%	c #2E251B",
"-%	c #2F2418",
";%	c #3D2E1D",
">%	c #1E170C",
",%	c #2B2217",
"'%	c #43341E",
")%	c #20170D",
"!%	c #2D2724",
"~%	c #120F10",
"{%	c #362F2D",
"]%	c #423737",
"^%	c #231B1A",
"/%	c #302B27",
"(%	c #3B3130",
"_%	c #2B1F19",
":%	c #5B3F2E",
"<%	c #664632",
"[%	c #241810",
"}%	c #37281F",
"|%	c #5C402F",
"1%	c #432F22",
"2%	c #2B2423",
"3%	c #191516",
"4%	c #433837",
"5%	c #171414",
"6%	c #1D1717",
"7%	c #0C0C0C",
"8%	c #131112",
"9%	c #2A2323",
"0%	c #16100F",
"a%	c #16110F",
"b%	c #28201F",
"c%	c #312929",
"d%	c #251E1E",
"e%	c #1E1A1A",
"f%	c #1C1717",
"g%	c #0B0A0B",
"h%	c #131012",
"i%	c #171413",
"j%	c #1B1415",
"    . + @ @ @     . # @ @     $ % & % * . =   - @ @ ; + @ @     ",
"  > , ' ) ) ! ~ ~ { ) ] ^ / ( _ : < [ } | 1 2 3 4 5 6 ' ) ) 7   ",
"- 8 9 5 4 4 0 a 6 5 b c d e e f g h i j k l m n o p q 5 4 r 6 ; ",
"s t u v 4 5 w x y z A B C D E F G H I J K L M N O P a q Q R S - ",
"s T U V ) v W X Y Z N `  ...+.@.#...$.%.&.*.=.-.;.>.,.U q '.).  ",
"  + !.~.v {.].^./.(.F _...E :.I <.[.}.|.1.2.3.4.5.6.7.8.9.0.).  ",
"  a.b.w u c.d.e.f.g.h.i.@.j.k.I l.m.n.M G k.#...o.p.q.c.a r.s.  ",
"  a.t.u.v.w.x.y.z.I  . .A.o.B.C.D.$.E.F.G.H.I.J.K.L.y.8.a a a - ",
"  ).d.M.N.O.t.P.Q.R.S.T.U.R.C.V...S.#.W.X.Y.Z.`.Z. +.+++a @+#+s.",
"a.d.$+W a 8 %+&+*+=+:.-+;+>+,+'+)+!+~+{+]+^+/+(+_+:+<+r.@+@+[+a.",
"a.}+|+1+t 2+3+4+5+6+7+8+9+0+Y.a+b+c+d+e+f+g+h+i+j+k+q.l+m+m+n+a.",
"  a.o+p+3 @+q+4+r+s+t+u+v+w+x+y+z+A+B+C+D+E+F+G+H+I+J+y K+O.).  ",
"    ).d.L+M+[+N+k+O+P+Q+R+S+T+U+V+W+X+Y+Z+`+ @.@+@@@#@a 8 [+a.  ",
"    ).$@%@&@x.*@=@-@;@>@,@'@)@!@~@{@]@^@/@(@_@:@<@[@}@a a }@|@a.",
"  ).1@}@}@}@2@d.3@4@5@6@7@8@9@0@a@b@c@d@e@f@g@h@i@j@k@a a a l@a.",
"  - ++a a a a O.m@n@o@p@q@r@s@t@u@d@v@w@x@y@z@A@B@C@#+#+#+#+D@a.",
"s X X W 8 a 8 M.E@F@G@H@I@J@K@L@M@N@O@P@Q@R@S@T@U@V@#+#+#+W@).  ",
"X@X W Y@Z@#+@+`@ #.#+#@###$#%#D+&#*#=#-#;#>#,#'#)#!#@+~#{#-     ",
"a.|+]#^##+/#(#_#:#<#[#@#}#|#1#2#3#4#5#6#7#8#9#0#S a#m+b#c#d#e#  ",
"  a.f#g#h#D@i#j#k#l#m#n#o#p#q#r#s#t#u#v#P@w#x#y#a }@b#z#}@a U . ",
"  ).d.%@A#$@B#j#C#D#E#F#G#H#I#J#K#L#M#N#O#P#Q#y a }@t.R#S#y ^#s.",
"    - x.T#y#U#V#W#[#X#Y#Z#`# $.$+$@$#$U+$$%$&$*$h#a#i#c.}@@+=$).",
"  ).d.-$k@a ;$<+0+>$,$'$)$!$~${$]$^$/$($_$:$<$[$}$x.d.d.2@D@-   ",
"  ).$+X X }@k@|$1$2$3$4$5$6$7$8$9$0$a$b$c$d$e$f$g$h$a a a i$).  ",
"a.$+X X X j$a a }@k$l$m$n$o$p$q$r$s$t$u$v$w$x$y$z$X a a a 8 #   ",
"s X X X X X a 8 8 #@A$B$C$D$E$F$G$H$I$J$K$L$M$N$O$1+X ++a 8 P$. ",
"X@S#X X t a #+#+#+Q$R$S$T$U$V$W$X$Y$Z$`$ %.%+%@%x.^.X 9.3+@+^#s.",
"a.t.X 8.a @+#+#+#%$%$+%%Y &%*%=%-%;%>%,%'%)%!%3 w.~%t {%]%#+Z@s.",
"  - ^%++/%@+#+^#m+d.d.f#8 (%V#_%:%<%[%}%|%1%2%O.d.d.3%4%#+#+^#s.",
"  ).5%P$@+#+^#6%d.d.).7%8%q+9%7.0%a%z#W w b%c%h$s d.N.d%^#^#x ).",
"    s e%^#^#f%s ).).    a.1@d#g%h%8 #+Z@Z@^#i%).  ).- $+j%j%-   ",
"      ).s.s.a.            a.a.  a.. s.s.s.s.          a.a.a.    "};
