/* XPM */
static char * P_player_side_left_xpm[] = {
"32 32 343 2",
"  	c None",
". 	c #0F0F0E",
"+ 	c #0E0D0D",
"@ 	c #0D0D0C",
"# 	c #0C0B0B",
"$ 	c #0D0D0D",
"% 	c #100F0E",
"& 	c #0C0C0B",
"* 	c #1A1917",
"= 	c #56534D",
"- 	c #47423E",
"; 	c #423D39",
"> 	c #54514B",
", 	c #55524C",
"' 	c #322C29",
") 	c #191817",
"! 	c #443F3B",
"~ 	c #0E0E0D",
"{ 	c #1F1E1C",
"] 	c #37322E",
"^ 	c #131211",
"/ 	c #56524C",
"( 	c #352F2C",
"_ 	c #121010",
": 	c #423E39",
"< 	c #433E3A",
"[ 	c #3F3A36",
"} 	c #403B37",
"| 	c #413C38",
"1 	c #3F3936",
"2 	c #53504A",
"3 	c #292929",
"4 	c #272727",
"5 	c #0C0A09",
"6 	c #403A37",
"7 	c #524F49",
"8 	c #312B28",
"9 	c #433F3A",
"0 	c #2D2825",
"a 	c #332E2B",
"b 	c #54504B",
"c 	c #201918",
"d 	c #2D2725",
"e 	c #2F2926",
"f 	c #3F3C3B",
"g 	c #2B2B2B",
"h 	c #000000",
"i 	c #0B0807",
"j 	c #4F4B46",
"k 	c #211A1A",
"l 	c #261F1E",
"m 	c #45403C",
"n 	c #332D2A",
"o 	c #231C1B",
"p 	c #0B0B0B",
"q 	c #0B0A0A",
"r 	c #27201F",
"s 	c #342E2B",
"t 	c #241D1C",
"u 	c #110F10",
"v 	c #0F0D0F",
"w 	c #0F0D10",
"x 	c #221B1A",
"y 	c #605D5C",
"z 	c #5D5C5B",
"A 	c #BDBDBD",
"B 	c #1B1B1B",
"C 	c #010101",
"D 	c #1D1C1C",
"E 	c #5B5856",
"F 	c #5C5957",
"G 	c #494544",
"H 	c #251E1D",
"I 	c #46413D",
"J 	c #241D1B",
"K 	c #191213",
"L 	c #26201E",
"M 	c #251E1C",
"N 	c #151112",
"O 	c #100E10",
"P 	c #130F0F",
"Q 	c #161414",
"R 	c #140F0F",
"S 	c #484747",
"T 	c #D5D5D5",
"U 	c #E2E2E2",
"V 	c #FFFFFF",
"W 	c #979797",
"X 	c #8C8C8C",
"Y 	c #4B4B4B",
"Z 	c #C7C7C7",
"` 	c #BCBCBC",
" .	c #9D9C9C",
"..	c #322E2D",
"+.	c #121011",
"@.	c #151213",
"#.	c #36302D",
"$.	c #36312D",
"%.	c #1A1617",
"&.	c #0D0C0C",
"*.	c #312A28",
"=.	c #181515",
"-.	c #120E0E",
";.	c #302A27",
">.	c #62605F",
",.	c #D2D2D2",
"'.	c #D1D1D1",
").	c #9A9A9A",
"!.	c #9D9D9D",
"~.	c #9B9B9B",
"{.	c #B4B4B4",
"].	c #FEFEFE",
"^.	c #D3D3D3",
"/.	c #989898",
"(.	c #3A393A",
"_.	c #131011",
":.	c #0A0A0A",
"<.	c #151010",
"[.	c #150F10",
"}.	c #322D2A",
"|.	c #ABABAA",
"1.	c #FBFBFB",
"2.	c #DCDCDC",
"3.	c #E8E8E8",
"4.	c #FCFCFC",
"5.	c #C9C9C9",
"6.	c #6E6E6E",
"7.	c #161011",
"8.	c #151011",
"9.	c #110F11",
"0.	c #110E10",
"a.	c #413736",
"b.	c #403635",
"c.	c #797575",
"d.	c #D9D9D9",
"e.	c #CDCDCD",
"f.	c #C0C0C0",
"g.	c #525252",
"h.	c #CACACA",
"i.	c #E3E3E3",
"j.	c #7B7B7B",
"k.	c #1A1415",
"l.	c #141010",
"m.	c #191314",
"n.	c #332C2A",
"o.	c #171312",
"p.	c #140E0F",
"q.	c #AAA9A9",
"r.	c #FAFAFA",
"s.	c #7F7F7F",
"t.	c #565656",
"u.	c #C2C2C2",
"v.	c #464545",
"w.	c #161211",
"x.	c #171313",
"y.	c #868686",
"z.	c #F2F2F2",
"A.	c #D8D8D8",
"B.	c #A3A3A3",
"C.	c #FDFDFD",
"D.	c #6A6867",
"E.	c #322B28",
"F.	c #211B1A",
"G.	c #120F0F",
"H.	c #171112",
"I.	c #1B1515",
"J.	c #322C28",
"K.	c #393838",
"L.	c #696969",
"M.	c #E1E1E1",
"N.	c #EBEBEB",
"O.	c #615D5D",
"P.	c #2F2928",
"Q.	c #161314",
"R.	c #120E0F",
"S.	c #15100F",
"T.	c #F8F8F8",
"U.	c #B1B1B1",
"V.	c #615E5D",
"W.	c #0B0A0D",
"X.	c #171212",
"Y.	c #312C28",
"Z.	c #D6D6D6",
"`.	c #EDEDED",
" +	c #B7B7B7",
".+	c #5F5E5E",
"++	c #110D0E",
"@+	c #181213",
"#+	c #9E9E9E",
"$+	c #EAEAEA",
"%+	c #DEDEDE",
"&+	c #232323",
"*+	c #3A3A3A",
"=+	c #3C3C3C",
"-+	c #4F4F4F",
";+	c #515151",
">+	c #B6B6B6",
",+	c #F0F0F0",
"'+	c #B8B8B8",
")+	c #646261",
"!+	c #848484",
"~+	c #F9F9F9",
"{+	c #1C1C1C",
"]+	c #1D1D1D",
"^+	c #4D4D4D",
"/+	c #929292",
"(+	c #A7A7A7",
"_+	c #666564",
":+	c #1D1617",
"<+	c #585757",
"[+	c #6D6D6D",
"}+	c #383838",
"|+	c #111111",
"1+	c #161616",
"2+	c #020202",
"3+	c #494949",
"4+	c #646464",
"5+	c #5C5A59",
"6+	c #130D0E",
"7+	c #3B3231",
"8+	c #141113",
"9+	c #939393",
"0+	c #717171",
"a+	c #444444",
"b+	c #2A2A2A",
"c+	c #050505",
"d+	c #424242",
"e+	c #7A7A7A",
"f+	c #625E5D",
"g+	c #352E2B",
"h+	c #0B0B0A",
"i+	c #11100F",
"j+	c #181313",
"k+	c #140F10",
"l+	c #191313",
"m+	c #AFAFAE",
"n+	c #BFBFBF",
"o+	c #B5B5B5",
"p+	c #423837",
"q+	c #322B29",
"r+	c #1B1615",
"s+	c #9C9B9B",
"t+	c #828282",
"u+	c #5B5B5B",
"v+	c #E7E7E7",
"w+	c #615C5C",
"x+	c #3D3433",
"y+	c #171415",
"z+	c #211A19",
"A+	c #231C1A",
"B+	c #979796",
"C+	c #ECECEC",
"D+	c #F6F6F6",
"E+	c #616161",
"F+	c #ADADAD",
"G+	c #C4C4C4",
"H+	c #E4E4E4",
"I+	c #555454",
"J+	c #201A1A",
"K+	c #201A19",
"L+	c #727272",
"M+	c #626262",
"N+	c #666666",
"O+	c #AEAEAE",
"P+	c #E5E5E5",
"Q+	c #CCCCCC",
"R+	c #A6A6A6",
"S+	c #434242",
"T+	c #181212",
"U+	c #6F6E6E",
"V+	c #F5F5F5",
"W+	c #F3F3F3",
"X+	c #AAAAAA",
"Y+	c #AFAFAF",
"Z+	c #E0E0E0",
"`+	c #DBDBDB",
" @	c #F1F1F1",
".@	c #CECECE",
"+@	c #494645",
"@@	c #302B28",
"#@	c #191514",
"$@	c #1A1414",
"%@	c #1B1616",
"&@	c #909090",
"*@	c #D7D7D7",
"=@	c #7C7C7C",
"-@	c #7E7E7E",
";@	c #DFDFDF",
">@	c #CFCFCF",
",@	c #BEBEBE",
"'@	c #535252",
")@	c #2C2724",
"!@	c #4B4A4A",
"~@	c #A4A4A4",
"{@	c #E9E9E9",
"]@	c #A5A5A5",
"^@	c #A9A9A9",
"/@	c #B2B2B2",
"(@	c #545353",
"_@	c #302927",
":@	c #4C4C4B",
"<@	c #D0D0D0",
"[@	c #060606",
"}@	c #101010",
"|@	c #181818",
"1@	c #343434",
"2@	c #949494",
"3@	c #969696",
"4@	c #525151",
"5@	c #332C29",
"6@	c #636363",
"7@	c #040404",
"8@	c #131313",
"9@	c #595757",
"0@	c #3F3534",
"a@	c #423736",
"b@	c #423737",
"c@	c #362F2D",
"d@	c #120F10",
"e@	c #2E2826",
"f@	c #342D2A",
"g@	c #070605",
"h@	c #0A0707",
"i@	c #191515",
"j@	c #130E10",
"k@	c #3C3332",
"l@	c #433837",
"m@	c #191516",
"n@	c #050405",
"o@	c #302B27",
"p@	c #231B1A",
"q@	c #251E1E",
"r@	c #161111",
"s@	c #030203",
"t@	c #0C0C0C",
"u@	c #1D1717",
"v@	c #171414",
"w@	c #1B1415",
"x@	c #171413",
"y@	c #131012",
"z@	c #0B0A0B",
"A@	c #1C1717",
"B@	c #1E1A1A",
"    . . + @ . . #   . . . . . $ #     . . % &     . . . + &     ",
"  * = = - ; > , ' ) = = , , = ! ' ~ { = = = ] ^ ^ / = = - ( _   ",
"@ ; : , > < [ } | | ; > < 1 2 3 3 4 5 6 7 , > ; 8 | , , > 9 ' # ",
"# 0 a b < 8 c d 0 e 8 } ' f g h h h h i j 2 | e k l > , m n o p ",
"  q r < s t u v w x t y z A B h C h h D E F G x x H m = I s J p ",
"  q K L M N O P Q R S T U V W X h h h Y Z `  ...+.@.#.m $.%.+   ",
"  &.*.8 =.O P -.;.>.,.V U '.V V ).!.~.{.V ].^./.(.P =.n l _.:.  ",
"# 8 8 8 M <.[.}.8 |.1.2.3 h 3.V V V V V ].V 4.5.6.7.8.9.0.O :.  ",
"&.a.b.8 H x -.b.c.d.e.f.g.h h.].V V V V V V V i.j.O k.l.R P q   ",
":.m.b.b.n.o.O p.q.r.s.!.t.h 3.V V V V V V V V 1.u.v.' 8 H <.P :.",
":.[.p.p.w.@.x.x.y.z.A.h h B.C.V V V V V V V V V ^.D.E.o F.+.G.:.",
"  q H.I.e E.8 J.K.L.M.N.A '.C.V V V V V V V V V '.O.b.P.Q.R.:.  ",
"  :.m.' 8 8 8 8 S.h A.V 1.T.V V V V V V V V V V 3.U.V.W.P q     ",
":.X.;.8 8 8 Y.t S.h Z.V V V V V 2.U M.3.V V V V `. +.+++-.q     ",
":.@+8 8 8 8 t x #+$+V V V V V %+d.&+*+=+-+;+>+V ,+'+)+;.;.o.q   ",
":.k.a.a.a.a.' x 0.!+Z ~+V V -+{+]+h h h h h h ^+/+(+_+8 8 t #   ",
"  q :+a.a.a.a.8 7.<+[+}+|+1+C h h h h h 2+h 3+4+,.,+{.5+H x x p ",
"    # 6+7+b.8+X.y.9+0+a+b+c+h h h h h h d+e+f.V V $+{.f+g+H x h+",
"  i+j+x.k+p.l+8 m+4.n+[+4 h h h h h h Y o+V V V V $+{.f+p+q++.:.",
"& s 8 ;.r+k+;.s+`.V V t+h C h h h h u+u.V V V V ].v+{.w+x+y+:.  ",
"&.p+e z+A+O ;.B+C+V D+X h h h h h E+F+G+V V V C.H+d.>+I+++P q   ",
"q J+b.;.=.K+l+s+`.V V ,.L+M+4+4+N+O+A i.V V C.P+Q+h.R+S+7.#     ",
"  # k.T+P P 7.U+2.V+C.W+h.X+O+Y+Y+F+Z+`+ @ @3..@o+X +@@@#@P q   ",
"  q $@8 8 8 %@7.&@*@~+V U Q+t+=@=@-@X+;@T >@,@ +&@'@)@x x <.q   ",
"  % ' 8 8 8 o P !@~@v+V {@]@3 |+|+p &+^@`+/@]@9+(@e _@x x x <.:.",
"& n.' 8 t x F.R H.:@(+<@/.[@}@1+1+|@4 1@2@F+3@4@;.8 x x x x x p ",
"&.p+b.5@L x u 7.E.e t.6@7@h h h h h 8@h 4 L.9@0@a.a.8 o x x z+h+",
"&.a@a.b@c@o d@8.e@f@q+n g@h h h h h h h h@i@j@k@a.a.b.8 M x O :.",
"&.p+a.a.l@m@P P H.p+a.a@5@2+h h h h h h n@P P p.p+a.b.o@t p@#   ",
"q k p+p+q@l.P p r@p+a.a.b.8 C h h h h s@t@q P P u@p+a.b.n.v@q   ",
"  # w@w@<.# q   q x@p+a@a@a.' y@z@j+o.:.    q q p A@p+p+B@p     ",
"    :.:.:.          &.&.&.&.& :.  :.:.            :.&.&.q       "};
