/* XPM */
static char * P_player_back_xpm[] = {
"32 32 284 2",
"  	c None",
". 	c #0C0C0B",
"+ 	c #0E0D0D",
"@ 	c #0F0F0E",
"# 	c #100F0E",
"$ 	c #0C0B0B",
"% 	c #0D0D0D",
"& 	c #10100F",
"* 	c #0C0C0C",
"= 	c #0D0D0C",
"- 	c #121010",
"; 	c #352F2C",
"> 	c #47423E",
", 	c #56534D",
"' 	c #484540",
") 	c #292929",
"! 	c #282828",
"~ 	c #0E0E0E",
"{ 	c #45423D",
"] 	c #424141",
"^ 	c #3E3E3E",
"/ 	c #4D4A48",
"( 	c #575451",
"_ 	c #55524C",
": 	c #4B4843",
"< 	c #2E2B29",
"[ 	c #54514B",
"} 	c #423D39",
"| 	c #1A1917",
"1 	c #322C29",
"2 	c #433F3A",
"3 	c #4C4A45",
"4 	c #222222",
"5 	c #000000",
"6 	c #404040",
"7 	c #606060",
"8 	c #5A5A5A",
"9 	c #6B6966",
"0 	c #524E4C",
"a 	c #E3E3E3",
"b 	c #E6E6E6",
"c 	c #65625E",
"d 	c #5B5857",
"e 	c #010101",
"f 	c #191919",
"g 	c #2A2A2A",
"h 	c #393633",
"i 	c #3F3A36",
"j 	c #433E3A",
"k 	c #423E39",
"l 	c #0B0B0B",
"m 	c #231C1B",
"n 	c #332D2A",
"o 	c #45403C",
"p 	c #4B4944",
"q 	c #0A0A0A",
"r 	c #252525",
"s 	c #D3D3D3",
"t 	c #FFFFFF",
"u 	c #EFEFEF",
"v 	c #FEFEFE",
"w 	c #E7E7E7",
"x 	c #DBDBDB",
"y 	c #626262",
"z 	c #757575",
"A 	c #575757",
"B 	c #1C1C1C",
"C 	c #2B2726",
"D 	c #201918",
"E 	c #312B28",
"F 	c #54504B",
"G 	c #332E2B",
"H 	c #2D2825",
"I 	c #241D1B",
"J 	c #342E2B",
"K 	c #46413D",
"L 	c #3E3A36",
"M 	c #070505",
"N 	c #BDBDBD",
"O 	c #E2E2E2",
"P 	c #474747",
"Q 	c #020102",
"R 	c #0C0A0C",
"S 	c #110F10",
"T 	c #241D1C",
"U 	c #27201F",
"V 	c #0B0A0A",
"W 	c #1A1617",
"X 	c #36312D",
"Y 	c #393431",
"Z 	c #919191",
"` 	c #C9C9C9",
" .	c #2D2B2B",
"..	c #100E10",
"+.	c #151112",
"@.	c #251E1C",
"#.	c #26201E",
"$.	c #191213",
"%.	c #131011",
"&.	c #261F1E",
"*.	c #423E3C",
"=.	c #7C7B7B",
"-.	c #C8C8C8",
";.	c #EDEDED",
">.	c #B3B3B3",
",.	c #848383",
"'.	c #373636",
").	c #181515",
"!.	c #312A28",
"~.	c #0D0C0C",
"{.	c #110E10",
"].	c #403F40",
"^.	c #ACACAC",
"/.	c #E8E8E8",
"(.	c #EEEEEE",
"_.	c #B0B0B0",
":.	c #4F4E4E",
"<.	c #151010",
"[.	c #130F0F",
"}.	c #989898",
"|.	c #E9E9E9",
"1.	c #ECECEC",
"2.	c #A0A0A0",
"3.	c #3B3737",
"4.	c #251E1D",
"5.	c #403635",
"6.	c #413736",
"7.	c #454242",
"8.	c #BBBBBB",
"9.	c #C2C2C2",
"0.	c #4B4A4A",
"a.	c #332C2A",
"b.	c #191314",
"c.	c #120F0F",
"d.	c #121011",
"e.	c #423F3F",
"f.	c #BABABA",
"g.	c #C5C5C5",
"h.	c #4A4A4A",
"i.	c #161211",
"j.	c #140E0F",
"k.	c #150F10",
"l.	c #120E0F",
"m.	c #3F3E3E",
"n.	c #F1F1F1",
"o.	c #9D9D9D",
"p.	c #413D3B",
"q.	c #2F2926",
"r.	c #1B1515",
"s.	c #171112",
"t.	c #262424",
"u.	c #9F9F9F",
"v.	c #8F8F8F",
"w.	c #393533",
"x.	c #0F0E0E",
"y.	c #1F1E1E",
"z.	c #6D6D6D",
"A.	c #E5E5E5",
"B.	c #DCDCDC",
"C.	c #F3F3F3",
"D.	c #A5A5A5",
"E.	c #5F5F5F",
"F.	c #373737",
"G.	c #312B29",
"H.	c #302A27",
"I.	c #171212",
"J.	c #3A3A3A",
"K.	c #A3A3A3",
"L.	c #B5B5B5",
"M.	c #949494",
"N.	c #7B7B7B",
"O.	c #2F2927",
"P.	c #181213",
"Q.	c #636363",
"R.	c #DFDFDF",
"S.	c #F5F5F5",
"T.	c #F0F0F0",
"U.	c #D8D8D8",
"V.	c #7A7A7A",
"W.	c #3F3534",
"X.	c #1A1415",
"Y.	c #221B1A",
"Z.	c #E4E4E4",
"`.	c #1D1617",
" +	c #0B0B0A",
".+	c #120C0D",
"++	c #797979",
"@+	c #161212",
"#+	c #181313",
"$+	c #11100F",
"%+	c #171415",
"&+	c #646464",
"*+	c #1A1514",
"=+	c #F8F8F8",
"-+	c #FAFAFA",
";+	c #7C7C7C",
">+	c #201A18",
",+	c #211A19",
"'+	c #423837",
")+	c #121111",
"!+	c #525252",
"~+	c #B4B4B4",
"{+	c #F7F7F7",
"]+	c #FCFCFC",
"^+	c #585858",
"/+	c #1C1A1A",
"(+	c #201A1A",
"_+	c #151212",
":+	c #494949",
"<+	c #909090",
"[+	c #B6B6B6",
"}+	c #505050",
"|+	c #181212",
"1+	c #323232",
"2+	c #A7A7A7",
"3+	c #EBEBEB",
"4+	c #FBFBFB",
"5+	c #DEDEDE",
"6+	c #929292",
"7+	c #1A1414",
"8+	c #1F1918",
"9+	c #4B4B4B",
"0+	c #2C2623",
"a+	c #020202",
"b+	c #111111",
"c+	c #898989",
"d+	c #EAEAEA",
"e+	c #E0E0E0",
"f+	c #CDCDCD",
"g+	c #7F7F7F",
"h+	c #1E1716",
"i+	c #211A1A",
"j+	c #616161",
"k+	c #9A9A9A",
"l+	c #959595",
"m+	c #B7B7B7",
"n+	c #979797",
"o+	c #9C9C9C",
"p+	c #7E7E7E",
"q+	c #090808",
"r+	c #332C29",
"s+	c #2C2624",
"t+	c #020101",
"u+	c #1F1F1F",
"v+	c #262626",
"w+	c #212121",
"x+	c #4E4E4E",
"y+	c #1A1A1A",
"z+	c #0E0B0C",
"A+	c #362F2D",
"B+	c #423737",
"C+	c #423736",
"D+	c #231B1A",
"E+	c #302B27",
"F+	c #302827",
"G+	c #100E0F",
"H+	c #2E2825",
"I+	c #3A3130",
"J+	c #3C3332",
"K+	c #1E1817",
"L+	c #1F1817",
"M+	c #1C1615",
"N+	c #0B0808",
"O+	c #191516",
"P+	c #433837",
"Q+	c #171414",
"R+	c #3E3433",
"S+	c #110E0E",
"T+	c #0A0909",
"U+	c #131112",
"V+	c #131012",
"W+	c #221C1A",
"X+	c #3C3231",
"Y+	c #3D3433",
"Z+	c #3E3534",
"`+	c #140F0F",
" @	c #141010",
".@	c #251E1E",
"+@	c #1E1A1A",
"@@	c #1C1717",
"#@	c #171312",
"$@	c #0B0A0B",
"%@	c #171413",
"&@	c #1B1415",
"    . + @ @ @     . # @ @     $ % @ @ @ & &   * @ @ = + @ @     ",
"  - ; > , , ' ) ! ~ { , , ] ^ / ( , _ : ) ) ) < _ [ } > , , |   ",
"$ 1 2 [ _ 3 4 5 6 7 8 9 0 a b b b c d 5 e 5 f g h i j [ _ k } = ",
"l m n o _ p q r s t t u b v t t t w x y z A 5 B C D E j F G H $ ",
"l I J K , L M N t t t t t t t t t t t t t O P Q R S T J j U V   ",
"  + W X o Y Z a t t t t t t t t t t t t t t ` P  ...+.@.#.$.V   ",
"  q %.&.*.=.-.t t t t t t t t t t t t t t t ;.>.,.'...).E !.~.  ",
"  q ..{.].^./.t t t t t t t t t t t t t t t t (._.:.<.@.E E E $ ",
"  V [. .}.|.t t t t t t t t t t t t t t t t t t 1.2.3.4.E 5.6.~.",
"q [.<.7.8.t t t t t t t t t t t t t t t t t t t t 9.0.a.5.5.b.q ",
"q c.d.e.f.t t t t t t t t t t t t t t t t t t t t g.h.i.j.j.k.q ",
"  q l.m.N t t t t t t t t t t t t t t t t t t t n.o.p.q.r.s.V   ",
"    V t.u.t t t t t t t t t t t t t t t t t t t u v.w.E 1 b.q   ",
"    x.y.z.A.B.1.t t t t t t t t t t t t t t t C.D.E.F.G.E H.I.q ",
"  V 5 J.K.K.L.1.t t t t t t t t t t t t t t n.8.M.(.N.5 O.E P.q ",
"  $ 5 Q.t v t C.R.S.t t t t t t t t t t t T.U.C.t t V.5 W.6.X.q ",
"l Y.5 Q.t t t t t t t t t t Z.a Z.t t t t t t t t t V.5 W.`.V   ",
" +Y.5 Q.t t t t t t t t t t t t t t t t t t t t t t V.5 .+$     ",
"q d.M Q.t t t t t t t t t t t t t t t t t t t t t t ++e @+#+$+  ",
"  q %+&+t t t t t t t t t t t t t t t t t t t t t t ++*+H.E J . ",
"  V [.z.=+t t t t t t t t t t t t t t t t t t t t -+;+>+,+q.'+~.",
"    )+!+~+T.{+-+t t t t t t t t t t t t t t t ]+n.f.^+/+H.5.(+V ",
"  V _+:+<+[+a u t t t t t t t t t t t t t t -+(.N <+}+_+|+X.$   ",
"  V <.,+1+2+;.3+4+t t t t t t t t t t t 4+T.5+L.6+6 H E E 7+V   ",
"q <.Y.8+5 9+>.U.u u 4+t t t t t t t v |.a 5+g.6 5 5 0+E E 1 #   ",
"l Y.Y.8+a+5 b+c+f.8.A.u 1.d+d+d+d+d+3+e+B.f+g+a+5 5 h+T E 1 a.. ",
" +,+Y.i+|+a+5 5 P j+6+k+l+m+f.f.f.m+n+2.o+p+5 5 e q+,+#.r+5.'+~.",
"q ..Y.@.s+5 t+5 5 5 u+v+w+9+x+x+x+9+w+r ! y+5 e 5 z+m A+B+6.C+~.",
"  $ D+T E+F+5 5 5 5 5 G+H+I+J+c.K+L+M+5 5 5 e 5 N+[.O+P+6.6.'+~.",
"  V Q+a.5.5.R+r.S+S+T+* U+W.'+V+Y.W+E X+Y+Y+Z+`+l [. @.@'+'+i+V ",
"    l +@'+'+@@l V V     q #@#+$@V+1 6.C+C+'+%@V   V $ <.&@&@$   ",
"      V ~.~.q             e ) g ) . ~.~.~.~.          q q q     "};
