/* XPM */
static char * 1_wall_xpm[] = {
"32 32 318 2",
"  	c None",
". 	c #375138",
"+ 	c #384F3A",
"@ 	c #353E38",
"# 	c #28631D",
"$ 	c #317224",
"% 	c #275D1E",
"& 	c #296020",
"* 	c #295B22",
"= 	c #375236",
"- 	c #343F35",
"; 	c #27611C",
"> 	c #2E6E21",
", 	c #347526",
"' 	c #418031",
") 	c #428132",
"! 	c #347525",
"~ 	c #3C7C2D",
"{ 	c #357526",
"] 	c #337126",
"^ 	c #365534",
"/ 	c #2D5C26",
"( 	c #365135",
"_ 	c #354038",
": 	c #363D3A",
"< 	c #2A6520",
"[ 	c #307122",
"} 	c #438233",
"| 	c #539243",
"1 	c #569545",
"2 	c #549343",
"3 	c #4A893A",
"4 	c #39792A",
"5 	c #508F3F",
"6 	c #4D8D3D",
"7 	c #427F33",
"8 	c #307123",
"9 	c #295E21",
"0 	c #2A6121",
"a 	c #394A3C",
"b 	c #344036",
"c 	c #27621C",
"d 	c #418131",
"e 	c #579646",
"f 	c #589747",
"g 	c #468536",
"h 	c #4E8E3E",
"i 	c #539242",
"j 	c #4B8A3A",
"k 	c #2E6B22",
"l 	c #365634",
"m 	c #2F5E28",
"n 	c #365036",
"o 	c #373F3B",
"p 	c #28661D",
"q 	c #3F7F30",
"r 	c #448334",
"s 	c #599848",
"t 	c #4C8C3C",
"u 	c #4B8B3A",
"v 	c #337525",
"w 	c #3D7E2E",
"x 	c #367228",
"y 	c #39792B",
"z 	c #2C6323",
"A 	c #384A3B",
"B 	c #343D36",
"C 	c #498839",
"D 	c #4D8C3D",
"E 	c #559444",
"F 	c #549443",
"G 	c #458435",
"H 	c #468637",
"I 	c #458434",
"J 	c #4E8D3D",
"K 	c #4D8C3C",
"L 	c #418232",
"M 	c #347425",
"N 	c #2E7020",
"O 	c #2B6123",
"P 	c #2C6622",
"Q 	c #438234",
"R 	c #4F8E3E",
"S 	c #539343",
"T 	c #438433",
"U 	c #3F8030",
"V 	c #448333",
"W 	c #4E8D3E",
"X 	c #4F8D3F",
"Y 	c #317422",
"Z 	c #364D37",
"` 	c #296320",
" .	c #508E3F",
"..	c #549344",
"+.	c #4B8A3B",
"@.	c #347325",
"#.	c #428332",
"$.	c #438334",
"%.	c #374A39",
"&.	c #363B3A",
"*.	c #2F6F21",
"=.	c #508F40",
"-.	c #4F8E3F",
";.	c #2A6420",
">.	c #375139",
",.	c #373F3A",
"'.	c #28621C",
").	c #317223",
"!.	c #428233",
"~.	c #367527",
"{.	c #488838",
"].	c #569546",
"^.	c #519041",
"/.	c #478636",
"(.	c #478638",
"_.	c #4F8F3F",
":.	c #28601E",
"<.	c #364A37",
"[.	c #2C6621",
"}.	c #3F7E2F",
"|.	c #438333",
"1.	c #4C8B3C",
"2.	c #4C8B3B",
"3.	c #327323",
"4.	c #2F7021",
"5.	c #28611F",
"6.	c #353E37",
"7.	c #375136",
"8.	c #2E6F20",
"9.	c #4A8A3B",
"0.	c #377828",
"a.	c #4F8F3E",
"b.	c #498939",
"c.	c #408131",
"d.	c #367727",
"e.	c #408030",
"f.	c #418132",
"g.	c #337425",
"h.	c #355334",
"i.	c #2A5B23",
"j.	c #353F38",
"k.	c #2B6720",
"l.	c #4C8A3B",
"m.	c #478536",
"n.	c #438434",
"o.	c #337524",
"p.	c #337324",
"q.	c #307022",
"r.	c #28631C",
"s.	c #2D6B21",
"t.	c #2A5E23",
"u.	c #354C36",
"v.	c #363E3A",
"w.	c #363C3A",
"x.	c #384F39",
"y.	c #428232",
"z.	c #4B8B3B",
"A.	c #4D8D3E",
"B.	c #4C8C3D",
"C.	c #407F30",
"D.	c #49883A",
"E.	c #569645",
"F.	c #2E6D21",
"G.	c #29661D",
"H.	c #2A5D22",
"I.	c #334234",
"J.	c #363D39",
"K.	c #2C5F24",
"L.	c #327224",
"M.	c #3F7F2F",
"N.	c #458335",
"O.	c #519040",
"P.	c #529242",
"Q.	c #468535",
"R.	c #488738",
"S.	c #3E7F2F",
"T.	c #327324",
"U.	c #2B5B25",
"V.	c #374D39",
"W.	c #363A3A",
"X.	c #2C6223",
"Y.	c #2F7022",
"Z.	c #3E7D2F",
"`.	c #529142",
" +	c #4F8D3E",
".+	c #357726",
"++	c #3B7B2B",
"@+	c #317123",
"#+	c #295F20",
"$+	c #37433A",
"%+	c #375237",
"&+	c #2A5C23",
"*+	c #345433",
"=+	c #296120",
"-+	c #2B6B1E",
";+	c #468537",
">+	c #488839",
",+	c #337224",
"'+	c #307222",
")+	c #2D6C21",
"!+	c #29641D",
"~+	c #37423A",
"{+	c #37433B",
"]+	c #295E20",
"^+	c #27611B",
"/+	c #27601C",
"(+	c #478637",
"_+	c #4A8A3A",
":+	c #569544",
"<+	c #2F6F22",
"[+	c #295D21",
"}+	c #385039",
"|+	c #394E3C",
"1+	c #37413A",
"2+	c #3A4C3C",
"3+	c #28611E",
"4+	c #2B6A1D",
"5+	c #28641D",
"6+	c #3B7C2C",
"7+	c #478738",
"8+	c #428333",
"9+	c #428033",
"0+	c #2B6322",
"a+	c #2A5D23",
"b+	c #37403A",
"c+	c #365035",
"d+	c #306D23",
"e+	c #2C6B20",
"f+	c #3C7C2C",
"g+	c #3A7B2B",
"h+	c #417F31",
"i+	c #355633",
"j+	c #295D22",
"k+	c #384F38",
"l+	c #363E39",
"m+	c #38493B",
"n+	c #2A5F22",
"o+	c #28641C",
"p+	c #2A691E",
"q+	c #2A661F",
"r+	c #2E6D20",
"s+	c #29651D",
"t+	c #408031",
"u+	c #29661E",
"v+	c #28621E",
"w+	c #2B5E23",
"x+	c #285E20",
"y+	c #27601E",
"z+	c #374A38",
"A+	c #374439",
"B+	c #374D38",
"C+	c #29631E",
"D+	c #355134",
"E+	c #2A6021",
"F+	c #2D6C20",
"G+	c #2A681D",
"H+	c #2D6D20",
"I+	c #29631F",
"J+	c #2D6E20",
"K+	c #2C6C1E",
"L+	c #285E1F",
"M+	c #385139",
"N+	c #394B3C",
"O+	c #373D3B",
"P+	c #365237",
"Q+	c #275F1E",
"R+	c #355433",
"S+	c #2C6C1F",
"T+	c #337424",
"U+	c #3D7D2D",
"V+	c #3E7E2F",
"W+	c #3B7B2D",
"X+	c #317023",
"Y+	c #2A651E",
"Z+	c #2B6A1E",
"`+	c #27611D",
" @	c #365236",
".@	c #384C3B",
"+@	c #394B3B",
"@@	c #384D39",
"#@	c #2B6321",
"$@	c #2B6421",
"%@	c #2C6B1F",
"&@	c #285F20",
"*@	c #295F1F",
"=@	c #2B5C24",
"-@	c #394C3C",
";@	c #374F39",
">@	c #365037",
",@	c #296220",
"'@	c #384F3B",
")@	c #38503A",
"!@	c #384E3A",
"~@	c #384B3A",
"{@	c #385138",
"]@	c #29601F",
"^@	c #2B6221",
"/@	c #375137",
"(@	c #365136",
"_@	c #384C3A",
":@	c #38433C",
"<@	c #38463C",
"[@	c #3D4844",
"}@	c #394A3B",
"|@	c #394D3C",
"1@	c #364339",
"2@	c #374E38",
"3@	c #373E3A",
"4@	c #3A4240",
"5@	c #383E3C",
"6@	c #3B4341",
"7@	c #384D3B",
"8@	c #363F3A",
"9@	c #36393A",
"0@	c #37403B",
"a@	c #363B39",
"b@	c #373E3B",
"c@	c #3A4140",
"                            . + @                               ",
"                      #   $ % & * =   -                         ",
"                  ; > , ' ) ! ~ { ] ^ / ( _ :                   ",
"                < [ } | 1 2 3 4 5 6 7 8 9 0 a b                 ",
"            c 8 d 2 1 e f f 1 g h f i j d k l m n o             ",
"          p $ q r 5 1 f f s 2 t 1 1 5 u v w x y z A B           ",
"          C D E F G 5 1 e 5 5 H I J K L M } L G ~ N O           ",
"        P Q E s E h r R E e e S 6 T , U V K W X r Y Z :         ",
"      ` d i s E  .} 5 ..f f f f 2 +.) @.#.W E E 6 $.& %.&.      ",
"      *.q t 1 D G G 1 f f s f E =.6 ' ! C -.E 2 E j ;.>.,.      ",
"    '.)., !.5 G ~.{.E f e 5 ].^.K /.(.q h E =.2 _.3 [ :.<.:     ",
"    [.}.J 1 e R |.r 1.E =.2 =.| L 2.) 3.!.2 e h D ' 4.5.6.      ",
"  7.8.) e f 1 E 9.0.g J a.R b.c.d.e.f.g.g.r W +.}.[ :.h.i.j.    ",
"    k.l.1 ^.2 -.t G 3 m.t n.0.U 4.o.} R t t !.p.q.r.s.t.u.v.w.  ",
"  x.8.y.z.W A.G r B.E E f 1.c., C.D.E.E -.G G C.[ F.G.H.I.J.    ",
"  . K.L.M.r N.d 6 e 2 O.E 5 P.y.Q.i f 1 e 6 R.y.S.T.% h.U.V.W.  ",
"    h.X.Y.' Z.g.3 2 `.2 -.9. +} 6 J 1 5 R I .+L.).++@+#+H.V.$+  ",
"  %+&+*+=+F.-+4.g 6 6 O.t ;+z.d.j h G J 2 R >+q ,+'+)+!+n ~+{+  ",
"  = ]+& ^+/+*.'+q } ) 9.(+_+} U _+r 5 :+O.2 i K S.<+# [+}+|+1+  ",
"  2+3+4+5+<+6+T.T.~ d.} 7+g.d T.8+2.J e 2 -.6 G 9+0+H.h.a+%.&.  ",
"  b+c+d+e+5+[ f+Y.g.g+d.!.n.[ [ , w 6 J J +.h+) k i+h.j+k+l+w.  ",
"  1+m+n+o+p+q+r+s+e+T.C.C W b.} ' M ' t+M.M q.u+v+w+x+y+z+w.    ",
"    A+B+H.C+D+E+F+G+H+t+G _+Q.~ g.~ ,+).I+J+> K+H.= L+M+$+N+&.  ",
"      O+P+Q+i.R+3+C+S+T+U+v V+, W+X+Y+)+Z+5+c `+ @}+[+V..@,.    ",
"    : +@W.@@#@9 %+x.$@%@<+v+q.q.*.&@R+H.]+*@w+}+. =@}+-@W.w.    ",
"      v.: -@;@}+a++ >@n+,@Z+; y+'.]+a+R+ @;@+ '@)@!@-@,.&.      ",
"        w.1+N+'@~@w.-@{@ @a+]@^@x./@(@=@U.+ w..@_@:@O+w.<@      ",
"          [@l+-@o }@~+N+|@>.;@;@-@|+1@2@!@|@a v.3@4@w.          ",
"              5@6@&.N+O+1+.@7@N+8@9@-@N+0@W.w.6@a@              ",
"                    b@:@O+: : v.w.w.: : c@w.                    ",
"                                                                ",
"                                                                "};
