/* XPM */
static char * C_collectible_xpm[] = {
"32 32 545 2",
"  	c None",
". 	c #0C0C0B",
"+ 	c #0E0D0D",
"@ 	c #0F0F0E",
"# 	c #100F0E",
"$ 	c #0C0B0B",
"% 	c #0D0D0D",
"& 	c #0D0D0C",
"* 	c #121010",
"= 	c #352F2C",
"- 	c #47423E",
"; 	c #56534D",
"> 	c #56524C",
", 	c #131211",
"' 	c #37322E",
") 	c #1F1E1C",
"! 	c #302B28",
"~ 	c #423D39",
"{ 	c #54514B",
"] 	c #53504A",
"^ 	c #55524C",
"/ 	c #191817",
"( 	c #322C29",
"_ 	c #1A1917",
": 	c #433F3A",
"< 	c #413C38",
"[ 	c #312B28",
"} 	c #524F49",
"| 	c #403A37",
"1 	c #413B37",
"2 	c #20241A",
"3 	c #1E2519",
"4 	c #2A2F25",
"5 	c #292E24",
"6 	c #24281E",
"7 	c #403C37",
"8 	c #403B37",
"9 	c #3F3A36",
"0 	c #433E3A",
"a 	c #423E39",
"b 	c #0B0B0B",
"c 	c #231C1B",
"d 	c #332D2A",
"e 	c #45403C",
"f 	c #261F1E",
"g 	c #211A1A",
"h 	c #2F2926",
"i 	c #4F4B46",
"j 	c #2D2624",
"k 	c #1F2A19",
"l 	c #2A9329",
"m 	c #30AA2F",
"n 	c #30A82E",
"o 	c #32AB30",
"p 	c #2EA02C",
"q 	c #213F1C",
"r 	c #3C3734",
"s 	c #2D2825",
"t 	c #2D2725",
"u 	c #201918",
"v 	c #54504B",
"w 	c #332E2B",
"x 	c #241D1B",
"y 	c #342E2B",
"z 	c #46413D",
"A 	c #251E1D",
"B 	c #221B1A",
"C 	c #3D3734",
"D 	c #172712",
"E 	c #1C771B",
"F 	c #36C034",
"G 	c #3ED53B",
"H 	c #39CD37",
"I 	c #35C633",
"J 	c #32BF31",
"K 	c #289227",
"L 	c #254E1F",
"M 	c #211A19",
"N 	c #0F0D10",
"O 	c #0F0D0F",
"P 	c #110F10",
"Q 	c #241D1C",
"R 	c #27201F",
"S 	c #0B0A0A",
"T 	c #1A1617",
"U 	c #36312D",
"V 	c #36302D",
"W 	c #151213",
"X 	c #121011",
"Y 	c #3E3936",
"Z 	c #24371E",
"` 	c #1A6F19",
" .	c #30B92E",
"..	c #33C131",
"+.	c #2FBA2D",
"@.	c #27AF26",
"#.	c #1FA51E",
"$.	c #2AB429",
"%.	c #3DD23B",
"&.	c #1F731D",
"*.	c #0D0A0A",
"=.	c #140F0F",
"-.	c #110E0E",
";.	c #130F0F",
">.	c #100E10",
",.	c #151112",
"'.	c #251E1C",
").	c #26201E",
"!.	c #191213",
"~.	c #090909",
"{.	c #110E0F",
"].	c #231C1C",
"^.	c #2F2A27",
"/.	c #161313",
"(.	c #120F11",
"_.	c #25201E",
":.	c #156014",
"<.	c #31BB2F",
"[.	c #33C031",
"}.	c #33BF31",
"|.	c #25AB23",
"1.	c #23A922",
"2.	c #35C333",
"3.	c #3ED43C",
"4.	c #3FD43D",
"5.	c #1D701C",
"6.	c #221D1B",
"7.	c #302A27",
"8.	c #120E0E",
"9.	c #181515",
"0.	c #312A28",
"a.	c #0D0C0C",
"b.	c #0B320A",
"c.	c #0B350B",
"d.	c #0A3309",
"e.	c #082D07",
"f.	c #0B2C09",
"g.	c #11130E",
"h.	c #0C130B",
"i.	c #176816",
"j.	c #32BE30",
"k.	c #32C030",
"l.	c #24AA23",
"m.	c #36C634",
"n.	c #3DD13B",
"o.	c #1E701C",
"p.	c #181312",
"q.	c #150F10",
"r.	c #151010",
"s.	c #124E11",
"t.	c #34B232",
"u.	c #37BD35",
"v.	c #36BB35",
"w.	c #32B230",
"x.	c #2BA729",
"y.	c #289D26",
"z.	c #123D0F",
"A.	c #060F05",
"B.	c #060704",
"C.	c #1B6F19",
"D.	c #2EB02C",
"E.	c #33BF30",
"F.	c #26AD24",
"G.	c #28AF26",
"H.	c #30BB2E",
"I.	c #35C433",
"J.	c #186717",
"K.	c #181212",
"L.	c #413736",
"M.	c #403635",
"N.	c #2EA52C",
"O.	c #2EB92D",
"P.	c #3ED53C",
"Q.	c #3ED63C",
"R.	c #37C835",
"S.	c #33C331",
"T.	c #279B25",
"U.	c #187D20",
"V.	c #03380C",
"W.	c #126817",
"X.	c #27AC2D",
"Y.	c #29AD2E",
"Z.	c #31BC30",
"`.	c #21A61E",
" +	c #2AB227",
".+	c #34C232",
"++	c #31BA2E",
"@+	c #20851F",
"#+	c #1A3F15",
"$+	c #2E2725",
"%+	c #140E0F",
"&+	c #171312",
"*+	c #332C2A",
"=+	c #191314",
"-+	c #0A0A0A",
";+	c #30BD2E",
">+	c #30BD2F",
",+	c #2CB62A",
"'+	c #2CB52A",
")+	c #32BE31",
"!+	c #2DB62F",
"~+	c #23A72A",
"{+	c #259627",
"]+	c #2BA12D",
"^+	c #28AC31",
"/+	c #1C9929",
"(+	c #28AE28",
"_+	c #1DA021",
":+	c #22A428",
"<+	c #29AD2D",
"[+	c #2AB02E",
"}+	c #27A42A",
"|+	c #093809",
"1+	c #1F1B19",
"2+	c #302828",
"3+	c #2F2726",
"4+	c #100C0D",
"5+	c #171313",
"6+	c #161211",
"7+	c #29B127",
"8+	c #1EA21C",
"9+	c #26AD25",
"0+	c #2DB72B",
"a+	c #2BB22B",
"b+	c #1E9A2A",
"c+	c #2AAF2C",
"d+	c #37C734",
"e+	c #3FD63D",
"f+	c #3BCD3A",
"g+	c #22A32A",
"h+	c #199C1A",
"i+	c #25A72B",
"j+	c #29AB31",
"k+	c #28AB31",
"l+	c #26A82E",
"m+	c #1C9526",
"n+	c #0D5C15",
"o+	c #145E14",
"p+	c #166415",
"q+	c #166515",
"r+	c #145512",
"s+	c #2A2621",
"t+	c #2A2522",
"u+	c #312A27",
"v+	c #1B1515",
"w+	c #171112",
"x+	c #3CD03A",
"y+	c #34C332",
"z+	c #31BD2F",
"A+	c #32BF30",
"B+	c #2BB329",
"C+	c #1DA31C",
"D+	c #1DA11E",
"E+	c #1D9B28",
"F+	c #3ACA39",
"G+	c #36C433",
"H+	c #3BCE39",
"I+	c #21A61F",
"J+	c #37C735",
"K+	c #3ED23C",
"L+	c #39C937",
"M+	c #2AAF2A",
"N+	c #1D9A29",
"O+	c #2BB02D",
"P+	c #2CA82A",
"Q+	c #175615",
"R+	c #164F15",
"S+	c #283321",
"T+	c #32BD30",
"U+	c #2DB72C",
"V+	c #1EA21F",
"W+	c #38C837",
"X+	c #36C534",
"Y+	c #31BC2F",
"Z+	c #30BA2E",
"`+	c #2BB229",
" @	c #32BE2F",
".@	c #3ACC39",
"+@	c #22A12D",
"@@	c #1D9A2A",
"#@	c #2CB32F",
"$@	c #33C030",
"%@	c #35C233",
"&@	c #3BCB39",
"*@	c #3BC839",
"=@	c #1F6D1D",
"-@	c #262A1F",
";@	c #171212",
">@	c #197118",
",@	c #31BB30",
"'@	c #1F9E27",
")@	c #1D8C22",
"!@	c #2FB22E",
"~@	c #35C533",
"{@	c #2EB82C",
"]@	c #2CB42A",
"^@	c #34C132",
"/@	c #3ACC38",
"(@	c #3ED33C",
"_@	c #189229",
":@	c #2BB02E",
"<@	c #36C635",
"[@	c #41DA3F",
"}@	c #39C437",
"|@	c #247A22",
"1@	c #241F1D",
"2@	c #181213",
"3@	c #1C761A",
"4@	c #2FB42D",
"5@	c #34C632",
"6@	c #30BA30",
"7@	c #1F9C2B",
"8@	c #148824",
"9@	c #1B8B21",
"0@	c #1F8F20",
"a@	c #249C25",
"b@	c #2EB72C",
"c@	c #3DCF3B",
"d@	c #28A029",
"e@	c #1C9B21",
"f@	c #189A1F",
"g@	c #20A422",
"h@	c #2BB429",
"i@	c #3DD53B",
"j@	c #289027",
"k@	c #272120",
"l@	c #1A1415",
"m@	c #162211",
"n@	c #20801E",
"o@	c #259323",
"p@	c #2BA829",
"q@	c #34C432",
"r@	c #31BF31",
"s@	c #209F2C",
"t@	c #157F22",
"u@	c #10751D",
"v@	c #15801E",
"w@	c #239B24",
"x@	c #28A826",
"y@	c #26A226",
"z@	c #2BAB2C",
"A@	c #2BA52D",
"B@	c #107D1D",
"C@	c #19981F",
"D@	c #26AC24",
"E@	c #1D1617",
"F@	c #0B0B0A",
"G@	c #211B19",
"H@	c #171A12",
"I@	c #171512",
"J@	c #236F1F",
"K@	c #2CA92A",
"L@	c #29A529",
"M@	c #188523",
"N@	c #085214",
"O@	c #127921",
"P@	c #2BB230",
"Q@	c #34C231",
"R@	c #2AB128",
"S@	c #1C8A1B",
"T@	c #035207",
"U@	c #075E12",
"V@	c #12801F",
"W@	c #1C982A",
"X@	c #1D992B",
"Y@	c #2EB62F",
"Z@	c #267A23",
"`@	c #0C0808",
" #	c #33332A",
".#	c #132E0F",
"+#	c #052A04",
"@#	c #0C480D",
"##	c #1C8C25",
"$#	c #1B982A",
"%#	c #2DB432",
"&#	c #3ACC37",
"*#	c #2FB92D",
"=#	c #3AC838",
"-#	c #209024",
";#	c #04430B",
">#	c #0E6318",
",#	c #1B9429",
"'#	c #1C992A",
")#	c #1D9A2B",
"!#	c #2EB72F",
"~#	c #1C6C1B",
"{#	c #0F1A0C",
"]#	c #181313",
"^#	c #11100F",
"/#	c #171415",
"(#	c #3D3433",
"_#	c #3D3332",
":#	c #0D410B",
"<#	c #2CAA2A",
"[#	c #31BD30",
"}#	c #25A72D",
"|#	c #21A129",
"1#	c #39C938",
"2#	c #1E8B22",
"3#	c #188B25",
"4#	c #1B9529",
"5#	c #12721D",
"6#	c #0C5814",
"7#	c #2DB42E",
"8#	c #164F14",
"9#	c #12270F",
"0#	c #1A1615",
"a#	c #110D0E",
"b#	c #140E10",
"c#	c #0F0B0B",
"d#	c #0E480D",
"e#	c #30B62D",
"f#	c #34C331",
"g#	c #30BB2F",
"h#	c #27AA2C",
"i#	c #20A027",
"j#	c #25AB26",
"k#	c #188E24",
"l#	c #199329",
"m#	c #1D9D2C",
"n#	c #14771F",
"o#	c #011A02",
"p#	c #094D11",
"q#	c #0A4F11",
"r#	c #135E14",
"s#	c #166315",
"t#	c #1B5717",
"u#	c #292621",
"v#	c #292421",
"w#	c #231C1A",
"x#	c #423837",
"y#	c #161011",
"z#	c #110D0D",
"A#	c #26211F",
"B#	c #10480F",
"C#	c #2FB32D",
"D#	c #25A929",
"E#	c #1A9F1A",
"F#	c #29AF2C",
"G#	c #2BB22E",
"H#	c #22A42C",
"I#	c #11731E",
"J#	c #141810",
"K#	c #0D0809",
"L#	c #110C0C",
"M#	c #181211",
"N#	c #211D1B",
"O#	c #342D2C",
"P#	c #191313",
"Q#	c #201A19",
"R#	c #201A1A",
"S#	c #191514",
"T#	c #11480F",
"U#	c #2EB22C",
"V#	c #34C131",
"W#	c #2EB82B",
"X#	c #1DA21C",
"Y#	c #31BC2E",
"Z#	c #2CB52F",
"`#	c #1A801F",
" $	c #202019",
".$	c #130E0F",
"+$	c #131012",
"@$	c #2E2826",
"#$	c #3F3635",
"$$	c #423736",
"%$	c #1A1414",
"&$	c #134B10",
"*$	c #33BC31",
"=$	c #30BC2E",
"-$	c #2AB228",
";$	c #36C935",
">$	c #299C27",
",$	c #061606",
"'$	c #151011",
")$	c #0E0C0E",
"!$	c #3E3433",
"~$	c #423836",
"{$	c #161111",
"]$	c #2A2422",
"^$	c #194F16",
"/$	c #37BF36",
"($	c #35C332",
"_$	c #21A720",
":$	c #3ACB38",
"<$	c #2E9E2C",
"[$	c #0A1708",
"}$	c #141010",
"|$	c #2B2E23",
"1$	c #1B5518",
"2$	c #35BA34",
"3$	c #40D83E",
"4$	c #31BE2F",
"5$	c #24AC23",
"6$	c #3DD33B",
"7$	c #299327",
"8$	c #11390F",
"9$	c #13110F",
"0$	c #181413",
"a$	c #211B1A",
"b$	c #403736",
"c$	c #39312F",
"d$	c #235F1F",
"e$	c #36B834",
"f$	c #35C733",
"g$	c #26AF25",
"h$	c #40D93E",
"i$	c #41D83F",
"j$	c #143E11",
"k$	c #322B28",
"l$	c #332C29",
"m$	c #332B2A",
"n$	c #1E6C1C",
"o$	c #1F801D",
"p$	c #147014",
"q$	c #268C25",
"r$	c #268B25",
"s$	c #25481F",
"t$	c #27201E",
"u$	c #342D2A",
"v$	c #120F10",
"w$	c #362F2D",
"x$	c #423737",
"y$	c #231B1A",
"z$	c #302B27",
"A$	c #0E0B0B",
"B$	c #080606",
"C$	c #0C090A",
"D$	c #1E1A18",
"E$	c #292221",
"F$	c #151111",
"G$	c #191516",
"H$	c #433837",
"I$	c #171414",
"J$	c #1D1717",
"K$	c #0C0C0C",
"L$	c #131112",
"M$	c #3F3534",
"N$	c #221C1A",
"O$	c #251E1E",
"P$	c #1E1A1A",
"Q$	c #1C1717",
"R$	c #0B0A0B",
"S$	c #171413",
"T$	c #1B1415",
"    . + @ @ @     . # @ @     $ % @ @ @ @ @   $ @ @ & + @ @     ",
"  * = - ; ; > , , ' ; ; ; ) & ! ~ { ] ^ ; ; / ( ^ { ~ - ; ; _   ",
"$ ( : { ^ ^ < [ ~ { ^ } | 1 2 3 4 5 6 7 { ~ < < 8 9 0 { ^ a ~ & ",
"b c d e ^ { f g h < ] i j k l m n o p q r [ h s t u [ 0 v w s $ ",
"b x y z ; e A B B ( ~ C D E F G H I J K L M B N O P Q y 0 R S   ",
"  + T U e V W X c d Y Z `  ...+.@.#.$.%.&.*.=.-.;.>.,.'.).!.S   ",
"  ~.{.].^./.-.>.(.'._.:.<.[.}.|.1.2.3.4.5.6.7.7.8.;.>.9.[ 0.a.  ",
"  b.c.c.d.e.f.g.O >.h.i.j.k.j.l.|.[.m.n.o.p.7.[ 7.q.r.'.[ [ [ $ ",
"s.t.u.v.w.x.y.z.A.B.C.D.E.j.F.G.H.j.[.I.J.K.7.L.M.8.B A [ M.L.a.",
"N.O.P.Q.R.S.j.T.U.V.W.X.Y.Z.`. +.+..++@+#+$+L.M.%+>.&+*+M.M.=+-+",
"3.;+>+,+'+[.)+!+~+{+]+^+/+(+_+:+<+[+}+|+1+2+3+4+5+5+W 6+%+%+q.-+",
"4.%.7+8+9+0+a+b+c+d+e+f+g+h+i+j+k+l+m+n+o+p+q+r+s+t+u+h v+w+S   ",
"x+y+z+A+B+C+D+E+F+G+[.H+H.I+J+K+n.L+M+N+O+Z.}.P+Q+R+S+7.( =+-+  ",
"T+}.j.A+z+H.U+V+W+e+X+'+T+Y+[.Z+`+ @.@+@@@#@$@%@&@*@=@-@[ 7.;@-+",
">@ ...j.j.[.,@'@)@!@~@{@]@T+]@^@/@x+(@+@_@:@E.<@[@[@}@|@1@[ 2@-+",
"  3@4@5@$@E.6@7@8@9@0@a@b@'+{@~@P.c@d@e@f@g@|.9+h@,+i@j@k@L.l@-+",
"-+m@n@o@p@q@r@s@t@u@v@w@{@]@x@y@z@A@B@C@l.D@l.9+h@,+i@j@k@E@S   ",
"F@G@H@I@J@K@L@M@N@O@P@Q@R@2.S@T@U@V@W@X@Y@[.j.<@[@[@}@Z@`@$     ",
"-+X 0.L. #.#+#@###$#%#&#*#=#-#;#>#,#'#)#!#..A+%@&@*@~#{#5+]#^#  ",
"  -+/#(#_#=.:#<#[#}#|#z+1#2#3#4#5#6#,#W@7#j.J P+Q+8#9#0#7.[ y . ",
"  S ;.a#b#c#d#e#f#g#h#i#j#k#l#m#n#o#p#q#r#s#q+t#u#v#O w#M h x#a.",
"    $ y#z#A#B#C#..$@6@D#E#F#G#H#I#J#K#L#M#M#N#O#M.P#Q#9.7.M.R#S ",
"  S ;.S#! t+T#U#[.j.V#W#X#Y#Q@Z#`# $.$+$B @$#$$$%$y#;.;.K.l@$   ",
"  S r.B B v#&$*$y+z+=$-$1.H.T+;$>$,$q.'$)$!$~$=+y#{$[ [ [ %$S   ",
"-+r.B B B ]$^$/$J+($-$_$[.^@.+:$<$[$}$g w+w+w+y#;.c [ [ [ ( #   ",
"b B B B B B |$1$2$3$4$5$6$3.3.7$8$9$0$( [ [ ( =+=.a$B Q [ ( *+. ",
"F@M B B c [ b$c$d$e$f$g$h$i$j@j$-.B Q 7.[ [ [ k$y#P B ).l$M.x#a.",
"-+>.B '.[ M.L.L.m$n$o$p$q$r$s$q.{$B B t$u$u$u$@$'$v$c w$x$L.$$a.",
"  $ y$Q z$M.L.x#%+A$B$C$D$E$!$F$B B c u$$$L.x#w+;.;.G$H$L.L.x#a.",
"  S I$*+M.L.x#J$;.;.S K$L$M$x#+$B N$[ M.L.L.x#{$b ;.}$O$x#x#g S ",
"    b P$x#x#Q$b S S     -+&+]#R$+$( L.$$$$x#S$S   S $ r.T$T$$   ",
"      S a.a.-+            -+-+  -+. a.a.a.a.          -+-+-+    "};
