/* XPM */
static char * E_exit_2_xpm[] = {
"32 32 490 2",
"  	c None",
". 	c #4D3018",
"+ 	c #0C0C0B",
"@ 	c #0E0D0D",
"# 	c #0F0F0E",
"$ 	c #100F0E",
"% 	c #0C0B0B",
"& 	c #0D0D0D",
"* 	c #0D0D0C",
"= 	c #4E3519",
"- 	c #4A2B1A",
"; 	c #3B2517",
"> 	c #362E2B",
", 	c #47423E",
"' 	c #56534D",
") 	c #56524C",
"! 	c #131211",
"~ 	c #37322E",
"{ 	c #1F1E1C",
"] 	c #322C29",
"^ 	c #443F3B",
"/ 	c #55524C",
"( 	c #191817",
"_ 	c #54514B",
": 	c #423D39",
"< 	c #504B45",
"[ 	c #4D311E",
"} 	c #523419",
"| 	c #4C2C1A",
"1 	c #4E2E1A",
"2 	c #4D3222",
"3 	c #564F47",
"4 	c #413C38",
"5 	c #312B28",
"6 	c #524F49",
"7 	c #403A37",
"8 	c #423C38",
"9 	c #3F3936",
"0 	c #433E3A",
"a 	c #403B37",
"b 	c #3F3A36",
"c 	c #4F473F",
"d 	c #4D301A",
"e 	c #4C2D1A",
"f 	c #52341A",
"g 	c #4D2D1A",
"h 	c #4F3019",
"i 	c #503119",
"j 	c #4F341E",
"k 	c #554B42",
"l 	c #261F1E",
"m 	c #211A1A",
"n 	c #2F2926",
"o 	c #53504A",
"p 	c #4F4B46",
"q 	c #2E2725",
"r 	c #2D2825",
"s 	c #514E48",
"t 	c #201918",
"u 	c #2D2725",
"v 	c #504032",
"w 	c #503219",
"x 	c #553419",
"y 	c #52331B",
"z 	c #5A3B16",
"A 	c #472A1D",
"B 	c #51311B",
"C 	c #603F1B",
"D 	c #503118",
"E 	c #55361A",
"F 	c #4A3A31",
"G 	c #251E1D",
"H 	c #221B1A",
"I 	c #211A19",
"J 	c #110E10",
"K 	c #241E1C",
"L 	c #241D1C",
"M 	c #0F0D10",
"N 	c #0F0D0F",
"O 	c #110F10",
"P 	c #45301F",
"Q 	c #57371C",
"R 	c #513118",
"S 	c #56361C",
"T 	c #4F311A",
"U 	c #50402C",
"V 	c #2C2225",
"W 	c #50331D",
"X 	c #61421B",
"Y 	c #573618",
"Z 	c #59391A",
"` 	c #523218",
" .	c #312115",
"..	c #121011",
"+.	c #231C1B",
"@.	c #332D2A",
"#.	c #302A27",
"$.	c #100E10",
"%.	c #120F11",
"&.	c #322D29",
"*.	c #151314",
"=.	c #141010",
"-.	c #140F0F",
";.	c #110E0E",
">.	c #130F0F",
",.	c #442B14",
"'.	c #50301B",
").	c #5A391B",
"!.	c #553519",
"~.	c #5B3B1B",
"{.	c #382B23",
"].	c #242934",
"^.	c #352522",
"/.	c #493821",
"(.	c #1E232C",
"_.	c #3A2B24",
":.	c #5B3C1B",
"<.	c #613F1B",
"[.	c #352215",
"}.	c #251E1C",
"|.	c #161011",
"1.	c #221C1B",
"2.	c #151011",
"3.	c #110D0E",
"4.	c #2E2826",
"5.	c #120E0F",
"6.	c #52351A",
"7.	c #5B3C1C",
"8.	c #3E2F25",
"9.	c #2C292B",
"0.	c #4D3920",
"a.	c #4E341C",
"b.	c #4A2B1B",
"c.	c #6C4A1A",
"d.	c #413023",
"e.	c #1F222B",
"f.	c #29282A",
"g.	c #62421D",
"h.	c #342316",
"i.	c #120E0E",
"j.	c #150F10",
"k.	c #161111",
"l.	c #523719",
"m.	c #54381D",
"n.	c #26252A",
"o.	c #23252B",
"p.	c #493322",
"q.	c #73511C",
"r.	c #553617",
"s.	c #4A2A1A",
"t.	c #66451C",
"u.	c #62401A",
"v.	c #57381A",
"w.	c #3C2C21",
"x.	c #57391C",
"y.	c #281D18",
"z.	c #211B1A",
"A.	c #171112",
"B.	c #413736",
"C.	c #403635",
"D.	c #573818",
"E.	c #3A2D22",
"F.	c #342723",
"G.	c #5D3D19",
"H.	c #573619",
"I.	c #78571F",
"J.	c #543617",
"K.	c #4A2A1B",
"L.	c #6B491D",
"M.	c #583818",
"N.	c #5E3D1A",
"O.	c #5D3C18",
"P.	c #5F3D19",
"Q.	c #271E1B",
"R.	c #151111",
"S.	c #161211",
"T.	c #171212",
"U.	c #201A19",
"V.	c #322B29",
"W.	c #3E3433",
"X.	c #312A28",
"Y.	c #140E0F",
"Z.	c #5B3B18",
"`.	c #593A18",
" +	c #503019",
".+	c #5E3E19",
"++	c #50301A",
"@+	c #7C591F",
"#+	c #5A3D20",
"$+	c #4E2D1B",
"%+	c #714F1E",
"&+	c #563618",
"*+	c #5C3C1A",
"=+	c #614019",
"-+	c #613F19",
";+	c #403124",
">+	c #151010",
",+	c #322B28",
"'+	c #2E2926",
")+	c #120D0E",
"!+	c #181414",
"~+	c #2F2A27",
"{+	c #3D3433",
"]+	c #3F3534",
"^+	c #171313",
"/+	c #603F19",
"(+	c #5B3C19",
"_+	c #563519",
":+	c #5E3D19",
"<+	c #57371A",
"[+	c #76531F",
"}+	c #57391A",
"|+	c #67471D",
"1+	c #543418",
"2+	c #59381B",
"3+	c #5C3B19",
"4+	c #45342A",
"5+	c #342D2B",
"6+	c #3C3232",
"7+	c #3D3332",
"8+	c #130E0F",
"9+	c #1C1616",
"0+	c #1B1616",
"a+	c #171414",
"b+	c #322C28",
"c+	c #5F3F19",
"d+	c #5F3E1A",
"e+	c #583819",
"f+	c #67461D",
"g+	c #704F1A",
"h+	c #593918",
"i+	c #68461E",
"j+	c #533219",
"k+	c #603F17",
"l+	c #55351B",
"m+	c #362517",
"n+	c #423737",
"o+	c #110D0D",
"p+	c #150E10",
"q+	c #62421B",
"r+	c #61401A",
"s+	c #593819",
"t+	c #4F2F1C",
"u+	c #65441F",
"v+	c #6D4C18",
"w+	c #5A3C18",
"x+	c #4E2E1B",
"y+	c #69481E",
"z+	c #5B3A1C",
"A+	c #5D3C17",
"B+	c #5B3A19",
"C+	c #362515",
"D+	c #14100F",
"E+	c #5D411E",
"F+	c #62411B",
"G+	c #5D3C1C",
"H+	c #67461E",
"I+	c #6A4A1A",
"J+	c #593B17",
"K+	c #4F2F1A",
"L+	c #6C4B1E",
"M+	c #5E3E1C",
"N+	c #5F3F1B",
"O+	c #593A19",
"P+	c #382515",
"Q+	c #151214",
"R+	c #423837",
"S+	c #181213",
"T+	c #583C1C",
"U+	c #5D3D1B",
"V+	c #5C3C1B",
"W+	c #5B3A18",
"X+	c #563817",
"Y+	c #6C4A1E",
"Z+	c #5E3E1B",
"`+	c #5D3C1A",
" @	c #5F3E17",
".@	c #493420",
"+@	c #423122",
"@@	c #3E3534",
"#@	c #171312",
"$@	c #49321E",
"%@	c #5F401C",
"&@	c #573719",
"*@	c #5C3B18",
"=@	c #60401D",
"-@	c #523418",
";@	c #60401C",
">@	c #5B3B1A",
",@	c #5D3D16",
"'@	c #3B2B22",
")@	c #3D3024",
"!@	c #1A1415",
"~@	c #3B2B21",
"{@	c #573B1D",
"]@	c #5F3D1A",
"^@	c #5F3F1D",
"/@	c #543518",
"(@	c #4C2C1B",
"_@	c #66461A",
":@	c #63421B",
"<@	c #5B3A17",
"[@	c #4C3620",
"}@	c #47362B",
"|@	c #2F2927",
"1@	c #110F11",
"2@	c #161314",
"3@	c #332C2A",
"4@	c #1C1516",
"5@	c #3C2D20",
"6@	c #523C20",
"7@	c #543419",
"8@	c #60401B",
"9@	c #46271D",
"0@	c #69471B",
"a@	c #5A3A19",
"b@	c #603F1A",
"c@	c #382617",
"d@	c #131010",
"e@	c #342E2B",
"f@	c #3B3131",
"g@	c #191314",
"h@	c #1A1414",
"i@	c #201919",
"j@	c #4A341C",
"k@	c #5E3F1A",
"l@	c #593919",
"m@	c #52331C",
"n@	c #4B2C1A",
"o@	c #4C2D1C",
"p@	c #6B4A1B",
"q@	c #5A3919",
"r@	c #5F3E18",
"s@	c #63411A",
"t@	c #2C221C",
"u@	c #131012",
"v@	c #3A3130",
"w@	c #120C0D",
"x@	c #2E2825",
"y@	c #120F0F",
"z@	c #54371B",
"A@	c #5D3D18",
"B@	c #523221",
"C@	c #65441C",
"D@	c #56371B",
"E@	c #54341C",
"F@	c #563617",
"G@	c #4E2F1B",
"H@	c #6A481A",
"I@	c #5A3917",
"J@	c #583718",
"K@	c #563B1B",
"L@	c #64431B",
"M@	c #271E19",
"N@	c #54361A",
"O@	c #5B3B1C",
"P@	c #66451D",
"Q@	c #5E3E1A",
"R@	c #56361A",
"S@	c #553616",
"T@	c #4B2B1C",
"U@	c #5E401A",
"V@	c #3D2C22",
"W@	c #252529",
"X@	c #1D232B",
"Y@	c #57391E",
"Z@	c #332924",
"`@	c #181212",
" #	c #3F3635",
".#	c #513119",
"+#	c #412E20",
"@#	c #4D3721",
"##	c #5B3E1A",
"$#	c #5C3F1C",
"%#	c #573716",
"&#	c #41271F",
"*#	c #312B25",
"=#	c #1C222B",
"-#	c #362C25",
";#	c #5C401A",
">#	c #56351D",
",#	c #352B25",
"'#	c #231B1A",
")#	c #423736",
"!#	c #533319",
"~#	c #442D20",
"{#	c #25232B",
"]#	c #1C222D",
"^#	c #2C272A",
"/#	c #373229",
"(#	c #3C2B20",
"_#	c #3B2721",
":#	c #453520",
"<#	c #4A3620",
"[#	c #5A3B19",
"}#	c #614118",
"|#	c #59381A",
"1#	c #332A26",
"2#	c #0E0C0E",
"3#	c #423836",
"4#	c #55371A",
"5#	c #51321B",
"6#	c #573B1B",
"7#	c #433222",
"8#	c #302C2A",
"9#	c #1A212D",
"0#	c #4D2F1C",
"a#	c #634117",
"b#	c #563619",
"c#	c #68461A",
"d#	c #5B3A1A",
"e#	c #140E10",
"f#	c #4B301C",
"g#	c #5D3D1A",
"h#	c #57381B",
"i#	c #492F1E",
"j#	c #352922",
"k#	c #63421A",
"l#	c #634119",
"m#	c #65441B",
"n#	c #0E0C0F",
"o#	c #140F10",
"p#	c #181413",
"q#	c #4A301C",
"r#	c #5E3D1B",
"s#	c #5F3E1C",
"t#	c #593915",
"u#	c #482A1C",
"v#	c #6B4A1A",
"w#	c #5F3D18",
"x#	c #5C3B1B",
"y#	c #49372C",
"z#	c #3D3333",
"A#	c #4C321B",
"B#	c #5C3C18",
"C#	c #5D3F19",
"D#	c #5A3B18",
"E#	c #5C3C15",
"F#	c #4B2C1D",
"G#	c #6F4E1B",
"H#	c #5E3D17",
"I#	c #5E3D16",
"J#	c #4E3527",
"K#	c #3C3332",
"L#	c #120C0E",
"M#	c #27201E",
"N#	c #342D2A",
"O#	c #4A2F17",
"P#	c #5E3D18",
"Q#	c #54341B",
"R#	c #5F3F16",
"S#	c #4D2E1B",
"T#	c #6A4819",
"U#	c #533318",
"V#	c #49321F",
"W#	c #171415",
"X#	c #191110",
"Y#	c #4C3016",
"Z#	c #4A2B1F",
"`#	c #5E4017",
" $	c #5D3C16",
".$	c #3E2B24",
"+$	c #1D1717",
"@$	c #0B0A0A",
"#$	c #0C0C0C",
"$$	c #131112",
"%$	c #221C1A",
"&$	c #0B0B0B",
"*$	c #3B241D",
"=$	c #5E3D1C",
"-$	c #634219",
";$	c #583A1A",
">$	c #5D3E17",
",$	c #563518",
"'$	c #583716",
")$	c #311E0D",
"!$	c #1E1A1A",
"~$	c #1C1717",
"{$	c #0A0A0A",
"]$	c #181313",
"^$	c #0B0A0B",
"/$	c #171413",
"($	c #392517",
"_$	c #563819",
":$	c #55361B",
"<$	c #563717",
"[$	c #593816",
"}$	c #0D0C0C",
"|$	c #1E120C",
"1$	c #563719",
".   + @ # # #     + $ # #     % & # # # # #   % # # * @ # #   = ",
"- ; > , ' ' ) ! ! ~ ' ' ' { * ] ^ ' / / ' ' ( ] / _ : , ' < [ } ",
"| 1 2 3 / / 4 5 : _ / 6 7 8 ] : _ _ 9 0 _ : 4 4 a b 0 _ c d e f ",
"g h i j k _ l m n 4 o p q r n a : s t ] a 5 n r u t 5 v w x y z ",
"A B C D E F G H H ] : 9 I J I 5 : 4 I K ] L H M N O P Q R S T U ",
"V W X Y Z `  ...+.@.4 #.O $.%.L @.&.I ..*.=.-.;.>.,.'.).!.~.{.].",
"^./.(._.:.<.[.$.%.}.5 %.|.|.$.$.+.1.O 2.3.4.#.#.5.6.B 7.8.9.0.a.",
"b.c.d.e.f.g.h.>.$.J %.|.|.|.i.#.#.j.|.k.H H #.5 #.l.m.n.o.p.q.r.",
"s.t.u.v.w.x.y.z.=.>.A.I |.>.I 5 5 #.-.H H H #.B.C.D.E.F.G.H.I.J.",
"K.L.M.N.O.P.Q.$.#.R.S.T.5.U.+.V.B.W.i.H +.X.B.C.Y.Z.`. +.+++@+#+",
"$+%+&+*+=+-+;+A.>+5 ,+'+N 3.V.B.W.)+J !+~+{+]+2.^+/+(+_+:+<+[+}+",
"g |+1+2+/+3+4+>+H G 5+X.j.N 6+7+8+9+0+a+=.Y.8+R.b+c+d+e+2+f+g+h+",
"1 i+j+N.k+l+m+>.H ] n+{+o+|.p+o+>.] 5 #.H A.>.H 5 q+r+s+t+u+v+w+",
"x+y+z+C A+B+C+$.5 C.B.W.Y.|.>.I ~+5 5 n >.I D+H L E+F+G+M.H+I+J+",
"K+L+M+N+A+O+P+>.Q+R+]+S+|.>.I H +.] W.|.j.>.$.H H T+U+V+W+H+g.X+",
"1 Y+Z+`+ @.@+@A.|.R.R.|.>.I H #.5 B.@@#@5 5 S+J H $@%@&@*@H+=@-@",
"x+|+;@>@,@'@)@A.=.5 n |.|.N n C.C.Y.>+G 5 C.!@|.5 ~@{@x ]@^@N+/@",
"(@_@:@<+<@[@}@R.H L ] |@j.|.j.1@1@|.2@3@B.4@|.S+T.5@6@7@S U+8@/@",
"9@0@F+a@ @b@c@J d@e@B.f@Y.#@g@5 5 h@i@N Y.>+T.5 5 j@k@z+Z+l@m@n@",
"o@p@*@q@r@s@t@|.u@W.v@w@>+x@5 5 5 #.i.|.y@I n 5 5 z@A@B@C@D@E@F@",
"G@H@I@J@K@L@M@j.|.Y.Y.k.H I 5 5 5 ~+j.|.i.I I #.5 N@*@O@P@Q@R@S@",
"T@U@V@W@X@Y@Z@n i.I 2.k.H H +.#.C.@@Y.`@I I 4. #C..#+#_.@###$#%#",
"&#*#=#-#;#>#,#5 ~+j.2.u@'#I n C.B.C.8+u@H 4. #)#h@!#~#{#]#^#/#(#",
"_#:#<#[#}#|#1#5 5 ~+j.2.N '+C.B.C.J |.2.2#W.3#g@|.4#B 5#6#7#8#9#",
"0#a#=+b#c#d#_.5 5 #.-.I |.2#]+C.C.e#>+m A.A.A.|.>.f#g#h#a@<+i#j#",
"x+k#l#<+m#W+d.] ] 5 j.=.S.S+N n#o#=.p#] 5 5 ] g@-.q#r#s#&@Z+l@t#",
"u#v#w#R@m#x#y#B.B.z#>.G #.] 9+|.>.H L #.5 5 5 ,+|.A#N.G+B#C#D#E#",
"F#G#H#&@I#J#B.B.K#L#>+I L ] e@A.k.H H M#N#N#N#4.2.O#P#Q#*@r@h+R#",
"S#T#*@U#V#C.B.R+Y.>.>.W#] C.R+R.H H +.N#)#B.R+A.>.X#Y#Z#d+:@`.`#",
"K+ $I@.$C.B.R++$>.>.@$#$$$]+R+u@H %$5 C.B.B.R+k.&$>.=.*$=$-$;$>$",
",$'$)$!$R+R+~$&$@$@$    {$#@]$^$u@] B.)#)#R+/$@$  @$% >+($_$:$<$",
"[$    @$}$}${$            {${$  {$+ }$}$}$}$          {${$|$n@1$"};
