/* XPM */
static char * N_enemi_xpm[] = {
"32 32 260 2",
"  	c None",
". 	c #0C0C0B",
"+ 	c #0E0D0D",
"@ 	c #0F0F0E",
"# 	c #100F0E",
"$ 	c #403F3F",
"% 	c #424242",
"& 	c #1D1D1D",
"* 	c #0C0B0B",
"= 	c #0D0D0C",
"- 	c #121010",
"; 	c #352F2C",
"> 	c #47423E",
", 	c #56534D",
"' 	c #56524C",
") 	c #131211",
"! 	c #37322E",
"~ 	c #82817E",
"{ 	c #74726E",
"] 	c #FFFFFF",
"^ 	c #AEADAC",
"/ 	c #8D8C89",
"( 	c #55524C",
"_ 	c #191817",
": 	c #322C29",
"< 	c #54514B",
"[ 	c #423D39",
"} 	c #1A1917",
"| 	c #433F3A",
"1 	c #413C38",
"2 	c #312B28",
"3 	c #878683",
"4 	c #F8F8F8",
"5 	c #CCCCCC",
"6 	c #FFEBCE",
"7 	c #A2A1A0",
"8 	c #403B37",
"9 	c #3F3A36",
"0 	c #433E3A",
"a 	c #423E39",
"b 	c #0B0B0B",
"c 	c #231C1B",
"d 	c #332D2A",
"e 	c #45403C",
"f 	c #261F1E",
"g 	c #211A1A",
"h 	c #2F2926",
"i 	c #D2D2D1",
"j 	c #FFFFF3",
"k 	c #E8A08D",
"l 	c #FFC89B",
"m 	c #342F2C",
"n 	c #2D2825",
"o 	c #2D2725",
"p 	c #201918",
"q 	c #54504B",
"r 	c #332E2B",
"s 	c #241D1B",
"t 	c #342E2B",
"u 	c #46413D",
"v 	c #251E1D",
"w 	c #221B1A",
"x 	c #969594",
"y 	c #FEFEFE",
"z 	c #CAC9C9",
"A 	c #241D1C",
"B 	c #0F0D10",
"C 	c #0F0D0F",
"D 	c #110F10",
"E 	c #27201F",
"F 	c #0B0A0A",
"G 	c #1A1617",
"H 	c #36312D",
"I 	c #36302D",
"J 	c #151213",
"K 	c #121011",
"L 	c #878685",
"M 	c #E6E6E6",
"N 	c #141010",
"O 	c #1B1614",
"P 	c #110E0E",
"Q 	c #130F0F",
"R 	c #100E10",
"S 	c #151112",
"T 	c #251E1C",
"U 	c #26201E",
"V 	c #191213",
"W 	c #0A0A0A",
"X 	c #131011",
"Y 	c #181515",
"Z 	c #533630",
"` 	c #AA7162",
" .	c #CEBEA6",
"..	c #302A27",
"+.	c #120E0E",
"@.	c #312A28",
"#.	c #0D0C0C",
"$.	c #110E10",
"%.	c #110F11",
"&.	c #151011",
"*.	c #161011",
"=.	c #CDA07C",
"-.	c #150F10",
";.	c #151010",
">.	c #140F0F",
",.	c #171112",
"'.	c #211B1A",
").	c #3E2820",
"!.	c #BE8273",
"~.	c #413736",
"{.	c #403635",
"].	c #1A1515",
"^.	c #3C2F2A",
"/.	c #6D4737",
"(.	c #999999",
"_.	c #A46D5E",
":.	c #4F3830",
"<.	c #140E0F",
"[.	c #171312",
"}.	c #332C2A",
"|.	c #191314",
"1.	c #120F0F",
"2.	c #322B28",
"3.	c #342D2A",
"4.	c #32211F",
"5.	c #5E0F0E",
"6.	c #3D3433",
"7.	c #403534",
"8.	c #171313",
"9.	c #161211",
"0.	c #120E0F",
"a.	c #161314",
"b.	c #2E2826",
"c.	c #3E3433",
"d.	c #ABAAAA",
"e.	c #7C513F",
"f.	c #E7E7DC",
"g.	c #130E0F",
"h.	c #151111",
"i.	c #322C28",
"j.	c #1B1515",
"k.	c #0B0A0D",
"l.	c #3F3635",
"m.	c #ADACAB",
"n.	c #E7E7E7",
"o.	c #110D0E",
"p.	c #1C1516",
"q.	c #532726",
"r.	c #330000",
"s.	c #660000",
"t.	c #8B0303",
"u.	c #211A19",
"v.	c #14100F",
"w.	c #312C28",
"x.	c #171212",
"y.	c #181212",
"z.	c #150F0F",
"A.	c #450C0D",
"B.	c #990000",
"C.	c #CC0000",
"D.	c #860404",
"E.	c #250D0F",
"F.	c #181213",
"G.	c #211011",
"H.	c #650C0D",
"I.	c #1A1415",
"J.	c #8B0505",
"K.	c #3B0F0F",
"L.	c #1D1617",
"M.	c #0B0B0A",
"N.	c #352E2B",
"O.	c #423736",
"P.	c #1F1010",
"Q.	c #340F10",
"R.	c #141113",
"S.	c #3B3231",
"T.	c #130D0E",
"U.	c #322B29",
"V.	c #423837",
"W.	c #3F3534",
"X.	c #1A1314",
"Y.	c #1D0D0F",
"Z.	c #412623",
"`.	c #191313",
" +	c #140F10",
".+	c #181313",
"++	c #11100F",
"@+	c #171415",
"#+	c #201A19",
"$+	c #200F10",
"%+	c #491F1D",
"&+	c #1B1615",
"*+	c #140E10",
"=+	c #2D0E0F",
"-+	c #650000",
";+	c #4B1110",
">+	c #231C1A",
",+	c #110D0D",
"'+	c #290C0C",
")+	c #5F0505",
"!+	c #5C0807",
"~+	c #201A1A",
"{+	c #191514",
"]+	c #302B28",
"^+	c #2F2A27",
"/+	c #230A0B",
"(+	c #C40303",
"_+	c #5D211F",
":+	c #1A1414",
"<+	c #311F1D",
"[+	c #333333",
"}+	c #811E1D",
"|+	c #423836",
"1+	c #161111",
"2+	c #302927",
"3+	c #4B1F1D",
"4+	c #666666",
"5+	c #7A0708",
"6+	c #4B201E",
"7+	c #7D1917",
"8+	c #502727",
"9+	c #332C29",
"0+	c #3C3332",
"a+	c #420809",
"b+	c #8B5D51",
"c+	c #120F10",
"d+	c #362F2D",
"e+	c #423737",
"f+	c #231B1A",
"g+	c #302B27",
"h+	c #232021",
"i+	c #828282",
"j+	c #CFCEC5",
"k+	c #191516",
"l+	c #433837",
"m+	c #171414",
"n+	c #1D1717",
"o+	c #1E1C1C",
"p+	c #CBCBCB",
"q+	c #62453B",
"r+	c #5A5A5A",
"s+	c #302F2E",
"t+	c #838181",
"u+	c #251E1E",
"v+	c #1E1A1A",
"w+	c #1C1717",
"x+	c #0C0A0A",
"y+	c #262626",
"z+	c #1D1A19",
"A+	c #201D1D",
"B+	c #2B2B2B",
"C+	c #131012",
"D+	c #333232",
"E+	c #353333",
"F+	c #413636",
"G+	c #171413",
"H+	c #1B1415",
"I+	c #111010",
"J+	c #110B0B",
"K+	c #100F0F",
"    . + @ @ @     . # @ @     $ % & @ @ @ @   * @ @ = + @ @     ",
"  - ; > , , ' ) ) ! , ~ { ] ] ] ] ^ / ( , , _ : ( < [ > , , }   ",
"* : | < ( ( 1 2 [ < 3 4 5 6 6 6 6 ] ] 7 < [ 1 1 8 9 0 < ( a [ = ",
"b c d e ( < f g h 1 i ] j k l l l 6 ] ] 8 m h n o p 2 0 q r n * ",
"b s t u , e v w w x 4 ] 6 6 j j j 6 ] y z A w B C D A t 0 E F   ",
"  + G H e I J K c L j ] l j j j j j 6 ] M N O P Q R S T U V F   ",
"  W X f d Y Q R Z ` 5 l 6 j j j j j j ] 5  .....+.Q R Y 2 @.#.  ",
"  W R $.%.&.*.Q Z k k l 6 j j j j j j l 6 =...2 ..-.;.T 2 2 2 * ",
"  F Q >.N ,.R '.).` k 6 6 6 j j j ] 6 k l !...~.{.+.w v 2 {.~.#.",
"W Q ;.v 2 : ].R ^./.(.6 6 j 6 6 6 6 j 5 _.:.~.{.<.R [.}.{.{.|.W ",
"W 1.K '.c 2.3.,.;.4.` k l j l j j l l ` 5.6.7.&.8.8.J 9.<.<.-.W ",
"  W 0.a.b.{.c.;.w d.(.e.5 ] j 6 ] 5 k e.f.<.g.h.i.2 2.h j.,.F   ",
"    F Q k.l.|.Q w m.5 j ] ] j 6 ] ] ] 5 n.,.Q w 2 2 2 2 : |.W   ",
"    F +.o.p.*.R 2 q.r.6 ] e.k k ` j ] s.t.u.v.w A w.2 2 2 ..x.W ",
"  F [.......y.z.A.B.C.j j r.` ` s.5 ] B.C.D.E.w w A 2 2 2 2 F.W ",
"  * A 2 2 2 2 G.s.C.C.5 C.B.s.s.B.C.5 C.C.C.H.$.w : ~.~.~.~.I.W ",
"b w w v : 2 : G.s.C.B.C.C.C.B.C.C.C.C.B.C.C.J.K.2 ~.~.~.~.L.F   ",
"M.w v N.O.~.{.P.s.C.B.B.C.C.B.C.C.C.B.C.C.C.B.Q.x.R.{.S.T.*     ",
"W K U.V.~.W.X.Y.s.C.C.s.C.C.B.B.C.C.C.C.C.B.s.Z.2 `.<. +8..+++  ",
"  W @+6.c.I.#+$+s.B.C.B.B.s.s.s.B.B.B.B.B.s.%+2 2 .. +&+..2 t . ",
"  F Q o.*++. +-.=+s.B.C.C.e.` k ` s.B.B.-+;+u...2 ..R >+u.h V.#.",
"    * *.,+o h h '+)+s.B.s.e.k ` ` e.s.s.!+u.b.l.{.`.#+Y ..{.~+F ",
"  F Q {+]+2 2 2 ^+/+s.s.B.e.e.e.` B.s.C.(+_+l.O.:+*.Q Q y.I.*   ",
"  F ;.w w ..2 2 2 <+B.B.B.[+[+e.C.C.C.C.C.}+|+|.*.1+2 2 2 :+F   ",
"W ;.w w w 2+2 2 2 3+B.C.B.s.4+(.B.C.C.C.B.5+,.*.Q c 2 2 2 : #   ",
"b w w w w w 2 : : 6+B.C.C.B.e.4+B.C.C.5 B.7+: |.>.'.w A 2 : }.. ",
"M.u.w w c 2 ~.~.~.8+B.C.C.B.e.4+s.B.(.4+5 7+2 2.*.D w U 9+{.V.#.",
"W R w T 2 {.~.~.0+a+e.` e.B.e.4+s.4+4+(.(.b+3.b.&.c+c d+e+~.O.#.",
"  * f+A g+{.~.V.h+i+(.j (.s.e.4+e.(.(.j ] j+V.,.Q Q k+l+~.~.V.#.",
"  F m+}.{.~.V.n+o+4+p+5 (.[+q+r+s+4+(.j 5 t+V.1+b Q N u+V.V.g F ",
"    b v+V.V.w+b x+y+4+4+[+z+A+B+C+D+4+4+E+F+G+F   F * ;.H+H+*   ",
"      F #.#.W             W b   W @ I+J+K+#.          W W W     "};
