/* XPM */
static char * P_player_side_1_left_xpm[] = {
"32 32 334 2",
"  	c None",
". 	c #0F0F0E",
"+ 	c #0E0D0D",
"@ 	c #0D0D0C",
"# 	c #0C0B0B",
"$ 	c #0D0D0D",
"% 	c #100F0E",
"& 	c #0C0C0B",
"* 	c #1A1917",
"= 	c #56534D",
"- 	c #47423E",
"; 	c #423D39",
"> 	c #54514B",
", 	c #55524C",
"' 	c #322C29",
") 	c #191817",
"! 	c #433E3A",
"~ 	c #1F1E1C",
"{ 	c #37322E",
"] 	c #131211",
"^ 	c #56524C",
"/ 	c #352F2C",
"( 	c #121010",
"_ 	c #423E39",
": 	c #3F3A36",
"< 	c #403B37",
"[ 	c #413C38",
"} 	c #3F3936",
"| 	c #42403C",
"1 	c #272727",
"2 	c #282828",
"3 	c #2C2927",
"4 	c #423C38",
"5 	c #403A37",
"6 	c #524F49",
"7 	c #312B28",
"8 	c #433F3A",
"9 	c #2D2825",
"0 	c #332E2B",
"a 	c #54504B",
"b 	c #201918",
"c 	c #2D2725",
"d 	c #2F2926",
"e 	c #35302D",
"f 	c #424040",
"g 	c #161616",
"h 	c #010101",
"i 	c #010100",
"j 	c #000000",
"k 	c #3D3B3A",
"l 	c #524F4E",
"m 	c #524E4A",
"n 	c #53504A",
"o 	c #211A1A",
"p 	c #261F1E",
"q 	c #45403C",
"r 	c #332D2A",
"s 	c #231C1B",
"t 	c #0B0B0B",
"u 	c #0B0A0A",
"v 	c #27201F",
"w 	c #342E2B",
"x 	c #241D1C",
"y 	c #110F10",
"z 	c #0F0D0F",
"A 	c #0F0D10",
"B 	c #221B1A",
"C 	c #342F2F",
"D 	c #747272",
"E 	c #999898",
"F 	c #9C9C9C",
"G 	c #0C0C0C",
"H 	c #9A9A9A",
"I 	c #C2C2C2",
"J 	c #848382",
"K 	c #5F5D5B",
"L 	c #36312E",
"M 	c #251E1D",
"N 	c #46413D",
"O 	c #241D1B",
"P 	c #191213",
"Q 	c #26201E",
"R 	c #251E1C",
"S 	c #151112",
"T 	c #100E10",
"U 	c #130F0F",
"V 	c #110E0E",
"W 	c #140F0F",
"X 	c #A1A1A1",
"Y 	c #E4E4E4",
"Z 	c #F6F6F6",
"` 	c #E9E9E9",
" .	c #8F8F8F",
"..	c #6A6A6A",
"+.	c #5E5E5E",
"@.	c #E6E6E6",
"#.	c #FFFFFF",
"$.	c #D9D9D9",
"%.	c #B6B6B6",
"&.	c #7B7A7A",
"*.	c #121011",
"=.	c #151213",
"-.	c #36302D",
";.	c #36312D",
">.	c #1A1617",
",.	c #0D0C0C",
"'.	c #312A28",
").	c #181515",
"!.	c #120E0E",
"~.	c #433F3D",
"{.	c #A9A8A8",
"].	c #EFEFEF",
"^.	c #FCFCFC",
"/.	c #C9C9C9",
"(.	c #E0E0E0",
"_.	c #949494",
":.	c #E5E5E5",
"<.	c #FEFEFE",
"[.	c #F4F4F4",
"}.	c #C0C0C0",
"|.	c #7D7C7D",
"1.	c #222122",
"2.	c #131011",
"3.	c #0A0A0A",
"4.	c #151010",
"5.	c #150F10",
"6.	c #302A27",
"7.	c #53504E",
"8.	c #DFDFDF",
"9.	c #929292",
"0.	c #8D8D8D",
"a.	c #F5F5F5",
"b.	c #AEAEAE",
"c.	c #393838",
"d.	c #161011",
"e.	c #151011",
"f.	c #110F11",
"g.	c #110E10",
"h.	c #413736",
"i.	c #403635",
"j.	c #514A49",
"k.	c #B8B7B7",
"l.	c #AAAAAA",
"m.	c #818181",
"n.	c #ECECEC",
"o.	c #383534",
"p.	c #171112",
"q.	c #141010",
"r.	c #191314",
"s.	c #332C2A",
"t.	c #171312",
"u.	c #4F4D4E",
"v.	c #E1E1E1",
"w.	c #EAEAEA",
"x.	c #989898",
"y.	c #292626",
"z.	c #140E0F",
"A.	c #161211",
"B.	c #171313",
"C.	c #424141",
"D.	c #C8C8C8",
"E.	c #F9F9F9",
"F.	c #909090",
"G.	c #4C4C4C",
"H.	c #B1B1B1",
"I.	c #433E3C",
"J.	c #322B28",
"K.	c #211B1A",
"L.	c #120F0F",
"M.	c #1B1515",
"N.	c #7D7D7D",
"O.	c #F3F3F3",
"P.	c #3E3433",
"Q.	c #2E2826",
"R.	c #161314",
"S.	c #120E0F",
"T.	c #2E2926",
"U.	c #636363",
"V.	c #D7D7D7",
"W.	c #9F9F9F",
"X.	c #453D3D",
"Y.	c #0B0A0D",
"Z.	c #171212",
"`.	c #312C28",
" +	c #656565",
".+	c #DEDEDE",
"++	c #A9A9A9",
"@+	c #2C2829",
"#+	c #110D0E",
"$+	c #181213",
"%+	c #4F4D4D",
"&+	c #A4A4A4",
"*+	c #323232",
"=+	c #454545",
"-+	c #1E1E1E",
";+	c #B7B7B7",
">+	c #F0F0F0",
",+	c #D6D6D6",
"'+	c #393533",
")+	c #1A1415",
"!+	c #120F11",
"~+	c #101010",
"{+	c #141414",
"]+	c #252525",
"^+	c #DDDDDD",
"/+	c #F7F7F7",
"(+	c #A5A5A5",
"_+	c #373230",
":+	c #1D1617",
"<+	c #020202",
"[+	c #979797",
"}+	c #A0A0A0",
"|+	c #FBFBFB",
"1+	c #A8A8A8",
"2+	c #130D0E",
"3+	c #3B3231",
"4+	c #141113",
"5+	c #151111",
"6+	c #060606",
"7+	c #030303",
"8+	c #DCDCDC",
"9+	c #443A39",
"0+	c #352E2B",
"a+	c #0B0B0A",
"b+	c #11100F",
"c+	c #181313",
"d+	c #140F10",
"e+	c #1F1A1A",
"f+	c #5D5B5A",
"g+	c #565656",
"h+	c #2A2A2A",
"i+	c #626262",
"j+	c #717171",
"k+	c #555555",
"l+	c #EEEEEE",
"m+	c #433A39",
"n+	c #423837",
"o+	c #322B29",
"p+	c #1B1615",
"q+	c #4D4948",
"r+	c #404040",
"s+	c #606060",
"t+	c #3A3A3A",
"u+	c #403736",
"v+	c #3D3433",
"w+	c #171415",
"x+	c #211A19",
"y+	c #231C1A",
"z+	c #4C4948",
"A+	c #B4B4B4",
"B+	c #484848",
"C+	c #545454",
"D+	c #6D6D6D",
"E+	c #AFAFAF",
"F+	c #A7A7A7",
"G+	c #F1F1F1",
"H+	c #FAFAFA",
"I+	c #D0D0D0",
"J+	c #CDCDCD",
"K+	c #191516",
"L+	c #201A1A",
"M+	c #201A19",
"N+	c #373535",
"O+	c #BEBEBE",
"P+	c #FDFDFD",
"Q+	c #E3E3E3",
"R+	c #CACACA",
"S+	c #C5C5C5",
"T+	c #C7C7C7",
"U+	c #B8B8B8",
"V+	c #898989",
"W+	c #878787",
"X+	c #7E7E7E",
"Y+	c #B5B5B5",
"Z+	c #B2B2B2",
"`+	c #8B8B8A",
" @	c #110D0D",
".@	c #181212",
"+@	c #202020",
"@@	c #EBEBEB",
"#@	c #BDBDBD",
"$@	c #4F4F4F",
"%@	c #7B7B7B",
"&@	c #3B3A39",
"*@	c #302B28",
"=@	c #191514",
"-@	c #1A1414",
";@	c #1F1F1F",
">@	c #888888",
",@	c #E8E8E8",
"'@	c #6F6F6F",
")@	c #1B1B1B",
"!@	c #050505",
"~@	c #868686",
"{@	c #DADADA",
"]@	c #ADADAD",
"^@	c #302927",
"/@	c #0C0909",
"(@	c #676767",
"_@	c #5F5F5F",
":@	c #2B2826",
"<@	c #332C29",
"[@	c #251F1D",
"}@	c #120F0D",
"|@	c #2F2C2C",
"1@	c #292929",
"2@	c #423736",
"3@	c #423737",
"4@	c #362F2D",
"5@	c #120F10",
"6@	c #2C2624",
"7@	c #2D2724",
"8@	c #272120",
"9@	c #282423",
"0@	c #0A0707",
"a@	c #372F2E",
"b@	c #433837",
"c@	c #342D2A",
"d@	c #090606",
"e@	c #0D0A0A",
"f@	c #302B27",
"g@	c #231B1A",
"h@	c #251E1E",
"i@	c #161111",
"j@	c #221C1A",
"k@	c #111010",
"l@	c #1D1717",
"m@	c #171414",
"n@	c #1B1415",
"o@	c #171413",
"p@	c #131012",
"q@	c #0B0A0B",
"r@	c #1C1717",
"s@	c #1E1A1A",
"    . . + @ . . #   . . . . . $ #     . . % &     . . . + &     ",
"  * = = - ; > , ' ) = = , , , ! ' . ~ = = = { ] ] ^ = = - / (   ",
"@ ; _ , > ! : < [ [ ; > ! } | 1 2 3 4 5 6 , > ; 7 [ , , > 8 ' # ",
"# 9 0 a ! 7 b c 9 d 7 < e f g h i j k l m n [ d o p > , q r s t ",
"  u v ! w x y z A B C D E F h j G j H I J K L B B M q = N w O t ",
"  u P Q R S T U V W X Y Z `  ...j +.@.#.$.%.&.s *.=.-.q ;.>.+   ",
"  ,.'.7 ).T U !.~.{.].^./.@.#.(._.:.#.<.#.[.}.|.1.U ).r p 2.3.  ",
"# 7 7 7 R 4.5.6.7.8.<.9.j 0.^.#.#.#.#.#.#.#.a.b.c.d.e.f.g.T 3.  ",
",.h.i.7 M B !.j.k.@.%.l.j m.n.#.#.#.#.#.#.#.#./.o.T p.q.W U u   ",
"3.r.i.i.s.t.T u.v.w.j X j 9.<.#.#.#.#.#.#.#.#.Z x.y.' 7 M 4.U 3.",
"3.5.z.z.A.=.B.C.D.E.F.j G.$.#.#.#.#.#.#.#.#.#.#.H.I.J.s K.*.L.3.",
"  u p.M.d J.7 d N.#.O.(.` ^.#.#.#.#.#.#.#.#.#.#.b.P.i.Q.R.S.3.  ",
"  3.r.' 7 7 7 T.U.#.#.#.#.#.#.#.#.#.#.#.#.#.#.#.V.W.X.Y.U u     ",
"3.Z.6.7 7 7 `.B  +#.#.#.#.#.#.<.#.#.#.#.#.#.#.#..+++@+#+!.u     ",
"3.$+7 7 7 7 x B %+&+*+=+=+-+;+#.>+,+O.#.#.#.#.#.8.l.'+6.6.t.u   ",
"3.)+h.h.h.h.' B !+~+j j j j {+]+j l.^+,+/+#.#.#.H.(+_+7 7 x #   ",
"  u :+h.h.h.h.T.j j j j j j j j <+j j j j j [+}+|+^+1+e M B B t ",
"    # 2+3+i.4+5+j h j j j j j j j 6+7+j *+*+].#.#.8+1+9+0+M B a+",
"  b+c+B.d+z.e+f+g+j h j j j j 7+j h+i+j+k+l+#.#.#.8+1+m+n+o+*.3.",
"& w 7 6.p+d+q+^+E.j j j j j j r+s+t+8+#.#.#.#.#.^.8+1+u+v+w+3.  ",
",.n+d x+y+T z+.+^.A+U. +B+C+D+x.E+F+$.G+Z E.E.H+I+J+[+K+#+U u   ",
"u L+i.6.).M+N+O+P+E.w.Q+R+S+T+U+V+ .W+X+1+Y+Z+/.F.`+c  @d.#     ",
"  # )+.@U U 5.+@V.@@#.#.#.H+#@$@j j j j j j j %@&@7 7 *@=@U u   ",
"  u -@7 7 7 4.;@>@$.|+#.#.,@'@j j j j j j j )@!@6.7 6.B B 4.u   ",
"  % ' 7 7 7 B j j ~@I+{@^+]@j 6+j j j j j j j 1 *@7 ^@B B B 4.3.",
"& s.' 7 x B K./@j {+(@_@ +k+j h j j j j j j j :@' 7 B B B B B t ",
",.n+i.<@Q B y d.[@j j j }@|@1@j j j j j j j j v+h.h.7 s B B x+a+",
",.2@h.3@4@s 5@e.Q.6@7@7@O 8@9@0@j j j j j j j a@h.h.i.7 R B T 3.",
",.n+h.h.b@K+U U p.n+h.2@c@s B B d@j j j j e@ @z.n+h.i.f@x g@#   ",
"u o n+n+h@q.U t i@n+h.h.i.7 j@B !+P.3+k@t u U U l@n+h.i.s.m@u   ",
"  # n@n@4.# u   u o@n+2@2@h.' p@q@c+t.3.    u u t r@n+n+s@t     ",
"    3.3.3.          ,.,.,.,.& 3.  3.3.            3.,.,.u       "};
