/* XPM */
static char * P_player_side_2_left_xpm[] = {
"32 32 343 2",
"  	c None",
". 	c #0F0F0E",
"+ 	c #0E0D0D",
"@ 	c #0D0D0C",
"# 	c #0C0B0B",
"$ 	c #0D0D0D",
"% 	c #100F0E",
"& 	c #0C0C0B",
"* 	c #1A1917",
"= 	c #56534D",
"- 	c #47423E",
"; 	c #423D39",
"> 	c #54514B",
", 	c #55524C",
"' 	c #322C29",
") 	c #191817",
"! 	c #54514C",
"~ 	c #433E3A",
"{ 	c #1F1E1C",
"] 	c #37322E",
"^ 	c #131211",
"/ 	c #56524C",
"( 	c #352F2C",
"_ 	c #121010",
": 	c #423E39",
"< 	c #3F3A36",
"[ 	c #403B37",
"} 	c #413C38",
"| 	c #363230",
"1 	c #272727",
"2 	c #282828",
"3 	c #34312F",
"4 	c #423C38",
"5 	c #403A37",
"6 	c #524F49",
"7 	c #312B28",
"8 	c #433F3A",
"9 	c #2D2825",
"0 	c #332E2B",
"a 	c #54504B",
"b 	c #201918",
"c 	c #2D2725",
"d 	c #2F2926",
"e 	c #484645",
"f 	c #181818",
"g 	c #010101",
"h 	c #000000",
"i 	c #3B3938",
"j 	c #514F4E",
"k 	c #373231",
"l 	c #4F4B46",
"m 	c #53504A",
"n 	c #211A1A",
"o 	c #261F1E",
"p 	c #45403C",
"q 	c #332D2A",
"r 	c #231C1B",
"s 	c #0B0B0B",
"t 	c #0B0A0A",
"u 	c #27201F",
"v 	c #342E2B",
"w 	c #241D1C",
"x 	c #110F10",
"y 	c #0F0D0F",
"z 	c #0F0D10",
"A 	c #221B1A",
"B 	c #2C2726",
"C 	c #979696",
"D 	c #A1A1A1",
"E 	c #0C0C0C",
"F 	c #949494",
"G 	c #C3C3C3",
"H 	c #858585",
"I 	c #5C5958",
"J 	c #46423E",
"K 	c #251E1D",
"L 	c #46413D",
"M 	c #241D1B",
"N 	c #191213",
"O 	c #26201E",
"P 	c #251E1C",
"Q 	c #151112",
"R 	c #100E10",
"S 	c #130F0F",
"T 	c #110E0E",
"U 	c #140F0F",
"V 	c #A0A0A0",
"W 	c #F0F0F0",
"X 	c #6F6F6F",
"Y 	c #575757",
"Z 	c #E1E1E1",
"` 	c #FFFFFF",
" .	c #DCDCDC",
"..	c #B6B6B6",
"+.	c #828180",
"@.	c #121011",
"#.	c #151213",
"$.	c #36302D",
"%.	c #36312D",
"&.	c #1A1617",
"*.	c #0D0C0C",
"=.	c #312A28",
"-.	c #181515",
";.	c #120E0E",
">.	c #302A27",
",.	c #A7A6A6",
"'.	c #EFEFEF",
").	c #FBFBFB",
"!.	c #CACACA",
"~.	c #E9E9E9",
"{.	c #FEFEFE",
"].	c #F5F5F5",
"^.	c #C2C2C2",
"/.	c #828281",
"(.	c #282627",
"_.	c #131011",
":.	c #0A0A0A",
"<.	c #151010",
"[.	c #150F10",
"}.	c #433F3D",
"|.	c #AEADAD",
"1.	c #F1F1F1",
"2.	c #FDFDFD",
"3.	c #929292",
"4.	c #8D8D8D",
"5.	c #F6F6F6",
"6.	c #B1B1B1",
"7.	c #404040",
"8.	c #161011",
"9.	c #151011",
"0.	c #110F11",
"a.	c #110E10",
"b.	c #413736",
"c.	c #403635",
"d.	c #4D4645",
"e.	c #DBDBDB",
"f.	c #F8F8F8",
"g.	c #B4B4B4",
"h.	c #AAAAAA",
"i.	c #818181",
"j.	c #ECECEC",
"k.	c #CCCCCC",
"l.	c #3E3D3D",
"m.	c #211B1A",
"n.	c #171112",
"o.	c #141010",
"p.	c #191314",
"q.	c #332C2A",
"r.	c #171312",
"s.	c #313031",
"t.	c #BAB9B9",
"u.	c #E7E7E7",
"v.	c #F7F7F7",
"w.	c #9F9F9F",
"x.	c #2A292A",
"y.	c #1A1515",
"z.	c #140E0F",
"A.	c #161211",
"B.	c #444343",
"C.	c #E2E2E2",
"D.	c #F4F4F4",
"E.	c #909090",
"F.	c #4C4C4C",
"G.	c #D9D9D9",
"H.	c #B5B5B5",
"I.	c #3A3838",
"J.	c #342D2A",
"K.	c #322B28",
"L.	c #120F0F",
"M.	c #1B1515",
"N.	c #383331",
"O.	c #707070",
"P.	c #A2A2A2",
"Q.	c #F3F3F3",
"R.	c #E0E0E0",
"S.	c #FCFCFC",
"T.	c #B2B2B2",
"U.	c #1C1818",
"V.	c #3E3433",
"W.	c #2E2826",
"X.	c #161314",
"Y.	c #120E0F",
"Z.	c #9C9C9C",
"`.	c #302D2D",
" +	c #3F3635",
".+	c #0B0A0D",
"++	c #171212",
"@+	c #2F2A26",
"#+	c #646464",
"$+	c #ABABAB",
"%+	c #322F30",
"&+	c #1C1516",
"*+	c #110D0E",
"=+	c #181213",
"-+	c #454242",
";+	c #D6D6D6",
">+	c #F9F9F9",
",+	c #F2F2F2",
"'+	c #DDDDDD",
")+	c #ACACAC",
"!+	c #333030",
"~+	c #1A1415",
"{+	c #565453",
"]+	c #DEDEDE",
"^+	c #B8B8B8",
"/+	c #373737",
"(+	c #363636",
"_+	c #343434",
":+	c #2C2C2C",
"<+	c #5F5F5F",
"[+	c #A6A6A6",
"}+	c #3E3A38",
"|+	c #1D1617",
"1+	c #4C4947",
"2+	c #A7A7A7",
"3+	c #989898",
"4+	c #050505",
"5+	c #020202",
"6+	c #212121",
"7+	c #292929",
"8+	c #D0D0D0",
"9+	c #DFDFDF",
"0+	c #A9A9A9",
"a+	c #3B3734",
"b+	c #130D0E",
"c+	c #3B3231",
"d+	c #302F30",
"e+	c #B0B0B0",
"f+	c #EAEAEA",
"g+	c #9B9B9B",
"h+	c #383838",
"i+	c #323232",
"j+	c #313131",
"k+	c #EDEDED",
"l+	c #483F3E",
"m+	c #423736",
"n+	c #352E2B",
"o+	c #0B0B0A",
"p+	c #11100F",
"q+	c #181313",
"r+	c #171313",
"s+	c #140F10",
"t+	c #191415",
"u+	c #656464",
"v+	c #8F8F8F",
"w+	c #463D3D",
"x+	c #423837",
"y+	c #322B29",
"z+	c #1B1615",
"A+	c #333131",
"B+	c #DADADA",
"C+	c #FAFAFA",
"D+	c #8A8A8A",
"E+	c #1F1F1F",
"F+	c #E4E4E4",
"G+	c #2A2627",
"H+	c #3D3433",
"I+	c #171415",
"J+	c #211A19",
"K+	c #231C1A",
"L+	c #2F2E2F",
"M+	c #CDCDCD",
"N+	c #030303",
"O+	c #E3E3E3",
"P+	c #272525",
"Q+	c #140E10",
"R+	c #201A1A",
"S+	c #383535",
"T+	c #C8C8C8",
"U+	c #A4A4A4",
"V+	c #E8E8E8",
"W+	c #969595",
"X+	c #342F2D",
"Y+	c #110D0D",
"Z+	c #181212",
"`+	c #292727",
" @	c #B7B7B7",
".@	c #C4C4C4",
"+@	c #ADADAD",
"@@	c #919191",
"#@	c #656565",
"$@	c #6B6B6B",
"%@	c #676767",
"&@	c #848484",
"*@	c #B3B3B3",
"=@	c #8C8C8C",
"-@	c #838282",
";@	c #302B28",
">@	c #191514",
",@	c #1A1414",
"'@	c #161111",
")@	c #B2B1B1",
"!@	c #353535",
"~@	c #808080",
"{@	c #A5A5A5",
"]@	c #D8D8D8",
"^@	c #D4D4D4",
"/@	c #C7C7C7",
"(@	c #888888",
"_@	c #090707",
":@	c #AEAEAE",
"<@	c #BEBEBE",
"[@	c #2E2926",
"}@	c #302927",
"|@	c #201A19",
"1@	c #3E3E3E",
"2@	c #AFAFAF",
"3@	c #1E1E1E",
"4@	c #231E1C",
"5@	c #332C29",
"6@	c #0F0A0B",
"7@	c #3A3A3A",
"8@	c #696969",
"9@	c #423737",
"0@	c #362F2D",
"a@	c #120F10",
"b@	c #241F1D",
"c@	c #0A0707",
"d@	c #0B0707",
"e@	c #0E0A0A",
"f@	c #0F090B",
"g@	c #433837",
"h@	c #191516",
"i@	c #0F0B0A",
"j@	c #3C3232",
"k@	c #3A3130",
"l@	c #141112",
"m@	c #302B27",
"n@	c #231B1A",
"o@	c #251E1E",
"p@	c #3C3332",
"q@	c #2E2825",
"r@	c #211B19",
"s@	c #131012",
"t@	c #3F3534",
"u@	c #131112",
"v@	c #1D1717",
"w@	c #171414",
"x@	c #1B1415",
"y@	c #171413",
"z@	c #0B0A0B",
"A@	c #1C1717",
"B@	c #1E1A1A",
"    . . + @ . . #   . . . . . $ #     . . % &     . . . + &     ",
"  * = = - ; > , ' ) = = , ! > ~ ' @ { = = = ] ^ ^ / = = - ( _   ",
"@ ; : , > ~ < [ } } ; > ~ | 1 2 3 ' 4 5 6 , > ; 7 } , , > 8 ' # ",
"# 9 0 a ~ 7 b c 9 d 7 [ e f g g h i j k l m } d n o > , p q r s ",
"  t u ~ v w x y z A B C D h h E h F G H I J ' A A K p = L v M s ",
"  t N O P Q R S T U V W W F X h Y Z `  ...+.q r @.#.$.p %.&.+   ",
"  *.=.7 -.R S ;.>.,.'.).!.W ~.F Z ` {.` ].^./.(.R S -.q o _.:.  ",
"# 7 7 7 P <.[.}.|.1.2.3.h 4.` ` ` ` ` ` ` 5.6.7.S 8.9.0.a.R :.  ",
"*.b.c.7 K A ;.d.e.f.g.h.h i.j.` ` ` ` ` ` ` k.l.m.R n.o.U S t   ",
":.p.c.c.q.r.s.t.].u.h D h 3.{.` ` ` ` ` ` ` v.w.x.y.' 7 K <.S :.",
":.[.z.z.A.#.B.C.` D.E.h F.G.` ` ` ` ` ` ` ` ` H.I.J.K.r m.@.L.:.",
"  t n.M.d K.N.O.P.` Q.R.~.S.` ` ` ` ` ` ` ` ` T.U.V.c.W.X.Y.:.  ",
"  :.p.' 7 7 d h h Z.` ` ` ` ` ` ` ` ` ` ` ` ` G.P.`. +.+S t     ",
":.++>.7 7 7 @+h h #+` ` ` ` ` ` ` ` ` ` ` ` ` R.$+%+&+*+;.t     ",
":.=+7 7 7 7 -+;+S.>+` ` ` ` ` W ,+W e.'+'+'+'+ .)+!+>.>.>.r.t   ",
":.~+b.b.b.b.' {+]+` ` ` S.^+h /+(+(+_+_+_+:+<+w.[+}+7 7 7 w #   ",
"  t |+b.b.b.b.1+2+3+h 4+h h 5+h h h h 6+7+h 8+` 9+0+a+' K A A s ",
"    # b+c+c.d+e+f+'+g+h+f h h h h h h h i+j+k+` ]+0+l+m+n+K A o+",
"  p+q+r+s+t+u+C.` f+` D.v+h h g h h h g h ~.` ` ]+0+w+b.x+y+@.:.",
"& v 7 >.z+A+B+` ` ` ` C+;+D+E+h h h h h h F+` ` ]+0+G+V.H+I+:.  ",
"*.x+d J+K+L+B+` ` 2.>+C+M+2+H h 5+h h N+h O+` ` 9+0+P+Q+*+S t   ",
"t R+c.>.-.S+B+` ` S. .Q.T+U+E./+h h h h 4+V+` W M+W+X+Y+8.#     ",
"  # ~+Z+S `+ @v.` .@0+h.)+0++@@@#@$@%@&@*@f+k+=@-@7 7 ;@>@S t   ",
"  t ,@7 7 7 '@)@*@h h h !@~@E.$+$+$+{@]@^@/@(@h >.7 >.A A <.t   ",
"  % ' 7 7 7 A _@h $ h 5+h h X :@[+[+U+<@4.O.f h [@7 }@A A A <.:.",
"& q.' 7 w A |@h h h h h h h 1@E.:@h.2@&@3@h h 4@7 7 A A A A A s ",
"*.x+c.5@O A x 6@h h h h h 5+h 7@8@O.8@:+h g h H+b.b.7 r A A J+o+",
"*.m+b.9@0@r a@9.b@h h h h h 5+c@d@$ h h g e@f@c+b.b.c.7 P A R :.",
"*.x+b.b.g@h@S S [.h h h h h i@A o.j@k@9 l@S S z.x+b.c.m@w n@#   ",
"t n x+x+o@o.S s '@V.H+H+p@q@r@A s@x+t@u@E t S S v@x+b.c.q.w@t   ",
"  # x@x@<.# t   t y@x+m+m+b.' s@z@q+r.:.    t t s A@x+x+B@s     ",
"    :.:.:.          *.*.*.*.& :.  :.:.            :.*.*.t       "};
