/* XPM */
static char * P_player_side_2_xpm[] = {
"32 32 343 2",
"  	c None",
". 	c #0C0C0B",
"+ 	c #0E0D0D",
"@ 	c #0F0F0E",
"# 	c #100F0E",
"$ 	c #0C0B0B",
"% 	c #0D0D0D",
"& 	c #0D0D0C",
"* 	c #121010",
"= 	c #352F2C",
"- 	c #47423E",
"; 	c #56534D",
"> 	c #56524C",
", 	c #131211",
"' 	c #37322E",
") 	c #1F1E1C",
"! 	c #322C29",
"~ 	c #433E3A",
"{ 	c #54514B",
"] 	c #54514C",
"^ 	c #55524C",
"/ 	c #191817",
"( 	c #423D39",
"_ 	c #1A1917",
": 	c #433F3A",
"< 	c #413C38",
"[ 	c #312B28",
"} 	c #524F49",
"| 	c #403A37",
"1 	c #423C38",
"2 	c #34312F",
"3 	c #282828",
"4 	c #272727",
"5 	c #363230",
"6 	c #403B37",
"7 	c #3F3A36",
"8 	c #423E39",
"9 	c #0B0B0B",
"0 	c #231C1B",
"a 	c #332D2A",
"b 	c #45403C",
"c 	c #261F1E",
"d 	c #211A1A",
"e 	c #2F2926",
"f 	c #53504A",
"g 	c #4F4B46",
"h 	c #373231",
"i 	c #514F4E",
"j 	c #3B3938",
"k 	c #000000",
"l 	c #010101",
"m 	c #181818",
"n 	c #484645",
"o 	c #2D2825",
"p 	c #2D2725",
"q 	c #201918",
"r 	c #54504B",
"s 	c #332E2B",
"t 	c #241D1B",
"u 	c #342E2B",
"v 	c #46413D",
"w 	c #251E1D",
"x 	c #221B1A",
"y 	c #46423E",
"z 	c #5C5958",
"A 	c #858585",
"B 	c #C3C3C3",
"C 	c #949494",
"D 	c #0C0C0C",
"E 	c #A1A1A1",
"F 	c #979696",
"G 	c #2C2726",
"H 	c #0F0D10",
"I 	c #0F0D0F",
"J 	c #110F10",
"K 	c #241D1C",
"L 	c #27201F",
"M 	c #0B0A0A",
"N 	c #1A1617",
"O 	c #36312D",
"P 	c #36302D",
"Q 	c #151213",
"R 	c #121011",
"S 	c #828180",
"T 	c #B6B6B6",
"U 	c #DCDCDC",
"V 	c #FFFFFF",
"W 	c #E1E1E1",
"X 	c #575757",
"Y 	c #6F6F6F",
"Z 	c #F0F0F0",
"` 	c #A0A0A0",
" .	c #140F0F",
"..	c #110E0E",
"+.	c #130F0F",
"@.	c #100E10",
"#.	c #151112",
"$.	c #251E1C",
"%.	c #26201E",
"&.	c #191213",
"*.	c #0A0A0A",
"=.	c #131011",
"-.	c #181515",
";.	c #282627",
">.	c #828281",
",.	c #C2C2C2",
"'.	c #F5F5F5",
").	c #FEFEFE",
"!.	c #E9E9E9",
"~.	c #CACACA",
"{.	c #FBFBFB",
"].	c #EFEFEF",
"^.	c #A7A6A6",
"/.	c #302A27",
"(.	c #120E0E",
"_.	c #312A28",
":.	c #0D0C0C",
"<.	c #110E10",
"[.	c #110F11",
"}.	c #151011",
"|.	c #161011",
"1.	c #404040",
"2.	c #B1B1B1",
"3.	c #F6F6F6",
"4.	c #8D8D8D",
"5.	c #929292",
"6.	c #FDFDFD",
"7.	c #F1F1F1",
"8.	c #AEADAD",
"9.	c #433F3D",
"0.	c #150F10",
"a.	c #151010",
"b.	c #141010",
"c.	c #171112",
"d.	c #211B1A",
"e.	c #3E3D3D",
"f.	c #CCCCCC",
"g.	c #ECECEC",
"h.	c #818181",
"i.	c #AAAAAA",
"j.	c #B4B4B4",
"k.	c #F8F8F8",
"l.	c #DBDBDB",
"m.	c #4D4645",
"n.	c #403635",
"o.	c #413736",
"p.	c #1A1515",
"q.	c #2A292A",
"r.	c #9F9F9F",
"s.	c #F7F7F7",
"t.	c #E7E7E7",
"u.	c #BAB9B9",
"v.	c #313031",
"w.	c #171312",
"x.	c #332C2A",
"y.	c #191314",
"z.	c #120F0F",
"A.	c #322B28",
"B.	c #342D2A",
"C.	c #3A3838",
"D.	c #B5B5B5",
"E.	c #D9D9D9",
"F.	c #4C4C4C",
"G.	c #909090",
"H.	c #F4F4F4",
"I.	c #E2E2E2",
"J.	c #444343",
"K.	c #161211",
"L.	c #140E0F",
"M.	c #120E0F",
"N.	c #161314",
"O.	c #2E2826",
"P.	c #3E3433",
"Q.	c #1C1818",
"R.	c #B2B2B2",
"S.	c #FCFCFC",
"T.	c #E0E0E0",
"U.	c #F3F3F3",
"V.	c #A2A2A2",
"W.	c #707070",
"X.	c #383331",
"Y.	c #1B1515",
"Z.	c #0B0A0D",
"`.	c #3F3635",
" +	c #302D2D",
".+	c #9C9C9C",
"++	c #110D0E",
"@+	c #1C1516",
"#+	c #322F30",
"$+	c #ABABAB",
"%+	c #646464",
"&+	c #2F2A26",
"*+	c #171212",
"=+	c #333030",
"-+	c #ACACAC",
";+	c #DDDDDD",
">+	c #F2F2F2",
",+	c #F9F9F9",
"'+	c #D6D6D6",
")+	c #454242",
"!+	c #181213",
"~+	c #3E3A38",
"{+	c #A6A6A6",
"]+	c #5F5F5F",
"^+	c #2C2C2C",
"/+	c #343434",
"(+	c #363636",
"_+	c #373737",
":+	c #B8B8B8",
"<+	c #DEDEDE",
"[+	c #565453",
"}+	c #1A1415",
"|+	c #3B3734",
"1+	c #A9A9A9",
"2+	c #DFDFDF",
"3+	c #D0D0D0",
"4+	c #292929",
"5+	c #212121",
"6+	c #020202",
"7+	c #050505",
"8+	c #989898",
"9+	c #A7A7A7",
"0+	c #4C4947",
"a+	c #1D1617",
"b+	c #0B0B0A",
"c+	c #352E2B",
"d+	c #423736",
"e+	c #483F3E",
"f+	c #EDEDED",
"g+	c #313131",
"h+	c #323232",
"i+	c #383838",
"j+	c #9B9B9B",
"k+	c #EAEAEA",
"l+	c #B0B0B0",
"m+	c #302F30",
"n+	c #3B3231",
"o+	c #130D0E",
"p+	c #322B29",
"q+	c #423837",
"r+	c #463D3D",
"s+	c #8F8F8F",
"t+	c #656464",
"u+	c #191415",
"v+	c #140F10",
"w+	c #171313",
"x+	c #181313",
"y+	c #11100F",
"z+	c #171415",
"A+	c #3D3433",
"B+	c #2A2627",
"C+	c #E4E4E4",
"D+	c #1F1F1F",
"E+	c #8A8A8A",
"F+	c #FAFAFA",
"G+	c #DADADA",
"H+	c #333131",
"I+	c #1B1615",
"J+	c #140E10",
"K+	c #272525",
"L+	c #E3E3E3",
"M+	c #030303",
"N+	c #CDCDCD",
"O+	c #2F2E2F",
"P+	c #231C1A",
"Q+	c #211A19",
"R+	c #110D0D",
"S+	c #342F2D",
"T+	c #969595",
"U+	c #E8E8E8",
"V+	c #A4A4A4",
"W+	c #C8C8C8",
"X+	c #383535",
"Y+	c #201A1A",
"Z+	c #191514",
"`+	c #302B28",
" @	c #838282",
".@	c #8C8C8C",
"+@	c #B3B3B3",
"@@	c #848484",
"#@	c #676767",
"$@	c #6B6B6B",
"%@	c #656565",
"&@	c #919191",
"*@	c #ADADAD",
"=@	c #C4C4C4",
"-@	c #B7B7B7",
";@	c #292727",
">@	c #181212",
",@	c #888888",
"'@	c #C7C7C7",
")@	c #D4D4D4",
"!@	c #D8D8D8",
"~@	c #A5A5A5",
"{@	c #808080",
"]@	c #353535",
"^@	c #B2B1B1",
"/@	c #161111",
"(@	c #1A1414",
"_@	c #302927",
":@	c #2E2926",
"<@	c #BEBEBE",
"[@	c #AEAEAE",
"}@	c #090707",
"|@	c #231E1C",
"1@	c #1E1E1E",
"2@	c #AFAFAF",
"3@	c #3E3E3E",
"4@	c #201A19",
"5@	c #696969",
"6@	c #3A3A3A",
"7@	c #0F0A0B",
"8@	c #332C29",
"9@	c #0F090B",
"0@	c #0E0A0A",
"a@	c #0B0707",
"b@	c #0A0707",
"c@	c #241F1D",
"d@	c #120F10",
"e@	c #362F2D",
"f@	c #423737",
"g@	c #231B1A",
"h@	c #302B27",
"i@	c #141112",
"j@	c #3A3130",
"k@	c #3C3232",
"l@	c #0F0B0A",
"m@	c #191516",
"n@	c #433837",
"o@	c #171414",
"p@	c #1D1717",
"q@	c #131112",
"r@	c #3F3534",
"s@	c #131012",
"t@	c #211B19",
"u@	c #2E2825",
"v@	c #3C3332",
"w@	c #251E1E",
"x@	c #1E1A1A",
"y@	c #1C1717",
"z@	c #0B0A0B",
"A@	c #171413",
"B@	c #1B1415",
"    . + @ @ @     . # @ @     $ % @ @ @ @ @   $ @ @ & + @ @     ",
"  * = - ; ; > , , ' ; ; ; ) & ! ~ { ] ^ ; ; / ! ^ { ( - ; ; _   ",
"$ ! : { ^ ^ < [ ( { ^ } | 1 ! 2 3 4 5 ~ { ( < < 6 7 ~ { ^ 8 ( & ",
"9 0 a b ^ { c d e < f g h i j k l l m n 6 [ e o p q [ ~ r s o $ ",
"9 t u v ; b w x x ! y z A B C k D k k E F G x H I J K u ~ L M   ",
"  + N O b P Q R 0 a S T U V W X k Y C Z Z `  ...+.@.#.$.%.&.M   ",
"  *.=.c a -.+.@.;.>.,.'.V ).V W C !.Z ~.{.].^./.(.+.@.-.[ _.:.  ",
"  *.@.<.[.}.|.+.1.2.3.V V V V V V V 4.k 5.6.7.8.9.0.a.$.[ [ [ $ ",
"  M +. .b.c.@.d.e.f.V V V V V V V g.h.k i.j.k.l.m.(.x w [ n.o.:.",
"*.+.a.w [ ! p.q.r.s.V V V V V V V ).5.k E k t.'.u.v.w.x.n.n.y.*.",
"*.z.R d.0 A.B.C.D.V V V V V V V V V E.F.k G.H.V I.J.Q K.L.L.0.*.",
"  *.M.N.O.n.P.Q.R.V V V V V V V V V S.!.T.U.V V.W.X.A.e Y.c.M   ",
"    M +.Z.`. +V.E.V V V V V V V V V V V V V .+k k e [ [ ! y.*.  ",
"    M (.++@+#+$+T.V V V V V V V V V V V V V %+k k &+[ [ [ /.*+*.",
"  M w./././.=+-+U ;+;+;+;+l.Z >+Z V V V V V ,+S.'+)+[ [ [ [ !+*.",
"  $ K [ [ [ ~+{+r.]+^+/+/+/+(+(+_+k :+S.V V V <+[+! o.o.o.o.}+*.",
"9 x x w ! |+1+2+V 3+k 4+5+k k k k 6+k k 7+k 8+9+0+o.o.o.o.a+M   ",
"b+x w c+d+e+1+<+V f+g+h+k k k k k k k m i+j+;+k+l+m+n.n+o+$     ",
"*.R p+q+o.r+1+<+V V !.k l k k k l k k s+H.V k+V I.t+u+v+w+x+y+  ",
"  *.z+A+P.B+1+<+V V C+k k k k k k D+E+'+F+V V V V G+H+I+/.[ u . ",
"  M +.++J+K+1+2+V V L+k M+k k 6+k A 9+N+F+,+6.V V G+O+P+Q+e q+:.",
"    $ |.R+S+T+N+Z V U+7+k k k k _+G.V+W+U.U S.V V G+X+-./.n.Y+M ",
"  M +.Z+`+[ [  @.@f+k++@@@#@$@%@&@*@1+-+i.1+=@V s.-@;@+.>@}+$   ",
"  M a.x x /.[ /.k ,@'@)@!@~@$+$+$+G.{@]@k k k +@^@/@[ [ [ (@M   ",
"*.a.x x x _@[ :@k m W.4.<@V+{+{+[@Y k k 6+k % k }@x [ [ [ ! #   ",
"9 x x x x x [ [ |@k k 1@@@2@i.[@G.3@k k k k k k k 4@x K [ ! x.. ",
"b+Q+x x 0 [ o.o.A+k l k ^+5@W.5@6@k 6+k k k k k 7@J x %.8@n.q+:.",
"*.@.x $.[ n.o.o.n+9@0@l k k % a@b@6+k k k k k c@}.d@0 e@f@o.d+:.",
"  $ g@K h@n.o.q+L.+.+.i@o j@k@b.x l@k k k k k 0.+.+.m@n@o.o.q+:.",
"  M o@x.n.o.q+p@+.+.M D q@r@q+s@x t@u@v@A+A+P./@9 +.b.w@q+q+d M ",
"    9 x@q+q+y@9 M M     *.w.x+z@s@! o.d+d+q+A@M   M $ a.B@B@$   ",
"      M :.:.*.            *.*.  *.. :.:.:.:.          *.*.*.    "};
