/* XPM */
static char * O_player_2_xpm[] = {
"32 32 321 2",
"  	c None",
". 	c #0C0C0B",
"+ 	c #0E0D0D",
"@ 	c #0F0F0E",
"# 	c #0E0E0D",
"$ 	c #11100F",
"% 	c #0C0B0B",
"& 	c #0D0D0D",
"* 	c #10100F",
"= 	c #0D0D0C",
"- 	c #121010",
"; 	c #352F2C",
"> 	c #47423E",
", 	c #56534D",
"' 	c #504C47",
") 	c #2A2A2A",
"! 	c #292929",
"~ 	c #383734",
"{ 	c #252523",
"] 	c #282828",
"^ 	c #3D3936",
"/ 	c #4C4845",
"( 	c #585550",
"_ 	c #55524C",
": 	c #2C2B27",
"< 	c #212121",
"[ 	c #4E4B46",
"} 	c #54514B",
"| 	c #423D39",
"1 	c #1A1917",
"2 	c #322C29",
"3 	c #433F3A",
"4 	c #524F49",
"5 	c #242424",
"6 	c #000000",
"7 	c #302F2C",
"8 	c #403A37",
"9 	c #81807F",
"0 	c #AEAEAE",
"a 	c #8A8987",
"b 	c #3F3936",
"c 	c #282624",
"d 	c #010101",
"e 	c #262626",
"f 	c #3D3835",
"g 	c #433E3A",
"h 	c #423E39",
"i 	c #0B0B0B",
"j 	c #231C1B",
"k 	c #332D2A",
"l 	c #45403C",
"m 	c #514E48",
"n 	c #686868",
"o 	c #B2B2B2",
"p 	c #D5D5D5",
"q 	c #FFFFFF",
"r 	c #D9D9D9",
"s 	c #B0B0B0",
"t 	c #828282",
"u 	c #555555",
"v 	c #272727",
"w 	c #221C1B",
"x 	c #312B28",
"y 	c #54504B",
"z 	c #332E2B",
"A 	c #2D2825",
"B 	c #241D1B",
"C 	c #342E2B",
"D 	c #46413D",
"E 	c #040303",
"F 	c #676767",
"G 	c #565656",
"H 	c #ADADAD",
"I 	c #A8A8A8",
"J 	c #0F0E0F",
"K 	c #241D1C",
"L 	c #27201F",
"M 	c #0B0A0A",
"N 	c #1A1617",
"O 	c #36312D",
"P 	c #36302D",
"Q 	c #494848",
"R 	c #3D3D3D",
"S 	c #9F9F9F",
"T 	c #EBEBEB",
"U 	c #ECECEC",
"V 	c #F5F5F5",
"W 	c #F6F6F6",
"X 	c #FAFAFA",
"Y 	c #A5A5A5",
"Z 	c #666666",
"` 	c #525252",
" .	c #100E10",
"..	c #151112",
"+.	c #251E1C",
"@.	c #26201E",
"#.	c #191213",
"$.	c #0A0A0A",
"%.	c #131011",
"&.	c #261F1E",
"*.	c #35302D",
"=.	c #5F5E5E",
"-.	c #A6A6A6",
";.	c #CFCFCF",
">.	c #FEFEFE",
",.	c #BDBDBD",
"'.	c #A9A9A9",
").	c #B7B7B7",
"!.	c #5F5F5F",
"~.	c #191819",
"{.	c #181515",
"].	c #312A28",
"^.	c #0D0C0C",
"/.	c #110E10",
"(.	c #2C2C2C",
"_.	c #CBCBCB",
":.	c #FCFCFC",
"<.	c #E5E5E5",
"[.	c #C1C1C1",
"}.	c #767676",
"|.	c #B1B1B1",
"1.	c #B8B8B8",
"2.	c #737373",
"3.	c #BBBBBB",
"4.	c #E6E6E6",
"5.	c #F9F9F9",
"6.	c #CDCDCD",
"7.	c #373535",
"8.	c #130F0F",
"9.	c #140F0F",
"0.	c #686767",
"a.	c #CACACA",
"b.	c #C5C5C5",
"c.	c #949494",
"d.	c #B6B6B6",
"e.	c #C4C4C4",
"f.	c #9C9C9C",
"g.	c #E3E3E3",
"h.	c #6E6C6C",
"i.	c #2A2423",
"j.	c #403635",
"k.	c #413736",
"l.	c #151010",
"m.	c #251E1D",
"n.	c #E9E9E9",
"o.	c #101010",
"p.	c #080808",
"q.	c #BFBFBF",
"r.	c #B3B3B3",
"s.	c #44403F",
"t.	c #191314",
"u.	c #120F0F",
"v.	c #121011",
"w.	c #211B1A",
"x.	c #A1A1A1",
"y.	c #EAEAEA",
"z.	c #070707",
"A.	c #030303",
"B.	c #2D2D2D",
"C.	c #F3F3F3",
"D.	c #909090",
"E.	c #040404",
"F.	c #161616",
"G.	c #E4E4E4",
"H.	c #2E2C2C",
"I.	c #140E0F",
"J.	c #150F10",
"K.	c #120E0F",
"L.	c #161314",
"M.	c #7B7B7B",
"N.	c #F1F1F1",
"O.	c #626262",
"P.	c #313131",
"Q.	c #BABABA",
"R.	c #FDFDFD",
"S.	c #323232",
"T.	c #6A6A6A",
"U.	c #EEEEEE",
"V.	c #818181",
"W.	c #322C2A",
"X.	c #1B1515",
"Y.	c #171112",
"Z.	c #E2E2E2",
"`.	c #9D9D9D",
" +	c #848484",
".+	c #ABABAB",
"++	c #C7C7C7",
"@+	c #C6C6C6",
"#+	c #929292",
"$+	c #898989",
"%+	c #7E7E7E",
"&+	c #E0E0E0",
"*+	c #888888",
"=+	c #120E0E",
"-+	c #656565",
";+	c #D2D2D2",
">+	c #F0F0F0",
",+	c #D7D7D7",
"'+	c #F8F8F8",
")+	c #EFEFEF",
"!+	c #D6D6D6",
"~+	c #696969",
"{+	c #342F2C",
"]+	c #302A27",
"^+	c #171212",
"/+	c #171312",
"(+	c #D0D0D0",
"_+	c #DBDBDB",
":+	c #484848",
"<+	c #201C1A",
"[+	c #181213",
"}+	c #5E5E5E",
"|+	c #464646",
"1+	c #060606",
"2+	c #010000",
"3+	c #3F3534",
"4+	c #1A1415",
"5+	c #221B1A",
"6+	c #474747",
"7+	c #4B4B4B",
"8+	c #3F3635",
"9+	c #1D1617",
"0+	c #0B0B0A",
"a+	c #352E2B",
"b+	c #0E0E0E",
"c+	c #999999",
"d+	c #D1D1D1",
"e+	c #F4F4F4",
"f+	c #AAAAAA",
"g+	c #3E3E3E",
"h+	c #120C0D",
"i+	c #322B29",
"j+	c #423837",
"k+	c #232323",
"l+	c #616161",
"m+	c #8F8F8F",
"n+	c #6E6E6E",
"o+	c #747474",
"p+	c #494949",
"q+	c #161212",
"r+	c #181313",
"s+	c #171415",
"t+	c #3D3433",
"u+	c #ACACAC",
"v+	c #797979",
"w+	c #7D7D7D",
"x+	c #7F7F7F",
"y+	c #6C6C6C",
"z+	c #130F0E",
"A+	c #110D0E",
"B+	c #969696",
"C+	c #FBFBFB",
"D+	c #D3D3D3",
"E+	c #DEDEDE",
"F+	c #7A7A7A",
"G+	c #424242",
"H+	c #211A19",
"I+	c #2F2926",
"J+	c #161011",
"K+	c #C2C2C2",
"L+	c #DFDFDF",
"M+	c #201E1E",
"N+	c #201A1A",
"O+	c #191514",
"P+	c #E8E8E8",
"Q+	c #E7E7E7",
"R+	c #D4D4D4",
"S+	c #646464",
"T+	c #191616",
"U+	c #181212",
"V+	c #191919",
"W+	c #5A5A5A",
"X+	c #6B6B6B",
"Y+	c #121212",
"Z+	c #2F2927",
"`+	c #1A1414",
" @	c #3A3A3A",
".@	c #979797",
"+@	c #E1E1E1",
"@@	c #CCCCCC",
"#@	c #100F0E",
"$@	c #020202",
"%@	c #2B2B2B",
"&@	c #EDEDED",
"*@	c #332C2A",
"=@	c #1F1918",
"-@	c #0C0C0C",
";@	c #1E1716",
">@	c #332C29",
",@	c #252525",
"'@	c #434343",
")@	c #404040",
"!@	c #414141",
"~@	c #333333",
"{@	c #0F0F0F",
"]@	c #110E0F",
"^@	c #362F2D",
"/@	c #423737",
"(@	c #423736",
"_@	c #231B1A",
":@	c #302B27",
"<@	c #3B3131",
"[@	c #080607",
"}@	c #3E3534",
"|@	c #403736",
"1@	c #141010",
"2@	c #191516",
"3@	c #433837",
"4@	c #171414",
"5@	c #1D1717",
"6@	c #131112",
"7@	c #131012",
"8@	c #221C1A",
"9@	c #161111",
"0@	c #251E1E",
"a@	c #211A1A",
"b@	c #1E1A1A",
"c@	c #1C1717",
"d@	c #0B0A0B",
"e@	c #171413",
"f@	c #1B1415",
"    . + @ @ @     # $ @ @     % & @ @ @ @ *   + @ @ = + @ @     ",
"  - ; > , , ' ) ! ! ~ , , { ] ^ / ( _ _ : < ) ! [ } | > , , 1   ",
"% 2 3 } _ 4 ) 5 6 6 6 7 8 9 0 0 0 a b c 6 6 6 d e f g } _ h | = ",
"i j k l _ m 5 6 6 6 6 n o p q q q r s t u v 6 6 5 w x g y z A % ",
"i B C D , | E 6 < F G H q q q q q q q q q I 6 6 d J K C g L M   ",
"  + N O l P Q R S q q q T U V q W U T X q q Y Z `  ...+.@.#.M   ",
"  $.%.&.*.=.-.;.q q >.,.6 6 '.q o 6 6 ).>.q q q ).!.~.{.x ].^.  ",
"  $. ./.(.Y _.q :.<.[.6 }.6 |.q 1.6 2.6 3.4.5.q 6.Y 7.+.x x x % ",
"  M 8.9.0.a.q :.b.6 6 c.a.6 0 q d.6 e.f.6 6 g.q q 6.h.i.x j.k.^.",
"$.8.l.m.s q q n.6 o.p.6 6 ] b.q _.R 6 6 $.6 q.X q q r.s.j.j.t.$.",
"$.u.v.w.x.q q y.6 z.A.6 B.d.5.q C.D.6 E.6 F.6 G.q q Y H.I.I.J.$.",
"  $.K.L.M.q q N.O.6 6 P.Q.q q q R.,.S.6 6 6 T.U.q q V.W.X.Y.M   ",
"    M 8.t q q R.Z.`. +.+r ++_._.@+Z.6.#+$+%+&+q q q *+*.2 t.$.  ",
"    M =+-+;+q q q q U.>+,+T.6 6 G Z.q '+)+U.q !+b._.~+{+x ]+^+$.",
"  M /+]+6 < (+q q q q q q U |.o 4.q >.q q q _+:+6 6 6 <+]+x [+$.",
"  % K x 6 6 }+q q q q q q q q q q q q q q r |+6 1+6 2+6 3+k.4+$.",
"i 5+5+m.6 6 6+e.X V X q q q q q q q '+'+(+7+6 6 6 6 6 6 8+9+M   ",
"0+5+m.a+6 d 6 b+c+#+S d+q q q >.e+'+_+f+g+6 E.6 6 6 6 6 h+%     ",
"$.v.i+j+6 6 E.6 k+.+l+7+`.-.-.f.D.m+n+o+p+6 6 6 6 6 6 6 q+r+$   ",
"  $.s+t+6 6 6 ] q.r 6.u+v+w+%+x+M.-.,.;+y+6 z.6 1+6 6 z+]+x C . ",
"  M 8.A+B+a.[._.X V C+)+;.D+r E+,+_+C.:.U F 6 6 6 F+G+K H+I+j+^.",
"    % J+|.K+U q q q q >.X V Q.|+++R.R.q q y.L+&+L+W x+M+]+j.N+M ",
"  M 8.O+y+o G.P+Q+G.y.q q V D+q.4.q q q q q q q q R+S+T+U+4+%   ",
"  M l.5+V+W+X+~+S+m+<.Z.U q X :.>.q q q q q q >+V 2.Y+Z+x `+M   ",
"$.l.5+5+6 6 6 6 6  @}+.@+@U q q q q q q q q q @@2.o.6 I+x 2 #@  ",
"i 5+5+5+6 6 6 6 $@$@6 %@c.&@q q q q q q q d+3.F 6 6 6 w x 2 *@. ",
"0+H+5+5+=@6 6 6 6 6 $@6 D.>+T T T T U.a.1.y+! -@6 6 ;@@.>@j.j+^.",
"$. .5++.I+6 2+6 6 6 6 6 ,@'@)@)@)@)@!@~@) {@6 6 A+]@j ^@/@k.(@^.",
"  % _@K :@<@6 6 6 6 6 [@2 }@|@1@H+H+5+>@j.8+|@J+8.8.2@3@k.k.j+^.",
"  M 4@*@j.k.k.5@8.8.M -@6@3+j+7@5+8@x j.k.k.j+9@i 8.1@0@j+j+a@M ",
"    i b@j+j+c@i M M     $./+r+d@7@2 k.(@(@j+e@M   M % l.f@f@%   ",
"      M ^.^.$.            $.$.  $.. ^.^.^.^.          $.$.$.    "};
