/* XPM */
static char * P_panda_back_2_xpm[] = {
"32 32 304 2",
"  	c None",
". 	c #0C0C0B",
"+ 	c #0E0D0D",
"@ 	c #0F0F0E",
"# 	c #100F0E",
"$ 	c #0C0B0B",
"% 	c #0D0D0D",
"& 	c #0D0D0C",
"* 	c #121010",
"= 	c #352F2C",
"- 	c #47423E",
"; 	c #56534D",
"> 	c #56524C",
", 	c #131211",
"' 	c #37322E",
") 	c #1F1E1C",
"! 	c #322C29",
"~ 	c #443F3B",
"{ 	c #55524C",
"] 	c #191817",
"^ 	c #54514B",
"/ 	c #423D39",
"( 	c #1A1917",
"_ 	c #433F3A",
": 	c #413C38",
"< 	c #312B28",
"[ 	c #403B38",
"} 	c #514E48",
"| 	c #514E49",
"1 	c #524F49",
"2 	c #403A37",
"3 	c #423C38",
"4 	c #3F3936",
"5 	c #433E3A",
"6 	c #53504A",
"7 	c #3E3A36",
"8 	c #3F3B37",
"9 	c #3F3A37",
"0 	c #3F3A36",
"a 	c #423E39",
"b 	c #0B0B0B",
"c 	c #231C1B",
"d 	c #332D2A",
"e 	c #45403C",
"f 	c #261F1E",
"g 	c #272525",
"h 	c #282828",
"i 	c #262626",
"j 	c #272727",
"k 	c #3D3A36",
"l 	c #2E2725",
"m 	c #2D2825",
"n 	c #6A6867",
"o 	c #73716F",
"p 	c #747270",
"q 	c #787774",
"r 	c #201918",
"s 	c #312D2A",
"t 	c #000000",
"u 	c #292929",
"v 	c #2A2726",
"w 	c #211A19",
"x 	c #54504B",
"y 	c #332E2B",
"z 	c #241D1B",
"A 	c #342E2B",
"B 	c #46413D",
"C 	c #282423",
"D 	c #171717",
"E 	c #010101",
"F 	c #575757",
"G 	c #777676",
"H 	c #696869",
"I 	c #E9E9E9",
"J 	c #EAEAEA",
"K 	c #6B6A69",
"L 	c #7B7A7A",
"M 	c #828282",
"N 	c #6E6E6E",
"O 	c #202020",
"P 	c #241D1C",
"Q 	c #27201F",
"R 	c #0B0A0A",
"S 	c #1A1617",
"T 	c #36312D",
"U 	c #36302D",
"V 	c #1C1B1B",
"W 	c #1A1A1A",
"X 	c #747474",
"Y 	c #919191",
"Z 	c #DADADA",
"` 	c #EDEDED",
" .	c #FFFFFF",
"..	c #F0F0F0",
"+.	c #ECECEC",
"@.	c #8E8E8E",
"#.	c #6F6F6F",
"$.	c #1B1A1B",
"%.	c #151112",
"&.	c #251E1C",
"*.	c #26201E",
"=.	c #191213",
"-.	c #0A0A0A",
";.	c #131011",
">.	c #181515",
",.	c #100C0C",
"'.	c #030303",
").	c #6C6C6C",
"!.	c #EBEBEB",
"~.	c #CFCFCF",
"{.	c #040303",
"].	c #100E10",
"^.	c #312A28",
"/.	c #0D0C0C",
"(.	c #110E10",
"_.	c #110F11",
":.	c #151011",
"<.	c #464545",
"[.	c #616161",
"}.	c #CECECE",
"|.	c #EEEEEE",
"1.	c #ACACAC",
"2.	c #343232",
"3.	c #151010",
"4.	c #130F0F",
"5.	c #140F0F",
"6.	c #141010",
"7.	c #484646",
"8.	c #8C8C8C",
"9.	c #BBBBBB",
"0.	c #F4F4F4",
"a.	c #D2D2D2",
"b.	c #898989",
"c.	c #4B4948",
"d.	c #251E1D",
"e.	c #403635",
"f.	c #413736",
"g.	c #585554",
"h.	c #B7B7B7",
"i.	c #F6F6F6",
"j.	c #504F4F",
"k.	c #332C2A",
"l.	c #191314",
"m.	c #120F0F",
"n.	c #121011",
"o.	c #211B1A",
"p.	c #464444",
"q.	c #B2B2B2",
"r.	c #F5F5F5",
"s.	c #424141",
"t.	c #140E0F",
"u.	c #150F10",
"v.	c #120E0F",
"w.	c #161314",
"x.	c #575555",
"y.	c #C5C5C5",
"z.	c #585655",
"A.	c #1B1515",
"B.	c #171112",
"C.	c #4F4F4F",
"D.	c #C8C8C8",
"E.	c #575554",
"F.	c #120E0E",
"G.	c #302F30",
"H.	c #999999",
"I.	c #EFEFEF",
"J.	c #C6C6C6",
"K.	c #595756",
"L.	c #302A27",
"M.	c #171212",
"N.	c #171312",
"O.	c #2E2926",
"P.	c #373737",
"Q.	c #989898",
"R.	c #B1B1B1",
"S.	c #343434",
"T.	c #2F2926",
"U.	c #181213",
"V.	c #221B1A",
"W.	c #323232",
"X.	c #666666",
"Y.	c #9F9F9F",
"Z.	c #D5D5D5",
"`.	c #DFDFDF",
" +	c #858585",
".+	c #3D3433",
"++	c #1A1415",
"@+	c #8B8B8B",
"#+	c #F3F3F3",
"$+	c #9C9C9C",
"%+	c #BCBCBC",
"&+	c #C1C1C1",
"*+	c #646464",
"=+	c #1B1415",
"-+	c #0B0B0A",
";+	c #D9D9D9",
">+	c #FEFEFE",
",+	c #FDFDFD",
"'+	c #F7F7F7",
")+	c #E0E0E0",
"!+	c #F1F1F1",
"~+	c #A8A8A8",
"{+	c #2F2826",
"]+	c #868686",
"^+	c #E8E8E8",
"/+	c #E5E5E5",
"(+	c #E4E4E4",
"_+	c #A5A5A5",
":+	c #161111",
"<+	c #11100F",
"[+	c #0D0A09",
"}+	c #838383",
"|+	c #131313",
"1+	c #080706",
"2+	c #100C0D",
"3+	c #939393",
"4+	c #BEBEBE",
"5+	c #5A5A5A",
"6+	c #2D2928",
"7+	c #423837",
"8+	c #4B4949",
"9+	c #53504F",
"0+	c #201A1A",
"a+	c #3A3939",
"b+	c #9B9A9A",
"c+	c #D6D6D6",
"d+	c #F9F9F9",
"e+	c #DBDBDB",
"f+	c #3A3838",
"g+	c #383534",
"h+	c #A3A3A3",
"i+	c #B6B6B6",
"j+	c #BFBFBF",
"k+	c #A1A1A1",
"l+	c #383432",
"m+	c #1A1414",
"n+	c #211B1B",
"o+	c #606060",
"p+	c #FBFBFB",
"q+	c #FAFAFA",
"r+	c #B3B3B3",
"s+	c #232323",
"t+	c #2A2522",
"u+	c #1D1716",
"v+	c #070707",
"w+	c #626262",
"x+	c #CCCCCC",
"y+	c #F2F2F2",
"z+	c #AAAAAA",
"A+	c #525252",
"B+	c #1E1817",
"C+	c #010000",
"D+	c #060606",
"E+	c #E7E7E7",
"F+	c #C2C2C2",
"G+	c #9D9D9D",
"H+	c #0F0F0F",
"I+	c #161211",
"J+	c #251F1D",
"K+	c #332C29",
"L+	c #2D2525",
"M+	c #050505",
"N+	c #A9A9A9",
"O+	c #C4C4C4",
"P+	c #C3C3C3",
"Q+	c #B8B8B8",
"R+	c #929292",
"S+	c #464646",
"T+	c #363636",
"U+	c #0A0809",
"V+	c #362F2D",
"W+	c #423737",
"X+	c #423736",
"Y+	c #231B1A",
"Z+	c #302B27",
"`+	c #352C2B",
" @	c #010100",
".@	c #3D3D3D",
"+@	c #434343",
"@@	c #404040",
"#@	c #3F3F3F",
"$@	c #444444",
"%@	c #393939",
"&@	c #0A0808",
"*@	c #191516",
"=@	c #433837",
"-@	c #171414",
";@	c #2F2726",
">@	c #0F0D0E",
",@	c #3C3231",
"'@	c #3E3534",
")@	c #110F10",
"!@	c #201A18",
"~@	c #2E2825",
"{@	c #3C3332",
"]@	c #251E1E",
"^@	c #211A1A",
"/@	c #1E1A1A",
"(@	c #1C1717",
"_@	c #0A0909",
":@	c #181313",
"<@	c #0B0A0B",
"[@	c #131012",
"}@	c #171413",
"    . + @ @ @     . # @ @     $ % @ @ @ @ @   $ @ @ & + @ @     ",
"  * = - ; ; > , , ' ; ; ; ) & ! ~ ; { { ; ; ] ! { ^ / - ; ; (   ",
"$ ! _ ^ { { : < [ } | 1 2 3 ! / ^ ^ 4 5 6 7 8 9 9 0 5 ^ { a / & ",
"b c d e { ^ f g h i j k l m n o p q r ! s t u i v w < 5 x y m $ ",
"b z A B ; e C u D t E F G H I J J I K L M N t t O O P A 5 Q R   ",
"  + S T e U V W t X Y Z ` J  . . . .J .. .+.@.#.t $.%.&.*.=.R   ",
"  -.;.f d >.,.'.).!. . . . . . . . . . . . . .~.{.,.].>.< ^./.  ",
"  -.].(._.:.<.[.}. . . . . . . . . . . . . . .|.1.2.3.&.< < < $ ",
"  R 4.5.6.7.8.9.0. . . . . . . . . . . . . . . .a.b.c.d.< e.f./.",
"-.4.3.d.< g.h.i. . . . . . . . . . . . . . . . .0.h.j.k.e.e.l.-.",
"-.m.n.o.p.q.r. . . . . . . . . . . . . . . . . . .r.q.s.t.t.u.-.",
"  -.v.w.x.y. . . . . . . . . . . . . . . . . . . . .y.z.A.B.R   ",
"    R 4.C.D. . . . . . . . . . . . . . . . . . . . .y.E.! l.-.  ",
"    R F.G.H.I. . . . . . . . . . . . . . . . . . . .J.K.< L.M.-.",
"  R N.O.P.Q.|. . . . . . . . . . . . . . . . . . . .R.S.T.< U.-.",
"  $ V.t W.X.Y... . . . . . . . . . . . . . . .|.Z.`. +t t .+++-.",
"b V.r t @+#+$+%+I. . . . . . . . . . . . . . ...&+*+t E t =+R   ",
"-+V.c t  + . .i.;+.. . . .>+,+,+ . . . . .'+)+!+ .~+t t t R     ",
"-.n.{+t ]+ . . . . . . . .^+/+(+ . . . . . . . . ._+t E t :+<+  ",
"  -.w.[+}+ . . . . . . . . . . . . . . . . . . . .%+|+t 1+T.A . ",
"  R 4.2+3+ . . . . . . . . . . . . . . . . . . .>+ .4+5+6+T.7+/.",
"    $ 8+4+,+ . . . . . . . . . . . . . . . . . . . . .&+9+e.0+R ",
"  R 4.a+b+c+d+ . . . . . . . . . . . . . . . . . . .e+Q.f+++$   ",
"  R 3.V.g+b.h+i+j+)+>+ . . . . . . . . . . . . . .!+k+l+< m+R   ",
"-.3.V.V.n+t t t t o+e++.>+ . . . . . . . . . .p+q+r+s+t+< ! #   ",
"b V.V.V.u+t E t v+t w+x+/+ . . . . . . . . .y+)+z+A+t B+< ! k.. ",
"-+w V.V.u+t C+t t D+t o+x+(+ . . . . .E+^+&+F+G+H+t I+J+K+e.7+/.",
"-.].V.&.L.L+t t t t M+t N+h.O+y.y.y.P+h.Q+R+S+T+t U+c V+W+f.X+/.",
"  $ Y+P Z+`+t  @t t t t .@+@@@#@#@#@@@+@$@%@t t &@4.*@=@f.f.7+/.",
"  R -@k.e.f.;@t t t t E >@,@'@)@r !@~@{@.+.+'@5.b 4.6.]@7+7+^@R ",
"    b /@7+7+(@-._@_@    -.N.:@<@[@! f.X+X+7+}@R   R $ 3.=+=+$   ",
"      R /./.-.            -.-.  -.. /./././.          -.-.-.    "};
