/* XPM */
static char * P_player_side_1_xpm[] = {
"32 32 334 2",
"  	c None",
". 	c #0C0C0B",
"+ 	c #0E0D0D",
"@ 	c #0F0F0E",
"# 	c #100F0E",
"$ 	c #0C0B0B",
"% 	c #0D0D0D",
"& 	c #0D0D0C",
"* 	c #121010",
"= 	c #352F2C",
"- 	c #47423E",
"; 	c #56534D",
"> 	c #56524C",
", 	c #131211",
"' 	c #37322E",
") 	c #1F1E1C",
"! 	c #322C29",
"~ 	c #433E3A",
"{ 	c #55524C",
"] 	c #191817",
"^ 	c #54514B",
"/ 	c #423D39",
"( 	c #1A1917",
"_ 	c #433F3A",
": 	c #413C38",
"< 	c #312B28",
"[ 	c #524F49",
"} 	c #403A37",
"| 	c #423C38",
"1 	c #2C2927",
"2 	c #282828",
"3 	c #272727",
"4 	c #42403C",
"5 	c #3F3936",
"6 	c #403B37",
"7 	c #3F3A36",
"8 	c #423E39",
"9 	c #0B0B0B",
"0 	c #231C1B",
"a 	c #332D2A",
"b 	c #45403C",
"c 	c #261F1E",
"d 	c #211A1A",
"e 	c #2F2926",
"f 	c #53504A",
"g 	c #524E4A",
"h 	c #524F4E",
"i 	c #3D3B3A",
"j 	c #000000",
"k 	c #010100",
"l 	c #010101",
"m 	c #161616",
"n 	c #424040",
"o 	c #35302D",
"p 	c #2D2825",
"q 	c #2D2725",
"r 	c #201918",
"s 	c #54504B",
"t 	c #332E2B",
"u 	c #241D1B",
"v 	c #342E2B",
"w 	c #46413D",
"x 	c #251E1D",
"y 	c #221B1A",
"z 	c #36312E",
"A 	c #5F5D5B",
"B 	c #848382",
"C 	c #C2C2C2",
"D 	c #9A9A9A",
"E 	c #0C0C0C",
"F 	c #9C9C9C",
"G 	c #999898",
"H 	c #747272",
"I 	c #342F2F",
"J 	c #0F0D10",
"K 	c #0F0D0F",
"L 	c #110F10",
"M 	c #241D1C",
"N 	c #27201F",
"O 	c #0B0A0A",
"P 	c #1A1617",
"Q 	c #36312D",
"R 	c #36302D",
"S 	c #151213",
"T 	c #121011",
"U 	c #7B7A7A",
"V 	c #B6B6B6",
"W 	c #D9D9D9",
"X 	c #FFFFFF",
"Y 	c #E6E6E6",
"Z 	c #5E5E5E",
"` 	c #6A6A6A",
" .	c #8F8F8F",
"..	c #E9E9E9",
"+.	c #F6F6F6",
"@.	c #E4E4E4",
"#.	c #A1A1A1",
"$.	c #140F0F",
"%.	c #110E0E",
"&.	c #130F0F",
"*.	c #100E10",
"=.	c #151112",
"-.	c #251E1C",
";.	c #26201E",
">.	c #191213",
",.	c #0A0A0A",
"'.	c #131011",
").	c #181515",
"!.	c #222122",
"~.	c #7D7C7D",
"{.	c #C0C0C0",
"].	c #F4F4F4",
"^.	c #FEFEFE",
"/.	c #E5E5E5",
"(.	c #949494",
"_.	c #E0E0E0",
":.	c #C9C9C9",
"<.	c #FCFCFC",
"[.	c #EFEFEF",
"}.	c #A9A8A8",
"|.	c #433F3D",
"1.	c #120E0E",
"2.	c #312A28",
"3.	c #0D0C0C",
"4.	c #110E10",
"5.	c #110F11",
"6.	c #151011",
"7.	c #161011",
"8.	c #393838",
"9.	c #AEAEAE",
"0.	c #F5F5F5",
"a.	c #8D8D8D",
"b.	c #929292",
"c.	c #DFDFDF",
"d.	c #53504E",
"e.	c #302A27",
"f.	c #150F10",
"g.	c #151010",
"h.	c #141010",
"i.	c #171112",
"j.	c #383534",
"k.	c #ECECEC",
"l.	c #818181",
"m.	c #AAAAAA",
"n.	c #B8B7B7",
"o.	c #514A49",
"p.	c #403635",
"q.	c #413736",
"r.	c #292626",
"s.	c #989898",
"t.	c #EAEAEA",
"u.	c #E1E1E1",
"v.	c #4F4D4E",
"w.	c #171312",
"x.	c #332C2A",
"y.	c #191314",
"z.	c #120F0F",
"A.	c #211B1A",
"B.	c #322B28",
"C.	c #433E3C",
"D.	c #B1B1B1",
"E.	c #4C4C4C",
"F.	c #909090",
"G.	c #F9F9F9",
"H.	c #C8C8C8",
"I.	c #424141",
"J.	c #171313",
"K.	c #161211",
"L.	c #140E0F",
"M.	c #120E0F",
"N.	c #161314",
"O.	c #2E2826",
"P.	c #3E3433",
"Q.	c #F3F3F3",
"R.	c #7D7D7D",
"S.	c #1B1515",
"T.	c #0B0A0D",
"U.	c #453D3D",
"V.	c #9F9F9F",
"W.	c #D7D7D7",
"X.	c #636363",
"Y.	c #2E2926",
"Z.	c #110D0E",
"`.	c #2C2829",
" +	c #A9A9A9",
".+	c #DEDEDE",
"++	c #656565",
"@+	c #312C28",
"#+	c #171212",
"$+	c #393533",
"%+	c #D6D6D6",
"&+	c #F0F0F0",
"*+	c #B7B7B7",
"=+	c #1E1E1E",
"-+	c #454545",
";+	c #323232",
">+	c #A4A4A4",
",+	c #4F4D4D",
"'+	c #181213",
")+	c #373230",
"!+	c #A5A5A5",
"~+	c #F7F7F7",
"{+	c #DDDDDD",
"]+	c #252525",
"^+	c #141414",
"/+	c #101010",
"(+	c #120F11",
"_+	c #1A1415",
":+	c #A8A8A8",
"<+	c #FBFBFB",
"[+	c #A0A0A0",
"}+	c #979797",
"|+	c #020202",
"1+	c #1D1617",
"2+	c #0B0B0A",
"3+	c #352E2B",
"4+	c #443A39",
"5+	c #DCDCDC",
"6+	c #030303",
"7+	c #060606",
"8+	c #151111",
"9+	c #141113",
"0+	c #3B3231",
"a+	c #130D0E",
"b+	c #322B29",
"c+	c #423837",
"d+	c #433A39",
"e+	c #EEEEEE",
"f+	c #555555",
"g+	c #717171",
"h+	c #626262",
"i+	c #2A2A2A",
"j+	c #565656",
"k+	c #5D5B5A",
"l+	c #1F1A1A",
"m+	c #140F10",
"n+	c #181313",
"o+	c #11100F",
"p+	c #171415",
"q+	c #3D3433",
"r+	c #403736",
"s+	c #3A3A3A",
"t+	c #606060",
"u+	c #404040",
"v+	c #4D4948",
"w+	c #1B1615",
"x+	c #191516",
"y+	c #CDCDCD",
"z+	c #D0D0D0",
"A+	c #FAFAFA",
"B+	c #F1F1F1",
"C+	c #A7A7A7",
"D+	c #AFAFAF",
"E+	c #6D6D6D",
"F+	c #545454",
"G+	c #484848",
"H+	c #B4B4B4",
"I+	c #4C4948",
"J+	c #231C1A",
"K+	c #211A19",
"L+	c #110D0D",
"M+	c #8B8B8A",
"N+	c #B2B2B2",
"O+	c #B5B5B5",
"P+	c #7E7E7E",
"Q+	c #878787",
"R+	c #898989",
"S+	c #B8B8B8",
"T+	c #C7C7C7",
"U+	c #C5C5C5",
"V+	c #CACACA",
"W+	c #E3E3E3",
"X+	c #FDFDFD",
"Y+	c #BEBEBE",
"Z+	c #373535",
"`+	c #201A19",
" @	c #201A1A",
".@	c #191514",
"+@	c #302B28",
"@@	c #3B3A39",
"#@	c #7B7B7B",
"$@	c #4F4F4F",
"%@	c #BDBDBD",
"&@	c #EBEBEB",
"*@	c #202020",
"=@	c #181212",
"-@	c #050505",
";@	c #1B1B1B",
">@	c #6F6F6F",
",@	c #E8E8E8",
"'@	c #888888",
")@	c #1F1F1F",
"!@	c #1A1414",
"~@	c #302927",
"{@	c #ADADAD",
"]@	c #DADADA",
"^@	c #868686",
"/@	c #2B2826",
"(@	c #5F5F5F",
"_@	c #676767",
":@	c #0C0909",
"<@	c #292929",
"[@	c #2F2C2C",
"}@	c #120F0D",
"|@	c #251F1D",
"1@	c #332C29",
"2@	c #372F2E",
"3@	c #0A0707",
"4@	c #282423",
"5@	c #272120",
"6@	c #2D2724",
"7@	c #2C2624",
"8@	c #120F10",
"9@	c #362F2D",
"0@	c #423737",
"a@	c #423736",
"b@	c #231B1A",
"c@	c #302B27",
"d@	c #0D0A0A",
"e@	c #090606",
"f@	c #342D2A",
"g@	c #433837",
"h@	c #171414",
"i@	c #1D1717",
"j@	c #111010",
"k@	c #221C1A",
"l@	c #161111",
"m@	c #251E1E",
"n@	c #1E1A1A",
"o@	c #1C1717",
"p@	c #0B0A0B",
"q@	c #131012",
"r@	c #171413",
"s@	c #1B1415",
"    . + @ @ @     . # @ @     $ % @ @ @ @ @   $ @ @ & + @ @     ",
"  * = - ; ; > , , ' ; ; ; ) @ ! ~ { { { ; ; ] ! { ^ / - ; ; (   ",
"$ ! _ ^ { { : < / ^ { [ } | 1 2 3 4 5 ~ ^ / : : 6 7 ~ ^ { 8 / & ",
"9 0 a b { ^ c d e : f g h i j k l m n o 6 < e p q r < ~ s t p $ ",
"9 u v w ; b x y y z A B C D j E j l F G H I y J K L M v ~ N O   ",
"  + P Q b R S T 0 U V W X Y Z j `  ...+.@.#.$.%.&.*.=.-.;.>.O   ",
"  ,.'.c a ).&.!.~.{.].X ^.X /.(._.X Y :.<.[.}.|.1.&.*.).< 2.3.  ",
"  ,.*.4.5.6.7.8.9.0.X X X X X X X <.a.j b.^.c.d.e.f.g.-.< < < $ ",
"  O &.$.h.i.*.j.:.X X X X X X X X k.l.j m.V Y n.o.1.y x < p.q.3.",
",.&.g.x < ! r.s.+.X X X X X X X X ^.b.j #.j t.u.v.*.w.x.p.p.y.,.",
",.z.T A.0 B.C.D.X X X X X X X X X X W E.j F.G.H.I.J.S K.L.L.f.,.",
"  ,.M.N.O.p.P.9.X X X X X X X X X X <..._.Q.X R.e < B.e S.i.O   ",
"    O &.T.U.V.W.X X X X X X X X X X X X X X X X.Y.< < < ! y.,.  ",
"    O 1.Z.`. +.+X X X X X X X X ^.X X X X X X ++y @+< < < e.#+,.",
"  O w.e.e.$+m.c.X X X X X Q.%+&+X *+=+-+-+;+>+,+y M < < < < '+,.",
"  $ M < < )+!+D.X X X ~+%+{+m.j ]+^+j j j j /+(+y ! q.q.q.q._+,.",
"9 y y x o :+{+<+[+}+j j j j j |+j j j j j j j j Y.q.q.q.q.1+O   ",
"2+y x 3+4+:+5+X X [.;+;+j 6+7+j j j j j j j l j 8+9+p.0+a+$     ",
",.T b+c+d+:+5+X X X e+f+g+h+i+j 6+j j j j l j j+k+l+L.m+J.n+o+  ",
"  ,.p+q+r+:+5+<.X X X X X 5+s+t+u+j j j j j j G.{+v+m+w+e.< v . ",
"  O &.Z.x+}+y+z+A+G.G.+.B+W C+D+s.E+F+G+++X.H+<..+I+*.J+K+e c+3.",
"    $ 7.L+q M+F.:.N+O+:+P+Q+ .R+S+T+U+V+W+t.G.X+Y+Z+`+).e.p. @O ",
"  O &..@+@< < @@#@j j j j j j j $@%@A+X X X &@W.*@f.&.&.=@_+$   ",
"  O g.y y e.< e.-@;@j j j j j j j >@,@X X <+W '@)@g.< < < !@O   ",
",.g.y y y ~@< +@3 j j j j j j j 7+j {@{+]@z+^@j j y < < < ! #   ",
"9 y y y y y < ! /@j j j j j j j l j f+++(@_@^+j :@A.y M < ! x.. ",
"2+K+y y 0 < q.q.q+j j j j j j j j <@[@}@j j j |@7.L y ;.1@p.c+3.",
",.*.y -.< p.q.q.2@j j j j j j j 3@4@5@u 6@6@7@O.6.8@0 9@0@q.a@3.",
"  $ b@M c@p.q.c+L.L+d@j j j j e@y y 0 f@a@q.c+i.&.&.x+g@q.q.c+3.",
"  O h@x.p.q.c+i@&.&.O 9 j@0+P.(+y k@< p.q.q.c+l@9 &.h.m@c+c+d O ",
"    9 n@c+c+o@9 O O     ,.w.n+p@q@! q.a@a@c+r@O   O $ g.s@s@$   ",
"      O 3.3.,.            ,.,.  ,.. 3.3.3.3.          ,.,.,.    "};
