/* XPM */
static char *tile041_png[] = {
/* columns rows colors chars-per-pixel */
"48 48 52 1 ",
"  c #343E36",
". c #363C3A",
"X c #383F3C",
"o c #275F1E",
"O c #285F1E",
"+ c #27611C",
"@ c #29651E",
"# c #2B6A1E",
"$ c #2E4D2B",
"% c #304B2E",
"& c #2A5D23",
"* c #2F542C",
"= c #2F592A",
"- c #31562E",
"; c #30592B",
": c #334234",
"> c #354C35",
", c #37433A",
"< c #38443C",
"1 c #394C3C",
"2 c #365335",
"3 c #385437",
"4 c #375138",
"5 c #38503A",
"6 c #2B6421",
"7 c #2D6C21",
"8 c #316E25",
"9 c #33642B",
"0 c #346B2A",
"q c #2F7021",
"w c #327324",
"e c #377628",
"r c #38752B",
"t c #377828",
"y c #3B7B2C",
"u c #3D6B35",
"i c #3F7F30",
"p c #407F30",
"a c #3B4241",
"s c #3E4845",
"d c #3F8030",
"f c #448334",
"g c #488737",
"h c #478638",
"j c #488738",
"k c #4C8C3C",
"l c #508F3F",
"z c #508F40",
"x c #549343",
"c c #589747",
"v c #599848",
"b c None",
/* pixels */
"bbbbbbbbbbbbbbbbbbbbb551..bbbbbbbbbbbbbbbbbbbbbb",
"bbbbbbbbbbbbbbbbbbbb6;--$>bbbbbbbbbbbbbbbbbbbbbb",
"bbbbbbbbbbbbbbbb+@btw++@+;3b :bbbbbbbbbbbbbbbbbb",
"bbbbbbbbbbbbbb+7#wyfyqeyw#02*=2<..bbbbbbbbbbbbbb",
"bbbbbbbbbbbbb+#wdfkkkfyyffyu9@=*%,<bbbbbbbbbbbbb",
"bbbbbbbbbbbb6wtflcccxldylxlgyw6@65,:bbbbbbbbbbbb",
"bbbbbbbbb+@wyhxxxcccccjfkxcxkgfw63-=2<.bbbbbbbbb",
"bbbbbbbb+@qtfkxcccccccxjlxcxlkdtr998;><.bbbbbbbb",
"bbbbbbb67wiffjlxcccccxzkxcxlkgwtdeyy7;1::bbbbbbb",
"bbbbbbbhjjzxxkflxccxllkffkllkdwtfddfyr76&bbbbbbb",
"bbbbbbbyjxxvczjjkxcxzxlkgggdddydhjhhfy#;>bbbbbbb",
"bbbbbb6rjxccxxkfjlxccccxlkdwydfglzzzgyw2,.bbbbbb",
"bbbbb6yjxvcxxjfkzxccccccxzjfeedgzxxxkhi6*<.bbbbb",
"bbbb@7pkxcxxjffxcccccccxxxkfeqfkzcxxxzp6=1..bbbb",
"bbbb#wyfkxxjffgxcccccccxzkkfythlzxxxxxj7=5,.bbbb",
"bbb+#wwyfljfeykxcccxlcxzljgjfdkxxzzxzzjw@&>,.bbb",
"bbb+7tyfkxkfyyjxxcxxxzxxjjghdygzcxxxlkft#&>Xbbbb",
"bbb6eflxvvxlgdfhzxlzxzzzdgkftqykxczkkhyq6&: bbbb",
"bb27tfxcvcxxkdtfkllllkjdtdfftqqyglzkfyq+=2&$.bbb",
"bb26rkcxxxxxzfyfggkkgdddqwtddddfhhfytw##6**%..bb",
"bbb@rlxxzxzkkjgkjgkkdttdwwtfjxlkkfyqq#+76&><..bb",
"bb47tgkzlzkffhkxxxczjdtwyfhxxxzhfffyqq7#+&: .bbb",
"bb26wyfjhhffflxxcxcxlkddfkxcccxljjffyw#+&**:,.bb",
"bb4=6wydfffdkxcxxlxllxldfkxccxclkjfddyw+=2&=1.bb",
"bbb2-#qyffetjxxxzxzkkljfkklcxllgftwwwtyw6&o=1,bb",
"bb4--=@wyw7wfkxlzxlkhlfyklkkklxkfdyeqwtw#o=>,<bb",
"bb2&&2&@###wfhkkklkhhkytglkfjlxxlkjdeqq7+62<,,bb",
"bb2&O&+++#qwifffjkghkffdkhfkxxlxxxkkdt7@+&511,bb",
"bb2&@#++6ttqtddtdjjhdfdydgglxcxzxxjgft#+&==21.bb",
"bb1&##@#wytwqtyttfjdqdtqdgkklcxxkkhff0&&-2&-,.bb",
"bb,>9q7#@qyywqtyttdfdqqqwddkllllkfffw922-&2>..bb",
"bb.1-##@@#wt##qttyhjhdytttdgkggfyrew6&--&&5<..bb",
"bb,<2O+@#66#@@7qtfjklkgffewyfyyyqq#++6&o+&><.bbb",
"bbb,>2&+62=@7###tffkkgfywyyeww6#qqq#+=2o=5,<1.bb",
"bbbb,,-&o*-&#++7wydfdfyttyt##q#@#@#@=24&*1><,.bb",
"bbbb.X1-oo=2&&6#qwytqyywyr#667##++o&212&*11<.bbb",
"bbb.,1.,26+&2526#7w6@wqww#&2;+++++;55-&251...bbb",
"bbbb,,.,5---=25-6##@@@#@#@O&-;--;-2152-51<..bbbb",
"bbbbb..,1155&-11-&&##++oO&&&;22511155111,..bbbbb",
"bbbbbb..,1154,.1522=+++62222;&&-1.<55<<X..<bbbbb",
"bbbbbbbX<,11<,,,1112-;--111<>=*21,,<,<X..Xbbbbbb",
"bbbbbbbbs.,1X,1,,1115151111,>11111<..Xa..bbbbbbb",
"bbbbbbbbbbXXa<.1<.,<5511,..111<...<a..bbbbbbbbbb",
"bbbbbbbbbbbbbb.<<X..<<<<...<<<X...bbbbbbbbbbbbbb",
"bbbbbbbbbbbbbbb.X<X...........aX.bbbbbbbbbbbbbbb",
"bbbbbbbbbbbbbbbbbbbbbbbbbbbbbbbbbbbbbbbbbbbbbbbb",
"bbbbbbbbbbbbbbbbbbbbbbbbbbbbbbbbbbbbbbbbbbbbbbbb",
"bbbbbbbbbbbbbbbbbbbbbbbbbbbbbbbbbbbbbbbbbbbbbbbb"
};
