/* XPM */
static char * 0_empty_xpm[] = {
"32 32 201 2",
"  	c None",
". 	c #0C0C0B",
"+ 	c #0E0D0D",
"@ 	c #0F0F0E",
"# 	c #100F0E",
"$ 	c #0C0B0B",
"% 	c #0D0D0D",
"& 	c #0D0D0C",
"* 	c #121010",
"= 	c #352F2C",
"- 	c #47423E",
"; 	c #56534D",
"> 	c #56524C",
", 	c #131211",
"' 	c #37322E",
") 	c #1F1E1C",
"! 	c #322C29",
"~ 	c #443F3B",
"{ 	c #55524C",
"] 	c #191817",
"^ 	c #54514B",
"/ 	c #423D39",
"( 	c #1A1917",
"_ 	c #433F3A",
": 	c #413C38",
"< 	c #312B28",
"[ 	c #524F49",
"} 	c #403A37",
"| 	c #423C38",
"1 	c #3F3936",
"2 	c #433E3A",
"3 	c #403B37",
"4 	c #3F3A36",
"5 	c #423E39",
"6 	c #0B0B0B",
"7 	c #231C1B",
"8 	c #332D2A",
"9 	c #45403C",
"0 	c #261F1E",
"a 	c #211A1A",
"b 	c #2F2926",
"c 	c #53504A",
"d 	c #4F4B46",
"e 	c #2E2725",
"f 	c #2D2825",
"g 	c #514E48",
"h 	c #201918",
"i 	c #2D2725",
"j 	c #54504B",
"k 	c #332E2B",
"l 	c #241D1B",
"m 	c #342E2B",
"n 	c #46413D",
"o 	c #251E1D",
"p 	c #221B1A",
"q 	c #211A19",
"r 	c #110E10",
"s 	c #241E1C",
"t 	c #241D1C",
"u 	c #0F0D10",
"v 	c #0F0D0F",
"w 	c #110F10",
"x 	c #27201F",
"y 	c #0B0A0A",
"z 	c #1A1617",
"A 	c #36312D",
"B 	c #36302D",
"C 	c #151213",
"D 	c #121011",
"E 	c #302A27",
"F 	c #100E10",
"G 	c #120F11",
"H 	c #322D29",
"I 	c #151314",
"J 	c #141010",
"K 	c #140F0F",
"L 	c #110E0E",
"M 	c #130F0F",
"N 	c #151112",
"O 	c #251E1C",
"P 	c #26201E",
"Q 	c #191213",
"R 	c #0A0A0A",
"S 	c #131011",
"T 	c #181515",
"U 	c #161011",
"V 	c #221C1B",
"W 	c #151011",
"X 	c #110D0E",
"Y 	c #2E2826",
"Z 	c #120E0E",
"` 	c #312A28",
" .	c #0D0C0C",
"..	c #110F11",
"+.	c #150F10",
"@.	c #161111",
"#.	c #151010",
"$.	c #171112",
"%.	c #211B1A",
"&.	c #413736",
"*.	c #403635",
"=.	c #1A1515",
"-.	c #151111",
";.	c #161211",
">.	c #171212",
",.	c #120E0F",
"'.	c #201A19",
").	c #322B29",
"!.	c #3E3433",
"~.	c #140E0F",
"{.	c #171312",
"].	c #332C2A",
"^.	c #191314",
"/.	c #120F0F",
"(.	c #322B28",
"_.	c #342D2A",
":.	c #2E2926",
"<.	c #120D0E",
"[.	c #181414",
"}.	c #2F2A27",
"|.	c #3D3433",
"1.	c #3F3534",
"2.	c #171313",
"3.	c #161314",
"4.	c #342D2B",
"5.	c #3C3232",
"6.	c #3D3332",
"7.	c #130E0F",
"8.	c #1C1616",
"9.	c #1B1616",
"0.	c #171414",
"a.	c #322C28",
"b.	c #1B1515",
"c.	c #0B0A0D",
"d.	c #3F3635",
"e.	c #423737",
"f.	c #110D0D",
"g.	c #150E10",
"h.	c #1C1516",
"i.	c #14100F",
"j.	c #312C28",
"k.	c #181212",
"l.	c #151214",
"m.	c #423837",
"n.	c #181213",
"o.	c #3E3534",
"p.	c #1A1415",
"q.	c #1D1617",
"r.	c #0B0B0A",
"s.	c #352E2B",
"t.	c #423736",
"u.	c #2F2927",
"v.	c #141113",
"w.	c #3B3231",
"x.	c #130D0E",
"y.	c #1A1314",
"z.	c #131010",
"A.	c #3B3131",
"B.	c #1A1414",
"C.	c #201919",
"D.	c #191313",
"E.	c #140F10",
"F.	c #181313",
"G.	c #11100F",
"H.	c #171415",
"I.	c #131012",
"J.	c #3A3130",
"K.	c #120C0D",
"L.	c #2E2825",
"M.	c #1B1615",
"N.	c #140E10",
"O.	c #231C1A",
"P.	c #201A1A",
"Q.	c #191514",
"R.	c #302B28",
"S.	c #231B1A",
"T.	c #0E0C0E",
"U.	c #423836",
"V.	c #302927",
"W.	c #0E0C0F",
"X.	c #181413",
"Y.	c #3D3333",
"Z.	c #332C29",
"`.	c #3C3332",
" +	c #120C0E",
".+	c #27201E",
"++	c #120F10",
"@+	c #362F2D",
"#+	c #302B27",
"$+	c #191516",
"%+	c #433837",
"&+	c #1D1717",
"*+	c #0C0C0C",
"=+	c #131112",
"-+	c #221C1A",
";+	c #251E1E",
">+	c #1E1A1A",
",+	c #1C1717",
"'+	c #0B0A0B",
")+	c #171413",
"!+	c #1B1415",
"    . + @ @ @     . # @ @     $ % @ @ @ @ @   $ @ @ & + @ @     ",
"  * = - ; ; > , , ' ; ; ; ) & ! ~ ; { { ; ; ] ! { ^ / - ; ; (   ",
"$ ! _ ^ { { : < / ^ { [ } | ! / ^ ^ 1 2 ^ / : : 3 4 2 ^ { 5 / & ",
"6 7 8 9 { ^ 0 a b : c d e f b 3 / g h ! 3 < b f i h < 2 j k f $ ",
"6 l m n ; 9 o p p ! / 1 q r q < / : q s ! t p u v w t m 2 x y   ",
"  + z A 9 B C D 7 8 : E w F G t 8 H q D I J K L M F N O P Q y   ",
"  R S 0 8 T M F G O < G U U F F 7 V w W X Y E E Z M F T < `  .  ",
"  R F r ..W U M F r G U U U Z E E +.U @.p p E < E +.#.O < < < $ ",
"  y M K J $.F %.J M $.q U M q < < E K p p p E &.*.Z p o < *.&. .",
"R M #.o < ! =.F E -.;.>.,.'.7 ).&.!.Z p 7 ` &.*.~.F {.].*.*.^.R ",
"R /.D %.7 (._.$.#.< (.:.v X ).&.!.<.r [.}.|.1.W 2.2.C ;.~.~.+.R ",
"  R ,.3.Y *.!.#.p o 4.` +.v 5.6.7.8.9.0.J ~.7.-.a.< (.b b.$.y   ",
"    y M c.d.^.M p ! e.|.f.U g.f.M ! < E p $.M p < < < < ! ^.R   ",
"    y Z X h.U F < *.&.!.~.U M q }.< < b M q i.p t j.< < < E >.R ",
"  y {.E E E k.M l.m.1.n.U M q p 7 ! !.U +.M F p p t < < < < n.R ",
"  $ t < < < < $.U -.-.U M q p E < &.o.{.< < n.r p ! &.&.&.&.p.R ",
"6 p p o ! < ! $.J < b U U v b *.*.~.#.o < *.p.U < &.&.&.&.q.y   ",
"r.p o s.t.&.*.-.p t ! u.+.U +.....U 3.].&.h.U n.>.v.*.w.x.$     ",
"R D ).m.&.1.y.r z.m &.A.~.{.^.< < B.C.v ~.#.>.< < D.~.E.2.F.G.  ",
"  R H.|.!.p.'.U I.!.J.K.#.L.< < < E Z U /.q b < < E E.M.E < m . ",
"  y M X N.Z E.+.U ~.~.@.p q < < < }.+.U Z q q E < E F O.q b m. .",
"    $ U f.i b b Z q W @.p p 7 E *.o.~.k.q q Y d.*.D.'.T E *.P.y ",
"  y M Q.R.< < < }.+.W I.S.q b *.&.*.7.I.p Y d.t.B.U M M k.p.$   ",
"  y #.p p E < < < }.+.W v :.*.&.*.r U W T.!.U.^.U @.< < < B.y   ",
"R #.p p p V.< < < E K q U T.1.*.*.N.#.a $.$.$.U M 7 < < < ! #   ",
"6 p p p p p < ! ! < +.J ;.n.v W.E.J X.! < < ! ^.K %.p t < ! ].. ",
"r.q p p 7 < &.&.&.Y.M o E ! 8.U M p t E < < < (.U w p P Z.*.m. .",
"R F p O < *.&.&.`. +#.q t ! m $.@.p p .+_._._.Y W ++7 @+e.&.t. .",
"  $ S.t #+*.&.m.~.M M H.! *.m.-.p p 7 _.t.&.m.$.M M $+%+&.&.m. .",
"  y 0.].*.&.m.&+M M y *+=+1.m.I.p -+< *.&.&.m.@.6 M J ;+m.m.a y ",
"    6 >+m.m.,+6 y y     R {.F.'+I.! &.t.t.m.)+y   y $ #.!+!+$   ",
"      y  . .R             R R   R .  . . . .          R R R     "};
