/* XPM */
static char * 1_wall_xpm[] = {
"32 32 449 2",
"  	c None",
". 	c #0C0C0B",
"+ 	c #0E0D0D",
"@ 	c #0F0F0E",
"# 	c #100F0E",
"$ 	c #375138",
"% 	c #384F3A",
"& 	c #353E38",
"* 	c #1B1D1C",
"= 	c #0C0B0B",
"- 	c #0D0D0C",
"; 	c #121010",
"> 	c #352F2C",
", 	c #47423E",
"' 	c #56534D",
") 	c #56524C",
"! 	c #131211",
"~ 	c #37322E",
"{ 	c #525449",
"] 	c #306126",
"^ 	c #55564C",
"/ 	c #317224",
"( 	c #275D1E",
"_ 	c #296020",
": 	c #295B22",
"< 	c #3B5239",
"[ 	c #54504B",
"} 	c #394238",
"| 	c #191817",
"1 	c #322C29",
"2 	c #55524C",
"3 	c #54514B",
"4 	c #423D39",
"5 	c #1A1917",
"6 	c #433F3A",
"7 	c #413C38",
"8 	c #312B28",
"9 	c #2E6024",
"0 	c #2E6E21",
"a 	c #347526",
"b 	c #418031",
"c 	c #428132",
"d 	c #347525",
"e 	c #3C7C2D",
"f 	c #357526",
"g 	c #337126",
"h 	c #365534",
"i 	c #2D5C26",
"j 	c #365135",
"k 	c #354038",
"l 	c #373D3A",
"m 	c #403B37",
"n 	c #3F3A36",
"o 	c #433E3A",
"p 	c #423E39",
"q 	c #0B0B0B",
"r 	c #231C1B",
"s 	c #332D2A",
"t 	c #45403C",
"u 	c #261F1E",
"v 	c #211A1A",
"w 	c #2A6121",
"x 	c #307122",
"y 	c #438233",
"z 	c #539243",
"A 	c #569545",
"B 	c #549343",
"C 	c #4A893A",
"D 	c #39792A",
"E 	c #508F3F",
"F 	c #4D8D3D",
"G 	c #427F33",
"H 	c #307123",
"I 	c #295E21",
"J 	c #394A3C",
"K 	c #333E35",
"L 	c #2D2725",
"M 	c #201918",
"N 	c #332E2B",
"O 	c #2D2825",
"P 	c #241D1B",
"Q 	c #342E2B",
"R 	c #46413D",
"S 	c #43443A",
"T 	c #27621C",
"U 	c #418131",
"V 	c #579646",
"W 	c #589747",
"X 	c #468536",
"Y 	c #4E8E3E",
"Z 	c #539242",
"` 	c #4B8A3A",
" .	c #2E6B22",
"..	c #365634",
"+.	c #2F5E28",
"@.	c #365036",
"#.	c #373F3B",
"$.	c #262120",
"%.	c #27201F",
"&.	c #0B0A0A",
"*.	c #1A1617",
"=.	c #36312D",
"-.	c #414638",
";.	c #28661D",
">.	c #3F7F30",
",.	c #448334",
"'.	c #599848",
").	c #4C8C3C",
"!.	c #4B8B3A",
"~.	c #337525",
"{.	c #3D7E2E",
"].	c #367228",
"^.	c #39792B",
"/.	c #2C6323",
"(.	c #384A3B",
"_.	c #343D36",
":.	c #282521",
"<.	c #26201E",
"[.	c #191213",
"}.	c #0A0A0A",
"|.	c #131011",
"1.	c #38492D",
"2.	c #498839",
"3.	c #4D8C3D",
"4.	c #559444",
"5.	c #549443",
"6.	c #458435",
"7.	c #468637",
"8.	c #458434",
"9.	c #4E8D3D",
"0.	c #4D8C3C",
"a.	c #418232",
"b.	c #347425",
"c.	c #2E7020",
"d.	c #2B6123",
"e.	c #1C2D18",
"f.	c #312A28",
"g.	c #0D0C0C",
"h.	c #100E10",
"i.	c #110E10",
"j.	c #438234",
"k.	c #4F8E3E",
"l.	c #539343",
"m.	c #438433",
"n.	c #3F8030",
"o.	c #448333",
"p.	c #4E8D3E",
"q.	c #4F8D3F",
"r.	c #317422",
"s.	c #364D37",
"t.	c #353B38",
"u.	c #14140F",
"v.	c #275E1F",
"w.	c #508E3F",
"x.	c #549344",
"y.	c #4B8A3B",
"z.	c #347325",
"A.	c #428332",
"B.	c #438334",
"C.	c #374A39",
"D.	c #363A39",
"E.	c #403635",
"F.	c #413736",
"G.	c #13100F",
"H.	c #192D13",
"I.	c #2F6F21",
"J.	c #508F40",
"K.	c #4F8E3F",
"L.	c #2A6420",
"M.	c #375139",
"N.	c #373F3A",
"O.	c #3F3736",
"P.	c #191314",
"Q.	c #120F0F",
"R.	c #28621C",
"S.	c #317223",
"T.	c #428233",
"U.	c #367527",
"V.	c #488838",
"W.	c #569546",
"X.	c #519041",
"Y.	c #478636",
"Z.	c #478638",
"`.	c #4F8F3F",
" +	c #28601E",
".+	c #364A37",
"++	c #353C39",
"@+	c #150F10",
"#+	c #2C6621",
"$+	c #3F7E2F",
"%+	c #438333",
"&+	c #4C8B3C",
"*+	c #4C8B3B",
"=+	c #327323",
"-+	c #2F7021",
";+	c #28611F",
">+	c #353E37",
",+	c #1C1A19",
"'+	c #375136",
")+	c #2E6F20",
"!+	c #4A8A3B",
"~+	c #377828",
"{+	c #4F8F3E",
"]+	c #498939",
"^+	c #408131",
"/+	c #367727",
"(+	c #408030",
"_+	c #418132",
":+	c #337425",
"<+	c #355334",
"[+	c #2A5B23",
"}+	c #353F38",
"|+	c #131514",
"1+	c #2B6720",
"2+	c #4C8A3B",
"3+	c #478536",
"4+	c #438434",
"5+	c #337524",
"6+	c #337324",
"7+	c #307022",
"8+	c #28631C",
"9+	c #2D6B21",
"0+	c #2A5E23",
"a+	c #354C36",
"b+	c #363E3A",
"c+	c #333937",
"d+	c #344A35",
"e+	c #428232",
"f+	c #4B8B3B",
"g+	c #4D8D3E",
"h+	c #4C8C3D",
"i+	c #407F30",
"j+	c #49883A",
"k+	c #569645",
"l+	c #2E6D21",
"m+	c #29661D",
"n+	c #2A5D22",
"o+	c #334234",
"p+	c #363D39",
"q+	c #1A1516",
"r+	c #334B34",
"s+	c #2C5F24",
"t+	c #327224",
"u+	c #3F7F2F",
"v+	c #458335",
"w+	c #519040",
"x+	c #529242",
"y+	c #468535",
"z+	c #488738",
"A+	c #3E7F2F",
"B+	c #327324",
"C+	c #2B5B25",
"D+	c #374D39",
"E+	c #323535",
"F+	c #231F1D",
"G+	c #2C6223",
"H+	c #2F7022",
"I+	c #3E7D2F",
"J+	c #529142",
"K+	c #4F8D3E",
"L+	c #357726",
"M+	c #3B7B2B",
"N+	c #317123",
"O+	c #295F20",
"P+	c #313C34",
"Q+	c #0B0B0A",
"R+	c #344B33",
"S+	c #2A5C23",
"T+	c #345433",
"U+	c #296120",
"V+	c #2B6B1E",
"W+	c #468537",
"X+	c #488839",
"Y+	c #337224",
"Z+	c #307222",
"`+	c #2D6C21",
" @	c #29641D",
".@	c #37423A",
"+@	c #36423A",
"@@	c #324A31",
"#@	c #295E20",
"$@	c #27611B",
"%@	c #27601C",
"&@	c #478637",
"*@	c #4A8A3A",
"=@	c #569544",
"-@	c #2F6F22",
";@	c #28631D",
">@	c #295D21",
",@	c #385039",
"'@	c #394E3C",
")@	c #323B34",
"!@	c #344436",
"~@	c #28611E",
"{@	c #2B6A1D",
"]@	c #28641D",
"^@	c #3B7C2C",
"/@	c #478738",
"(@	c #428333",
"_@	c #428033",
":@	c #2B6322",
"<@	c #2A5D23",
"[@	c #363937",
"}@	c #313934",
"|@	c #365035",
"1@	c #306D23",
"2@	c #2C6B20",
"3@	c #3C7C2C",
"4@	c #3A7B2B",
"5@	c #417F31",
"6@	c #355633",
"7@	c #295D22",
"8@	c #384F38",
"9@	c #363E39",
"0@	c #383B39",
"a@	c #364039",
"b@	c #38493B",
"c@	c #2A5F22",
"d@	c #28641C",
"e@	c #2A691E",
"f@	c #2A661F",
"g@	c #2E6D20",
"h@	c #29651D",
"i@	c #408031",
"j@	c #29661E",
"k@	c #28621E",
"l@	c #2B5E23",
"m@	c #285E20",
"n@	c #27601E",
"o@	c #374A38",
"p@	c #363C3A",
"q@	c #211D1C",
"r@	c #354136",
"s@	c #374D38",
"t@	c #29631E",
"u@	c #355134",
"v@	c #2A6021",
"w@	c #2D6C20",
"x@	c #2A681D",
"y@	c #2D6D20",
"z@	c #29631F",
"A@	c #2D6E20",
"B@	c #2C6C1E",
"C@	c #375236",
"D@	c #285E1F",
"E@	c #385139",
"F@	c #37433A",
"G@	c #394B3C",
"H@	c #333737",
"I@	c #1B1A19",
"J@	c #373D3B",
"K@	c #365237",
"L@	c #275F1E",
"M@	c #355433",
"N@	c #2C6C1F",
"O@	c #337424",
"P@	c #3D7D2D",
"Q@	c #3E7E2F",
"R@	c #3B7B2D",
"S@	c #317023",
"T@	c #2A651E",
"U@	c #2B6A1E",
"V@	c #27611D",
"W@	c #365236",
"X@	c #384C3B",
"Y@	c #141514",
"Z@	c #151010",
"`@	c #394B3B",
" #	c #363A3A",
".#	c #384D39",
"+#	c #2B6321",
"@#	c #375237",
"##	c #384F39",
"$#	c #2B6421",
"%#	c #2C6B1F",
"&#	c #285F20",
"*#	c #295F1F",
"=#	c #2B5C24",
"-#	c #394C3C",
";#	c #363B39",
">#	c #221B1A",
",#	c #343C38",
"'#	c #363D3A",
")#	c #374F39",
"!#	c #365037",
"~#	c #296220",
"{#	c #27611C",
"]#	c #384F3B",
"^#	c #38503A",
"/#	c #384E3A",
"(#	c #353938",
"_#	c #332C2A",
":#	c #211A19",
"<#	c #353A38",
"[#	c #37413A",
"}#	c #384B3A",
"|#	c #385138",
"1#	c #29601F",
"2#	c #2B6221",
"3#	c #375137",
"4#	c #365136",
"5#	c #384C3A",
"6#	c #38433C",
"7#	c #363E36",
"8#	c #423837",
"9#	c #251E1C",
"0#	c #3D4643",
"a#	c #394A3B",
"b#	c #394D3C",
"c#	c #364339",
"d#	c #374E38",
"e#	c #373E3A",
"f#	c #3A4240",
"g#	c #363633",
"h#	c #423737",
"i#	c #423736",
"j#	c #231B1A",
"k#	c #241D1C",
"l#	c #302B27",
"m#	c #403837",
"n#	c #3A3D3B",
"o#	c #353C3A",
"p#	c #384D3B",
"q#	c #363F3A",
"r#	c #36393A",
"s#	c #37403B",
"t#	c #363C3B",
"u#	c #313634",
"v#	c #181716",
"w#	c #191516",
"x#	c #433837",
"y#	c #171414",
"z#	c #1D1717",
"A#	c #130F0F",
"B#	c #191717",
"C#	c #373E3B",
"D#	c #3A4140",
"E#	c #413837",
"F#	c #161111",
"G#	c #141010",
"H#	c #251E1E",
"I#	c #1E1A1A",
"J#	c #1C1717",
"K#	c #171312",
"L#	c #181313",
"M#	c #0B0A0B",
"N#	c #131012",
"O#	c #171413",
"P#	c #1B1415",
"    . + @ @ @     . # @ @   $ % & * @ @ @ @   = @ @ - + @ @     ",
"  ; > , ' ' ) ! ! ~ { ] ^ / ( _ : < [ } ' ' | 1 2 3 4 , ' ' 5   ",
"= 1 6 3 2 2 7 8 4 9 0 a b c d e f g h i j k l 7 m n o 3 2 p 4 - ",
"q r s t 2 3 u v w x y z A B C D E F G H I w J K L M 8 o [ N O = ",
"q P Q R ' S T H U B A V W W A X Y W Z ` U  ...+.@.#.$.Q o %.&.  ",
"  + *.=.-.;./ >.,.E A W W '.B ).A A E !.~.{.].^./.(._.:.<.[.&.  ",
"  }.|.u 1.2.3.4.5.6.E A V E E 7.8.9.0.a.b.y a.6.e c.d.e.8 f.g.  ",
"  }.h.i.w j.4.'.4.Y ,.k.4.V V l.F m.a n.o.0.p.q.,.r.s.t.8 8 8 = ",
"  &.u.v.U Z '.4.w.y E x.W W W W B y.c z.A.p.4.4.F B._ C.D.E.F.g.",
"}.G.H.I.>.).A 3.6.6.A W W '.W 4.J.F b d 2.K.4.B 4.` L.M.N.O.P.}.",
"}.Q.R.S.a T.E 6.U.V.4.W V E W.X.0.Y.Z.>.Y 4.J.B `.C x  +.+++@+}.",
"  }.#+$+9.A V k.%+,.&+4.J.B J.z a.*+c =+T.B V Y 3.b -+;+>+,+=   ",
"  '+)+c V W A 4.!+~+X 9.{+k.]+^+/+(+_+:+:+,.p.y.$+x  +<+[+}+|+  ",
"    1+2+A X.B K.).6.C 3+).4+~+n.-+5+y k.).).T.6+7+8+9+0+a+b+c+}.",
"  d+)+e+f+p.g+6.,.h+4.4.W &+^+a i+j+k+4.K.6.6.i+x l+m+n+o+p+q+}.",
"  r+s+t+u+,.v+U F V B w+4.E x+e+y+Z W A V F z+e+A+B+( <+C+D+E+}.",
"q F+<+G+H+b I+:+C B J+B K.!+K+y F 9.A E k.8.L+t+S.M+N+O+n+D+P+  ",
"Q+R+S+T+U+l+V+-+X F F w+).W+f+/+` Y 6.9.B k.X+>.Y+Z+`+ @@..@+@  ",
"}.@@#@_ $@%@I.Z+>.y c !+&@*@y n.*@,.E =@w+B Z 0.A+-@;@>@,@'@)@  ",
"  !@~@{@]@-@^@B+B+e /+y /@:+U B+(@*+9.V B K.F 6._@:@n+<+<@C.[@. ",
"  }@|@1@2@]@x 3@H+:+4@/+T.4+x x a {.F 9.9.y.5@c  .6@<+7@8@9@0@g.",
"  a@b@c@d@e@f@g@h@2@B+i+2.p.]+y b b.b i@u+b.7+j@k@l@m@n@o@p@q@&.",
"  &.r@s@n+t@u@v@w@x@y@i@6.*@y+e :+e Y+S.z@A@0 B@n+C@D@E@F@G@H@  ",
"  = I@J@K@L@[+M@~@t@N@O@P@~.Q@a R@S@T@`+U@]@T V@W@,@>@D+X@N.Y@  ",
"}.Z@++`@ #.#+#I @###$#%#-@k@7+7+I.&#M@n+#@*#l@,@$ =#,@-# #;##   ",
"q >#>#,#'#-#)#,@<@% !#c@~#U@{#n@R.#@<@M@W@)#% ]#^#/#-#N.(#1 _#. ",
"Q+:#>#>#<#[#G@]#}#p@-#|#W@<@1#2###3#4#=#C+% p@X@5#6#J@p@7#E.8#g.",
"}.h.>#9#8 0#9@-##.a#.@G@b#M.)#)#-#'@c#d#/#b#J b+e#f#p@g#h#F.i#g.",
"  = j#k#l#E.m#n#o#D.G@J@[#X@p#G@q#r#-#G@s# #p@t#u#v#w#x#F.F.8#g.",
"  &.y#_#E.F.8#z#A#B#C#6#J@'#'#b+p@p@'#'#D#p@E#F#q A#G#H#8#8#v &.",
"    q I#8#8#J#q &.q     }.K#L#M#N#1 F.i#i#8#O#&.  &.= Z@P#P#=   ",
"      &.g.g.}.            }.}.  }.. g.g.g.g.          }.}.}.    "};
