/* XPM */
static char * P_player_side_xpm[] = {
"32 32 343 2",
"  	c None",
". 	c #0C0C0B",
"+ 	c #0E0D0D",
"@ 	c #0F0F0E",
"# 	c #100F0E",
"$ 	c #0C0B0B",
"% 	c #0D0D0D",
"& 	c #0D0D0C",
"* 	c #121010",
"= 	c #352F2C",
"- 	c #47423E",
"; 	c #56534D",
"> 	c #56524C",
", 	c #131211",
"' 	c #37322E",
") 	c #1F1E1C",
"! 	c #0E0E0D",
"~ 	c #322C29",
"{ 	c #443F3B",
"] 	c #55524C",
"^ 	c #191817",
"/ 	c #54514B",
"( 	c #423D39",
"_ 	c #1A1917",
": 	c #433F3A",
"< 	c #413C38",
"[ 	c #312B28",
"} 	c #524F49",
"| 	c #403A37",
"1 	c #0C0A09",
"2 	c #272727",
"3 	c #292929",
"4 	c #53504A",
"5 	c #3F3936",
"6 	c #433E3A",
"7 	c #403B37",
"8 	c #3F3A36",
"9 	c #423E39",
"0 	c #0B0B0B",
"a 	c #231C1B",
"b 	c #332D2A",
"c 	c #45403C",
"d 	c #261F1E",
"e 	c #211A1A",
"f 	c #2F2926",
"g 	c #4F4B46",
"h 	c #0B0807",
"i 	c #000000",
"j 	c #2B2B2B",
"k 	c #3F3C3B",
"l 	c #2D2825",
"m 	c #2D2725",
"n 	c #201918",
"o 	c #54504B",
"p 	c #332E2B",
"q 	c #241D1B",
"r 	c #342E2B",
"s 	c #46413D",
"t 	c #251E1D",
"u 	c #221B1A",
"v 	c #494544",
"w 	c #5C5957",
"x 	c #5B5856",
"y 	c #1D1C1C",
"z 	c #010101",
"A 	c #1B1B1B",
"B 	c #BDBDBD",
"C 	c #5D5C5B",
"D 	c #605D5C",
"E 	c #241D1C",
"F 	c #0F0D10",
"G 	c #0F0D0F",
"H 	c #110F10",
"I 	c #27201F",
"J 	c #0B0A0A",
"K 	c #1A1617",
"L 	c #36312D",
"M 	c #36302D",
"N 	c #151213",
"O 	c #121011",
"P 	c #322E2D",
"Q 	c #9D9C9C",
"R 	c #BCBCBC",
"S 	c #C7C7C7",
"T 	c #4B4B4B",
"U 	c #8C8C8C",
"V 	c #979797",
"W 	c #FFFFFF",
"X 	c #E2E2E2",
"Y 	c #D5D5D5",
"Z 	c #484747",
"` 	c #140F0F",
" .	c #161414",
"..	c #130F0F",
"+.	c #100E10",
"@.	c #151112",
"#.	c #251E1C",
"$.	c #26201E",
"%.	c #191213",
"&.	c #0A0A0A",
"*.	c #131011",
"=.	c #181515",
"-.	c #3A393A",
";.	c #989898",
">.	c #D3D3D3",
",.	c #FEFEFE",
"'.	c #B4B4B4",
").	c #9B9B9B",
"!.	c #9D9D9D",
"~.	c #9A9A9A",
"{.	c #D1D1D1",
"].	c #D2D2D2",
"^.	c #62605F",
"/.	c #302A27",
"(.	c #120E0E",
"_.	c #312A28",
":.	c #0D0C0C",
"<.	c #110E10",
"[.	c #110F11",
"}.	c #151011",
"|.	c #161011",
"1.	c #6E6E6E",
"2.	c #C9C9C9",
"3.	c #FCFCFC",
"4.	c #E8E8E8",
"5.	c #DCDCDC",
"6.	c #FBFBFB",
"7.	c #ABABAA",
"8.	c #322D2A",
"9.	c #150F10",
"0.	c #151010",
"a.	c #141010",
"b.	c #1A1415",
"c.	c #7B7B7B",
"d.	c #E3E3E3",
"e.	c #CACACA",
"f.	c #525252",
"g.	c #C0C0C0",
"h.	c #CDCDCD",
"i.	c #D9D9D9",
"j.	c #797575",
"k.	c #403635",
"l.	c #413736",
"m.	c #464545",
"n.	c #C2C2C2",
"o.	c #565656",
"p.	c #7F7F7F",
"q.	c #FAFAFA",
"r.	c #AAA9A9",
"s.	c #140E0F",
"t.	c #171312",
"u.	c #332C2A",
"v.	c #191314",
"w.	c #120F0F",
"x.	c #211B1A",
"y.	c #322B28",
"z.	c #6A6867",
"A.	c #FDFDFD",
"B.	c #A3A3A3",
"C.	c #D8D8D8",
"D.	c #F2F2F2",
"E.	c #868686",
"F.	c #171313",
"G.	c #161211",
"H.	c #120E0F",
"I.	c #161314",
"J.	c #2F2928",
"K.	c #615D5D",
"L.	c #EBEBEB",
"M.	c #E1E1E1",
"N.	c #696969",
"O.	c #393838",
"P.	c #322C28",
"Q.	c #1B1515",
"R.	c #171112",
"S.	c #0B0A0D",
"T.	c #615E5D",
"U.	c #B1B1B1",
"V.	c #F8F8F8",
"W.	c #15100F",
"X.	c #110D0E",
"Y.	c #5F5E5E",
"Z.	c #B7B7B7",
"`.	c #EDEDED",
" +	c #D6D6D6",
".+	c #312C28",
"++	c #171212",
"@+	c #646261",
"#+	c #B8B8B8",
"$+	c #F0F0F0",
"%+	c #B6B6B6",
"&+	c #515151",
"*+	c #4F4F4F",
"=+	c #3C3C3C",
"-+	c #3A3A3A",
";+	c #232323",
">+	c #DEDEDE",
",+	c #EAEAEA",
"'+	c #9E9E9E",
")+	c #181213",
"!+	c #666564",
"~+	c #A7A7A7",
"{+	c #929292",
"]+	c #4D4D4D",
"^+	c #1D1D1D",
"/+	c #1C1C1C",
"(+	c #F9F9F9",
"_+	c #848484",
":+	c #5C5A59",
"<+	c #646464",
"[+	c #494949",
"}+	c #020202",
"|+	c #161616",
"1+	c #111111",
"2+	c #383838",
"3+	c #6D6D6D",
"4+	c #585757",
"5+	c #1D1617",
"6+	c #0B0B0A",
"7+	c #352E2B",
"8+	c #625E5D",
"9+	c #7A7A7A",
"0+	c #424242",
"a+	c #050505",
"b+	c #2A2A2A",
"c+	c #444444",
"d+	c #717171",
"e+	c #939393",
"f+	c #141113",
"g+	c #3B3231",
"h+	c #130D0E",
"i+	c #322B29",
"j+	c #423837",
"k+	c #B5B5B5",
"l+	c #BFBFBF",
"m+	c #AFAFAE",
"n+	c #191313",
"o+	c #140F10",
"p+	c #181313",
"q+	c #11100F",
"r+	c #171415",
"s+	c #3D3433",
"t+	c #615C5C",
"u+	c #E7E7E7",
"v+	c #5B5B5B",
"w+	c #828282",
"x+	c #9C9B9B",
"y+	c #1B1615",
"z+	c #555454",
"A+	c #E4E4E4",
"B+	c #C4C4C4",
"C+	c #ADADAD",
"D+	c #616161",
"E+	c #F6F6F6",
"F+	c #ECECEC",
"G+	c #979796",
"H+	c #231C1A",
"I+	c #211A19",
"J+	c #434242",
"K+	c #A6A6A6",
"L+	c #CCCCCC",
"M+	c #E5E5E5",
"N+	c #AEAEAE",
"O+	c #666666",
"P+	c #626262",
"Q+	c #727272",
"R+	c #201A19",
"S+	c #201A1A",
"T+	c #191514",
"U+	c #302B28",
"V+	c #494645",
"W+	c #CECECE",
"X+	c #F1F1F1",
"Y+	c #DBDBDB",
"Z+	c #E0E0E0",
"`+	c #AFAFAF",
" @	c #AAAAAA",
".@	c #F3F3F3",
"+@	c #F5F5F5",
"@@	c #6F6E6E",
"#@	c #181212",
"$@	c #2C2724",
"%@	c #535252",
"&@	c #909090",
"*@	c #BEBEBE",
"=@	c #CFCFCF",
"-@	c #DFDFDF",
";@	c #7E7E7E",
">@	c #7C7C7C",
",@	c #D7D7D7",
"'@	c #1B1616",
")@	c #1A1414",
"!@	c #302927",
"~@	c #545353",
"{@	c #A5A5A5",
"]@	c #B2B2B2",
"^@	c #A9A9A9",
"/@	c #E9E9E9",
"(@	c #A4A4A4",
"_@	c #4B4A4A",
":@	c #525151",
"<@	c #969696",
"[@	c #949494",
"}@	c #343434",
"|@	c #181818",
"1@	c #101010",
"2@	c #060606",
"3@	c #D0D0D0",
"4@	c #4C4C4B",
"5@	c #3F3534",
"6@	c #595757",
"7@	c #131313",
"8@	c #040404",
"9@	c #636363",
"0@	c #332C29",
"a@	c #3C3332",
"b@	c #130E10",
"c@	c #191515",
"d@	c #0A0707",
"e@	c #070605",
"f@	c #342D2A",
"g@	c #2E2826",
"h@	c #120F10",
"i@	c #362F2D",
"j@	c #423737",
"k@	c #423736",
"l@	c #231B1A",
"m@	c #302B27",
"n@	c #050405",
"o@	c #191516",
"p@	c #433837",
"q@	c #171414",
"r@	c #1D1717",
"s@	c #0C0C0C",
"t@	c #030203",
"u@	c #161111",
"v@	c #251E1E",
"w@	c #1E1A1A",
"x@	c #1C1717",
"y@	c #0B0A0B",
"z@	c #131012",
"A@	c #171413",
"B@	c #1B1415",
"    . + @ @ @     . # @ @     $ % @ @ @ @ @   $ @ @ & + @ @     ",
"  * = - ; ; > , , ' ; ; ; ) ! ~ { ; ] ] ; ; ^ ~ ] / ( - ; ; _   ",
"$ ~ : / ] ] < [ ( / ] } | 1 2 3 3 4 5 6 / ( < < 7 8 6 / ] 9 ( & ",
"0 a b c ] / d e f < 4 g h i i i i j k ~ 7 [ f l m n [ 6 o p l $ ",
"0 q r s ; c t u u v w x y i i z i A B C D E u F G H E r 6 I J   ",
"  + K L c M N O P Q R S T i i i U V W X Y Z `  ...+.@.#.$.%.J   ",
"  &.*.d b =...-.;.>.,.W '.).!.~.W W {.X W ].^./.(...+.=.[ _.:.  ",
"  &.+.<.[.}.|.1.2.3.W ,.W W W W W 4.i 3 5.6.7.[ 8.9.0.#.[ [ [ $ ",
"  J ..` a.b.+.c.d.W W W W W W W ,.e.i f.g.h.i.j.k.(.u t [ k.l.:.",
"&...0.t [ ~ m.n.6.W W W W W W W W 4.i o.!.p.q.r.s.+.t.u.k.k.v.&.",
"&.w.O x.a y.z.>.W W W W W W W W W A.B.i i C.D.E.F.F.N G.s.s.9.&.",
"  &.H.I.J.k.K.{.W W W W W W W W W A.{.B L.M.N.O.P.[ y.f Q.R.J   ",
"    J ..S.T.U.4.W W W W W W W W W W V.6.W C.i W.[ [ [ [ ~ v.&.  ",
"    J (.X.Y.Z.`.W W W W 4.M.X 5.W W W W W  +i W.E .+[ [ [ /.++&.",
"  J t././.@+#+$+W %+&+*+=+-+;+i.>+W W W W W ,+'+u E [ [ [ [ )+&.",
"  $ E [ [ !+~+{+]+i i i i i i ^+/+*+W W (+S _+<.u ~ l.l.l.l.b.&.",
"0 u u t :+'.$+].<+[+i }+i i i i i z |+1+2+3+4+|.[ l.l.l.l.5+J   ",
"6+u t 7+8+'.,+W W g.9+0+i i i i i i a+b+c+d+e+E.++f+k.g+h+$     ",
"&.O i+j+8+'.,+W W W W k+T i i i i i i 2 3+l+3.m+[ n+s.o+F.p+q+  ",
"  &.r+s+t+'.u+,.W W W W n.v+i i i i z i w+W W `.x+/.o+y+/.[ r . ",
"  J ..X.z+%+i.A+A.W W W B+C+D+i i i i i U E+W F+G+/.+.H+I+f j+:.",
"    $ |.J+K+e.L+M+A.W W d.B N+O+<+<+P+Q+].W W `.x+n+R+=./.k.S+J ",
"  J ..T+U+V+U k+W+4.X+X+Y+Z+C+`+`+N+ @e..@A.+@5.@@|.....#@b.$   ",
"  J 0.u u $@%@&@Z.*@=@Y -@ @;@>@>@w+L+X W (+,@&@|.'@[ [ [ )@J   ",
"&.0.u u u !@f ~@e+{@]@Y+^@;+0 1+1+3 {@/@W u+(@_@..a [ [ [ ~ #   ",
"0 u u u u u [ /.:@<@C+[@}@2 |@|+|+1@2@;.3@~+4@R.` x.u E [ ~ u.. ",
"6+I+u u a [ l.l.5@6@N.2 i 7@i i i i i 8@9@o.f y.|.H u $.0@k.j+:.",
"&.+.u #.[ k.l.l.a@b@c@d@i i i i i i i e@b i+f@g@}.h@a i@j@l.k@:.",
"  $ l@E m@k.l.j+s.....n@i i i i i i }+0@k@l.j+R.....o@p@l.l.j+:.",
"  J q@u.k.l.j+r@....J s@t@i i i i z [ k.l.l.j+u@0 ..a.v@j+j+e J ",
"    0 w@j+j+x@0 J J     &.t.p+y@z@~ l.k@k@j+A@J   J $ 0.B@B@$   ",
"      J :.:.&.            &.&.  &.. :.:.:.:.          &.&.&.    "};
