/* XPM */
static char * P_player_xpm[] = {
"32 32 112 2",
"  	c None",
". 	c #0C0C0B",
"+ 	c #0E0D0D",
"@ 	c #0F0F0E",
"# 	c #100F0E",
"$ 	c #0C0B0B",
"% 	c #0D0D0D",
"& 	c #0D0D0C",
"* 	c #121010",
"= 	c #352F2C",
"- 	c #47423E",
"; 	c #56534D",
"> 	c #2A2A2A",
", 	c #000000",
"' 	c #1F1E1C",
") 	c #322C29",
"! 	c #443F3B",
"~ 	c #55524C",
"{ 	c #54514B",
"] 	c #423D39",
"^ 	c #1A1917",
"/ 	c #433F3A",
"( 	c #524F49",
"_ 	c #403A37",
": 	c #A6A6A6",
"< 	c #3F3936",
"[ 	c #3F3A36",
"} 	c #433E3A",
"| 	c #423E39",
"1 	c #0B0B0B",
"2 	c #231C1B",
"3 	c #332D2A",
"4 	c #45403C",
"5 	c #FFFFFF",
"6 	c #201918",
"7 	c #312B28",
"8 	c #54504B",
"9 	c #332E2B",
"0 	c #2D2825",
"a 	c #241D1B",
"b 	c #342E2B",
"c 	c #46413D",
"d 	c #110F10",
"e 	c #241D1C",
"f 	c #27201F",
"g 	c #0B0A0A",
"h 	c #1A1617",
"i 	c #36312D",
"j 	c #36302D",
"k 	c #130F0F",
"l 	c #100E10",
"m 	c #151112",
"n 	c #251E1C",
"o 	c #26201E",
"p 	c #191213",
"q 	c #0A0A0A",
"r 	c #131011",
"s 	c #261F1E",
"t 	c #181515",
"u 	c #312A28",
"v 	c #0D0C0C",
"w 	c #110E10",
"x 	c #151010",
"y 	c #140F0F",
"z 	c #221B1A",
"A 	c #251E1D",
"B 	c #403635",
"C 	c #413736",
"D 	c #332C2A",
"E 	c #191314",
"F 	c #120F0F",
"G 	c #121011",
"H 	c #D7D7D7",
"I 	c #161211",
"J 	c #140E0F",
"K 	c #150F10",
"L 	c #120E0F",
"M 	c #6C6C6C",
"N 	c #2F2926",
"O 	c #1B1515",
"P 	c #171112",
"Q 	c #E3E3E3",
"R 	c #302A27",
"S 	c #171212",
"T 	c #181213",
"U 	c #1A1415",
"V 	c #1D1617",
"W 	c #0B0B0A",
"X 	c #434343",
"Y 	c #181313",
"Z 	c #11100F",
"` 	c #211A19",
" .	c #423837",
"..	c #201A1A",
"+.	c #181212",
"@.	c #1A1414",
"#.	c #332C29",
"$.	c #362F2D",
"%.	c #423737",
"&.	c #423736",
"*.	c #231B1A",
"=.	c #191516",
"-.	c #433837",
";.	c #171414",
">.	c #141010",
",.	c #251E1E",
"'.	c #211A1A",
").	c #1E1A1A",
"!.	c #171312",
"~.	c #0B0A0B",
"{.	c #131012",
"].	c #1B1415",
"    . + @ @ @     . # @ @     $ % @ @ @ @ @   $ @ @ & + @ @     ",
"  * = - ; ; > > > , ; ; ; ' & ) ! ; ~ ~ > > > > ~ { ] - ; ; ^   ",
"$ ) / { ~ > , , , , , ( _ : : : : { < , , , , > > [ } { ~ | ] & ",
"1 2 3 4 ~ > , , , , , : : 5 5 5 5 : : , , , , , > 6 7 } 8 9 0 $ ",
"1 a b c ; , , , , 5 5 5 5 5 5 5 5 5 5 , , , , , , d e b } f g   ",
"  + h i 4 j , , 5 5 5 5 5 5 5 5 5 5 5 5 5 5 , , k l m n o p g   ",
"  q r s 3 : 5 5 5 5 5 , , , 5 5 , , , 5 5 5 5 : : k l t 7 u v   ",
"  q l w : : 5 5 5 5 , , , , 5 5 , , , , 5 5 5 5 : : x n 7 7 7 $ ",
"  g k y : 5 5 5 , , , 5 , , 5 5 , , 5 , , , 5 5 5 : z A 7 B C v ",
"q k x : 5 5 5 5 , , , , , , 5 5 , , , , , , , 5 5 5 : D B B E q ",
"q F G : 5 5 5 , , , , , , H 5 5 H , , , , , , , 5 5 : I J J K q ",
"  q L M 5 5 5 , , , , , , H 5 5 5 H , , , , , , 5 5 M N O P g   ",
"    g M 5 5 5 Q , , , , H 5 5 5 5 5 H , , , , : 5 5 M 7 ) E q   ",
"    g M 5 5 5 5 Q , , H H , , , , , H H , , : 5 5 5 M 7 7 R S q ",
"  g > > > > 5 5 5 5 5 Q 5 5 , , , 5 5 5 5 5 5 5 > > > > 7 7 T q ",
"  , , , , > > 5 5 5 5 5 5 5 5 5 5 5 5 5 5 5 5 > > , , , , C U q ",
"1 , , , , , , > 5 5 5 5 5 5 5 5 5 5 5 5 5 5 5 > , , , , , V g   ",
"W , , , , , , , , X Q Q 5 5 5 5 5 5 5 5 Q Q , , , , , , , $     ",
"q , , , , , , , , : X : Q Q Q 5 5 5 Q M X , , , , , , , , Y Z   ",
"  , , , , , , , , : : X X X X X X X X X : , , , , , , , , 7 b . ",
"  g , , , , , , , Q Q Q Q : : : : : : Q Q Q , , , , , , ` N  .v ",
"    X : , , , , 5 5 5 5 Q Q Q Q Q Q Q 5 5 5 5 Q Q Q : X R B ..g ",
"  g X : : Q Q 5 5 5 5 5 5 5 5 5 5 5 5 5 5 5 5 5 Q Q : X +.U $   ",
"  g X : : Q Q 5 5 5 5 5 5 5 , , Q 5 5 5 5 5 5 5 Q : : X 7 @.g   ",
"q x z X : Q Q 5 5 5 5 5 5 5 Q Q Q 5 5 5 5 5 5 Q Q : X 7 7 ) #   ",
"1 z z , , Q Q Q 5 5 5 5 5 5 5 5 5 5 5 5 5 5 Q : , , , e 7 ) D . ",
"W ` z , , , : Q Q Q Q 5 5 5 5 5 5 5 5 5 Q 5 Q Q , , , o #.B  .v ",
"q l z , , , , : : : Q Q Q 5 5 5 5 Q Q Q Q : : , , , , $.%.C &.v ",
"  $ *.e , , , , , : : Q Q Q Q Q Q Q : : : : , , , , =.-.C C  .v ",
"  g ;.D , , , , , , , , , , , , , , , , , , , , , , >.,. . .'.g ",
"    1 ). ., , , , , ,   q !.Y ~.{.) C , , , , , , g $ x ].].$   ",
"      g v v q             q q   q . v v v v           q q q     "};
