/* XPM */
static char * P_player_1_xpm[] = {
"32 32 126 2",
"  	c None",
". 	c #0C0C0B",
"+ 	c #0E0D0D",
"@ 	c #0F0F0E",
"# 	c #100F0E",
"$ 	c #0C0B0B",
"% 	c #0D0D0D",
"& 	c #0D0D0C",
"* 	c #121010",
"= 	c #352F2C",
"- 	c #47423E",
"; 	c #56534D",
"> 	c #56524C",
", 	c #131211",
"' 	c #37322E",
") 	c #1F1E1C",
"! 	c #322C29",
"~ 	c #443F3B",
"{ 	c #55524C",
"] 	c #191817",
"^ 	c #54514B",
"/ 	c #423D39",
"( 	c #1A1917",
"_ 	c #433F3A",
": 	c #413C38",
"< 	c #2A2A2A",
"[ 	c #000000",
"} 	c #524F49",
"| 	c #403A37",
"1 	c #423C38",
"2 	c #3F3936",
"3 	c #433E3A",
"4 	c #3F3A36",
"5 	c #423E39",
"6 	c #0B0B0B",
"7 	c #231C1B",
"8 	c #332D2A",
"9 	c #45403C",
"0 	c #2E2725",
"a 	c #2D2825",
"b 	c #A6A6A6",
"c 	c #201918",
"d 	c #312B28",
"e 	c #54504B",
"f 	c #332E2B",
"g 	c #241D1B",
"h 	c #342E2B",
"i 	c #46413D",
"j 	c #FFFFFF",
"k 	c #241D1C",
"l 	c #27201F",
"m 	c #0B0A0A",
"n 	c #1A1617",
"o 	c #36312D",
"p 	c #36302D",
"q 	c #151112",
"r 	c #251E1C",
"s 	c #26201E",
"t 	c #191213",
"u 	c #0A0A0A",
"v 	c #131011",
"w 	c #261F1E",
"x 	c #181515",
"y 	c #130F0F",
"z 	c #100E10",
"A 	c #312A28",
"B 	c #0D0C0C",
"C 	c #110E10",
"D 	c #110F11",
"E 	c #151011",
"F 	c #151010",
"G 	c #140F0F",
"H 	c #141010",
"I 	c #251E1D",
"J 	c #403635",
"K 	c #413736",
"L 	c #332C2A",
"M 	c #191314",
"N 	c #120F0F",
"O 	c #121011",
"P 	c #211B1A",
"Q 	c #140E0F",
"R 	c #150F10",
"S 	c #120E0F",
"T 	c #161314",
"U 	c #D7D7D7",
"V 	c #1B1515",
"W 	c #171112",
"X 	c #6C6C6C",
"Y 	c #120E0E",
"Z 	c #E3E3E3",
"` 	c #302A27",
" .	c #171212",
"..	c #171312",
"+.	c #181213",
"@.	c #1A1415",
"#.	c #221B1A",
"$.	c #1D1617",
"%.	c #0B0B0A",
"&.	c #322B29",
"*.	c #11100F",
"=.	c #171415",
"-.	c #434343",
";.	c #2F2926",
">.	c #423837",
",.	c #161011",
"'.	c #201A1A",
").	c #191514",
"!.	c #404040",
"~.	c #1A1414",
"{.	c #211A19",
"].	c #332C29",
"^.	c #423737",
"/.	c #423736",
"(.	c #231B1A",
"_.	c #302B27",
":.	c #433837",
"<.	c #171414",
"[.	c #251E1E",
"}.	c #211A1A",
"|.	c #1E1A1A",
"1.	c #1C1717",
"2.	c #181313",
"3.	c #0B0A0B",
"4.	c #131012",
"5.	c #1B1415",
"    . + @ @ @     . # @ @     $ % @ @ @ @ @   $ @ @ & + @ @     ",
"  * = - ; ; > , , ' ; ; ; ) & ! ~ ; { { ; ; ] ! { ^ / - ; ; (   ",
"$ ! _ ^ { { : < < < [ } | 1 ! / ^ ^ 2 3 ^ < < < < 4 3 ^ { 5 / & ",
"6 7 8 9 { ^ < [ [ [ [ [ 0 a b b b b c ! [ [ [ [ < < d 3 e f a $ ",
"6 g h i ; 9 < [ [ [ [ [ b b j j j j b b [ [ [ [ [ < k h 3 l m   ",
"  + n o 9 p [ [ [ [ j j j j j j j j j j [ [ [ [ [ [ q r s t m   ",
"  u v w 8 x y [ [ j j j j j j j j j j j j j j [ [ y z x d A B   ",
"  u z C D E b j j j j j [ [ [ j j [ [ [ j j j j b b F r d d d $ ",
"  m y G H b b j j j j [ [ [ [ j j [ [ [ [ j j j j b b I d J K B ",
"u y F I d b j j j [ [ [ j [ [ j j [ [ j [ [ [ j j j b L J J M u ",
"u N O P b j j j j [ [ [ [ [ [ j j [ [ [ [ [ [ [ j j j b Q Q R u ",
"  u S T b j j j [ [ [ [ [ [ U j j U [ [ [ [ [ [ [ j j b V W m   ",
"    m y X j j j [ [ [ [ [ [ U j j j U [ [ [ [ [ [ j j X ! M u   ",
"    m Y X j j j Z [ [ [ [ U j j j j j U [ [ [ [ b j j X d `  .u ",
"  m ..` X j j j j Z [ [ U U [ [ [ [ [ U U [ [ b j j j X d d +.u ",
"  $ k d < < < < j j j j Z j j [ [ [ j j j j j j j j < < < K @.u ",
"6 #.#.[ [ [ [ < < j j j j j j j j j j j j j j j j < < [ [ $.m   ",
"%.#.I [ [ [ [ [ [ < j j j j j j j j j j j j j j j < [ [ [ [     ",
"u O &.[ [ [ [ [ [ [ [ Z Z j j j j j j j j Z Z Z [ [ [ [ [ [ *.  ",
"  u =.[ [ [ [ [ [ [ [ -.b Z Z Z j j j Z X -.-.[ [ [ [ [ [ [ h . ",
"  m y [ [ [ [ [ [ [ [ b -.-.-.-.-.-.-.-.-.b U [ [ [ [ [ [ ;.>.B ",
"    $ ,.[ [ [ [ [ [ [ Z Z Z b b b b b b Z Z U U [ [ [ [ [ J '.m ",
"  m y ).-.b [ [ [ [ j j j Z Z Z Z Z Z Z j j j j Z Z Z b -.@.$   ",
"  m F #.!.U j j j j j j j j j [ [ Z j j j j j j j Z b b -.~.m   ",
"u F #.#.-.b j j j j j j j j j Z Z Z j j j U U U U U b -.d ! #   ",
"6 #.#.#.[ [ Z Z j j j j j j j j j j j U U U < < < < < [ d ! L . ",
"%.{.#.#.[ [ [ b j j j j j j j j j j U U < < < [ [ [ [ [ ].J >.B ",
"u z #.r [ [ [ [ b b j j j j j j j j U < < [ [ [ [ [ [ [ ^.K /.B ",
"  $ (.k _.[ [ [ [ [ b b Z Z Z Z Z Z Z [ [ [ [ [ [ [ [ :.K K >.B ",
"  m <.L J K >.[ [ [ [ [ [ [ [ [ [ [ [ [ [ [ [ [ [ [ [ [.>.>.}.m ",
"    6 |.>.>.1.6 m m     u ..2.3.4.! K /.[ [ [ [ [ [ $ F 5.5.$   ",
"      m B B u             u u   u . B B B B           u u u     "};
