/* XPM */
static char * P_player_back_1_xpm[] = {
"32 32 279 2",
"  	c None",
". 	c #0C0C0B",
"+ 	c #0E0D0D",
"@ 	c #0F0F0E",
"# 	c #100F0E",
"$ 	c #0C0B0B",
"% 	c #0D0D0D",
"& 	c #0D0D0C",
"* 	c #121010",
"= 	c #352F2C",
"- 	c #47423E",
"; 	c #56534D",
"> 	c #56524C",
", 	c #131211",
"' 	c #37322E",
") 	c #1F1E1C",
"! 	c #322C29",
"~ 	c #443F3B",
"{ 	c #55524C",
"] 	c #191817",
"^ 	c #54514B",
"/ 	c #423D39",
"( 	c #1A1917",
"_ 	c #433F3A",
": 	c #413C38",
"< 	c #312B28",
"[ 	c #403B37",
"} 	c #504D49",
"| 	c #53504A",
"1 	c #524F49",
"2 	c #403A37",
"3 	c #423C38",
"4 	c #3F3936",
"5 	c #433E3A",
"6 	c #3F3A37",
"7 	c #3F3A36",
"8 	c #423E39",
"9 	c #0B0B0B",
"0 	c #231C1B",
"a 	c #332D2A",
"b 	c #45403C",
"c 	c #272323",
"d 	c #282828",
"e 	c #292929",
"f 	c #202020",
"g 	c #0E0D0B",
"h 	c #4F4B46",
"i 	c #2E2725",
"j 	c #454241",
"k 	c #676665",
"l 	c #6B6867",
"m 	c #6E6C69",
"n 	c #62605C",
"o 	c #201918",
"p 	c #292828",
"q 	c #2A2A2A",
"r 	c #2B2927",
"s 	c #54504B",
"t 	c #332E2B",
"u 	c #2D2825",
"v 	c #241D1B",
"w 	c #342E2B",
"x 	c #46413D",
"y 	c #403C38",
"z 	c #272727",
"A 	c #000000",
"B 	c #232323",
"C 	c #5A5A5A",
"D 	c #5F5F5F",
"E 	c #211A19",
"F 	c #C5C5C5",
"G 	c #E6E6E6",
"H 	c #CFCFCF",
"I 	c #575757",
"J 	c #212121",
"K 	c #1D1C1C",
"L 	c #241D1C",
"M 	c #27201F",
"N 	c #0B0A0A",
"O 	c #1A1617",
"P 	c #36312D",
"Q 	c #342E2D",
"R 	c #5E5E5E",
"S 	c #A0A0A0",
"T 	c #FFFFFF",
"U 	c #FCFCFC",
"V 	c #E3E3E3",
"W 	c #F1F1F1",
"X 	c #F3F3F3",
"Y 	c #E5E5E5",
"Z 	c #E9E9E9",
"` 	c #9F9F9F",
" .	c #5D5D5D",
"..	c #2C2C2C",
"+.	c #222222",
"@.	c #1A1A1A",
"#.	c #151112",
"$.	c #251E1C",
"%.	c #26201E",
"&.	c #191213",
"*.	c #0A0A0A",
"=.	c #131011",
"-.	c #261F1E",
";.	c #141313",
">.	c #848484",
",.	c #FEFEFE",
"'.	c #ADADAD",
").	c #131313",
"!.	c #0F0B0B",
"~.	c #100E10",
"{.	c #181515",
"].	c #312A28",
"^.	c #0D0C0C",
"/.	c #110E10",
"(.	c #110F11",
"_.	c #151011",
":.	c #878787",
"<.	c #CCCCCC",
"[.	c #929292",
"}.	c #575656",
"|.	c #150F10",
"1.	c #151010",
"2.	c #130F0F",
"3.	c #140F0F",
"4.	c #252323",
"5.	c #7C7B7B",
"6.	c #B4B4B4",
"7.	c #D6D6D6",
"8.	c #A8A8A8",
"9.	c #312D2C",
"0.	c #251E1D",
"a.	c #403635",
"b.	c #413736",
"c.	c #4C4948",
"d.	c #A5A5A5",
"e.	c #CECECE",
"f.	c #D4D4D4",
"g.	c #A6A6A6",
"h.	c #555454",
"i.	c #332C2A",
"j.	c #191314",
"k.	c #120F0F",
"l.	c #121011",
"m.	c #2C2827",
"n.	c #8B8B8B",
"o.	c #D3D3D3",
"p.	c #919191",
"q.	c #2B2929",
"r.	c #140E0F",
"s.	c #120E0F",
"t.	c #434142",
"u.	c #B1B1B1",
"v.	c #B6B6B6",
"w.	c #595756",
"x.	c #1B1515",
"y.	c #171112",
"z.	c #403F3F",
"A.	c #B0B0B0",
"B.	c #B8B8B8",
"C.	c #3B3B3B",
"D.	c #B2B2B2",
"E.	c #F7F7F7",
"F.	c #A3A3A3",
"G.	c #4E4B4B",
"H.	c #302A27",
"I.	c #171212",
"J.	c #171312",
"K.	c #3E3D3C",
"L.	c #A1A1A1",
"M.	c #7F7F7F",
"N.	c #363534",
"O.	c #181213",
"P.	c #0F0C0B",
"Q.	c #1E1E1E",
"R.	c #6E6E6E",
"S.	c #EEEEEE",
"T.	c #F0F0F0",
"U.	c #BDBDBD",
"V.	c #6A6A6A",
"W.	c #262626",
"X.	c #1B1616",
"Y.	c #3F3534",
"Z.	c #1A1415",
"`.	c #201B1A",
" +	c #313131",
".+	c #9E9E9E",
"++	c #BBBBBB",
"@+	c #DCDCDC",
"#+	c #F4F4F4",
"$+	c #C6C6C6",
"%+	c #4D4D4D",
"&+	c #1B1415",
"*+	c #0B0B0A",
"=+	c #3E3E3E",
"-+	c #F2F2F2",
";+	c #EFEFEF",
">+	c #DADADA",
",+	c #656565",
"'+	c #0A0909",
")+	c #636363",
"!+	c #F6F6F6",
"~+	c #ECECEC",
"{+	c #616161",
"]+	c #161111",
"^+	c #11100F",
"/+	c #010101",
"(+	c #414141",
"_+	c #FAFAFA",
":+	c #626262",
"<+	c #2D2724",
"[+	c #080606",
"}+	c #E1E1E1",
"|+	c #110C0B",
"1+	c #2F2926",
"2+	c #423837",
"3+	c #535353",
"4+	c #201A1A",
"5+	c #171414",
"6+	c #545454",
"7+	c #D1D1D1",
"8+	c #D2D2D2",
"9+	c #5C5C5C",
"0+	c #1A1616",
"a+	c #1A1717",
"b+	c #4E4E4E",
"c+	c #F8F8F8",
"d+	c #CDCDCD",
"e+	c #AFAFAF",
"f+	c #555555",
"g+	c #312C2A",
"h+	c #1A1414",
"i+	c #221B1A",
"j+	c #383535",
"k+	c #E8E8E8",
"l+	c #717171",
"m+	c #494949",
"n+	c #444241",
"o+	c #080808",
"p+	c #6D6D6D",
"q+	c #EDEDED",
"r+	c #A2A2A2",
"s+	c #070707",
"t+	c #1F1918",
"u+	c #6C6C6C",
"v+	c #C1C1C1",
"w+	c #EAEAEA",
"x+	c #979797",
"y+	c #201C1A",
"z+	c #332C29",
"A+	c #27221F",
"B+	c #AEAEAE",
"C+	c #BEBEBE",
"D+	c #DDDDDD",
"E+	c #DEDEDE",
"F+	c #C4C4C4",
"G+	c #787878",
"H+	c #0C0C0C",
"I+	c #2F2927",
"J+	c #423737",
"K+	c #423736",
"L+	c #231B1A",
"M+	c #302B27",
"N+	c #332B2A",
"O+	c #090909",
"P+	c #242424",
"Q+	c #120F10",
"R+	c #433837",
"S+	c #352C2C",
"T+	c #252525",
"U+	c #141414",
"V+	c #100C0C",
"W+	c #251E1E",
"X+	c #211A1A",
"Y+	c #1E1A1A",
"Z+	c #1C1717",
"`+	c #181313",
" @	c #0B0A0B",
".@	c #131012",
"+@	c #070606",
"    . + @ @ @     . # @ @     $ % @ @ @ @ @   $ @ @ & + @ @     ",
"  * = - ; ; > , , ' ; ; ; ) & ! ~ ; { { ; ; ] ! { ^ / - ; ; (   ",
"$ ! _ ^ { { : < [ } | 1 2 3 ! / ^ ^ 4 5 1 [ 6 7 [ 7 5 ^ { 8 / & ",
"9 0 a b { ^ c d e f g h i j k l m n o ! p e d q r o < 5 s t u $ ",
"9 v w x ; y z A A B C D E F G G G H E I f A A J q K L w 5 M N   ",
"  + O P b Q f B R S T U V W T T T X Y Z `  ...A +.@.#.$.%.&.N   ",
"  *.=.-.a ;.A >.T T ,.T T T T T T T T T T T '.).A !.~.{.< ].^.  ",
"  *.~./.(._.:.<.T T T T T T T T T T T T T ,.T [.}.|.1.$.< < < $ ",
"  N 2.3.4.5.6.T T T T T T T T T T T T T T T T 7.8.>.9.0.< a.b.^.",
"*.2.1.0.c.d.e.T T T T T T T T T T T T T T T T T f.g.h.i.a.a.j.*.",
"*.k.l.m.n.e.T T T T T T T T T T T T T T T T T T T o.p.q.r.r.|.*.",
"  *.s.t.u.T T T T T T T T T T T T T T T T T T T T T v.w.x.y.N   ",
"    N z.A.T T T T T T T T T T T T T T T T T T T T T B.w.! j.*.  ",
"    N C.D.T T T T T T T T T T T T T T T T T T T T E.F.G.< H.I.*.",
"  N J.K.L.T T T T T T T T T T T T T T T T T T T T Y M.N.< < O.*.",
"  $ P.Q.R.E.S.T.T T T T T T T T T T T T T T T T E.U.V.W.X.Y.Z.*.",
"9 `.A A  +.+++@+T T T T T T T T T T T T T T T #+F M.$+%+A &+N   ",
"*+`.A A A =+Y T.S.-+T T T T T T T T T T T T ;+@+>+@+T ,+A '+    ",
"*.l.A A A )+T ,.W !+T T T T T E.~+~+E.T T T -+-+T T T {+A ]+^+  ",
"  *.A /+A (+T T T T T T T T T _+X X _+T T T T T T T T :+A <+w . ",
"  N [+A A }+T T T T T T T T T T T T T T T T T T T T T R |+1+2+^.",
"    $ 3+Z T T T T T T T T T T T T T T T T T T T T T T R.u a.4+N ",
"  N 5+6+7+T T T T T T T T T T T T T T T T T T T T T 8+9+0+Z.$   ",
"  N a+b+'.F ~+S.T T T T T T T T T T T T T ,.T T c+d+e+f+g+h+N   ",
"*.1.i+j+V.6.Y k+T T T T T T T T T T T T T T A.l+R.m+R n+< ! #   ",
"9 i+i+o o+p+;+G q+T T T T T T T T T T ~+G r+@.A A A s+o < ! i.. ",
"*+E i+t+A *.u+v+Z w+k+;+T T T T T S.@+V x+A A /+A A A y+z+a.2+^.",
"*.~.i+$.A+A A  .v.B+C+w+Y D+D+D+E+E+F+G+H+A /+A A A A I+J+b.K+^.",
"  $ L+L M+N+A O+P+D A.e+B+'.'.'.'.'.A.u+A A A A A A Q+R+b.b.2+^.",
"  N 5+i.a.b.S+A A H+T+B B B B B B B T+U+A A A A A A V+W+2+2+X+N ",
"    9 Y+2+2+Z+9 N N     *.J.`+ @.@H.b.1.A A A A A +@$ 1.&+&+$   ",
"      N ^.^.*.            *.*.  *.. ^.^.^.^.          *.*.*.    "};
